<svg width="1280" height="427" viewBox="0 0 1280 427" fill="none" xmlns="http://www.w3.org/2000/svg">
<path d="M481.142 161.578C480.253 156.134 439.557 159.85 434.244 159.924C419.673 160.127 404.986 159.895 390.432 160.534C372.368 161.326 353.633 178.852 343.823 190.643C328.935 208.537 312.988 230.208 312.01 252.57C311.606 261.792 308.904 277.19 318.092 283.74C333.593 294.79 362.016 295.787 380.721 296.703C429.975 299.115 489.034 303.853 535.557 286.608C579.139 270.454 662.565 222.512 639.461 171.417C625.133 139.73 562.235 138.605 530.36 143.473C486.535 150.167 433.977 175.457 435.191 217.041C436.465 260.677 493.702 287.922 539.459 292.703C583.633 297.317 626.578 298.109 666.294 278.386C708.222 257.564 751.922 219.047 763.841 178.142C773.322 145.603 763.232 120.765 724.992 107.463C695.406 97.1705 663.134 94.0235 631.349 93.1374C605.439 92.4152 574.842 90.4131 549.392 95.686C538.265 97.9914 515.332 104.524 511.797 115.166C504.554 136.972 519.614 172.777 528.914 193.193C544.732 227.92 570.377 263.105 603.973 287.578C643.635 316.47 709.955 330.531 761.547 320.613C800.63 313.099 832.212 295.534 861.35 272.856C903.272 240.228 941.143 202.994 972.811 163.068C993.805 136.599 1003.18 111.014 1011.36 80.2962C1015.8 63.6089 1021.3 50.5377 996.594 50.6559C957.037 50.8452 927.687 56.3414 892.146 71.8345C857.088 87.1163 824.659 101.625 797.008 125.675C780.214 140.281 774.537 152.686 779.033 172.679C786.07 203.963 804.803 238.647 824.002 266.202C844.341 295.393 871.011 322.556 911.937 331.203C963.433 342.084 998.551 327.27 1034.52 296.579C1069.32 266.883 1103.57 235.986 1121.38 196.484C1127 184.026 1138.21 156.44 1123.57 144.96C1105.1 130.484 1061.03 135.167 1038.39 135.385C988.56 135.864 937.279 132.776 889.843 147.825C858.536 157.758 838.402 175.168 834.121 203.296C828.305 241.498 828.364 282.362 843.819 318.829C858.216 352.797 877.466 373.66 919.098 385.031C988.244 403.916 1049.55 374.98 1106.61 342.202C1153.66 315.177 1193.46 280.138 1228.91 242.895C1244.64 226.364 1261.88 207.577 1260.78 185.067C1260.07 170.632 1214.59 165.896 1203.99 164.08C1163.65 157.172 1125.08 152.97 1083.87 156.016C1061.22 157.689 1030.66 161.349 1020.24 181.11C1010.86 198.918 1014.99 222.712 1015.43 241.508C1016.11 270.753 1039.5 298.416 1075.8 300.36C1139.02 303.745 1196.49 274.716 1229.35 230.976C1242.85 213.011 1232.28 188.937 1216.35 174.668C1167.67 131.05 1088.74 114.318 1019.91 113.225C910.484 111.488 809.209 157.474 725.859 213.768C700.471 230.915 634.117 272.219 646.539 307.097C656.987 336.432 723.156 346.959 752.232 353.534C796.083 363.451 837.726 370.047 883.47 370.283C919.388 370.468 945.265 355.942 964.285 329.579C979.674 308.249 986.988 269.969 977.328 246.393C966.044 218.852 936.027 204.51 905.464 195.131C881.359 187.733 858.104 184.011 832.469 183.336C780.877 181.979 728.072 181.664 676.61 185.76C600.134 191.846 521.744 211.295 451.192 236.8C420.016 248.071 389.25 264.473 377.607 292.391C370.873 308.538 370.129 332.763 378.54 348.483C389.756 369.446 414.312 376.5 439.597 380.169C483.497 386.54 522.014 382.303 560.898 363.112C630.592 328.712 693.751 285.035 740.891 229.698C759.84 207.455 793.189 173.73 781.984 143.305C779.563 136.732 770.521 134.291 763.807 131.773C735.785 121.264 704.6 114.465 674.198 111.115C635.911 106.896 596.667 107.457 558.108 107.606C516.982 107.764 474.847 107.403 434.377 114.578C398.462 120.945 354.103 132.847 339.644 164.57C326.816 192.713 328.097 223.587 328.507 253.109C328.86 278.465 325.297 306.327 350.264 324.41C367.555 336.934 389.907 334.425 411.284 331.503C445.955 326.765 479.073 310.089 504.919 290.365C529.692 271.459 542.881 253.331 542.489 225.156C542.164 201.776 519.265 184.621 496.568 172.892C452.315 150.025 395.843 142.914 344.686 142.852C292.49 142.789 235.72 142.274 188.315 163.344C160.262 175.812 130.529 196.632 126.41 224.408C122.392 251.499 122.014 284.536 128.988 310.963C142.831 363.422 181.677 415.111 252.737 393.143C332.965 368.34 377.315 285.89 413.649 227.075C439.885 184.607 458.46 139.553 465.362 91.8588C469.74 61.6029 390.602 64.6607 370.163 64.4897C266.572 63.6231 169.433 70.9062 76.9268 113.656C28.8328 135.881 18.7424 179.895 18.2991 223.734C17.8551 267.643 34.2891 342.53 103.183 343.857C150.076 344.761 184.161 315.92 209.11 286.28C230.748 260.573 250.557 231.767 255.702 200.066C258.061 185.53 258.069 160.436 241.89 151.071C205.472 129.989 155.136 110.455 110.713 105.756C92.191 103.797 68.3096 100.317 59.414 116.973C30.3773 171.341 25.9608 236.685 26.7747 295.22C27.2201 327.257 38.3902 353.704 71.5206 372.734C113.908 397.081 191.539 394.892 236.18 377.362C273.269 362.797 305.33 335.571 333.902 311.7C353.728 295.137 371.103 277.523 385.981 257.69C407.1 229.535 427.944 197.578 426.051 163.625C424.854 142.172 411.13 135.819 387.871 130.083C348.068 120.267 308.465 120.171 267.272 120.744C233.26 121.217 110.106 109.099 145.118 164.329C184.564 226.551 244.881 298.889 341.039 286.879C397.465 279.832 435.391 245.89 466.528 208.663C499.592 169.132 521.862 122.273 526.033 73.8508C528.437 45.9493 517.535 36.3772 486.278 25.8564C441.371 10.7411 390.535 5.17778 342.448 3.90294C300.414 2.78855 258.375 3.27862 216.329 3.86323C194.446 4.16751 174.911 11.0756 166.6 29.1485C156.852 50.3455 155.616 73.7561 155.927 96.1612C156.141 111.55 150.689 134.121 165.476 145.985C189.828 165.522 255.221 162.732 281.239 147.962C304.183 134.937 323.603 114.112 325.942 90.595C331.075 38.9897 236.142 47.3954 199.841 47.9002C152.353 48.5605 114.138 61.2829 74.2131 83.2072C48.7864 97.1701 4.98016 118.027 -1.10585 145.867C-17.7615 222.058 50.3348 301.947 129.156 334.017C150.375 342.651 176.919 345.818 200.186 347.248C263.696 351.15 332.928 349.571 394.369 333.916C432.088 324.306 466.959 305.482 500.623 288.887C548.132 265.468 596.422 242.659 637.113 211.159C665.704 189.024 708.677 162.481 708.758 125.878C708.783 114.487 690.588 109.396 679.504 108.351C655.72 106.111 620.31 104.932 632.535 134.495C638.737 149.493 658.21 163.982 669.755 175.864C690.258 196.964 716.088 215.825 743.795 229.914C768.273 242.361 794.873 244.575 823.238 244.181C860.332 243.665 893.421 205.019 910.764 180.967C921.525 166.041 935.3 136.355 908.22 129.765C888.83 125.047 872.01 121.558 851.616 121.842C829.23 122.153 895.611 130.453 917.997 130.141C967.496 129.453 1044.73 117.526 1077.17 80.9182C1085.63 71.3735 1076.94 59.4559 1069 52.9796C1053.28 40.1588 1037.57 40.8635 1016.31 41.1591C993.707 41.4734 935.556 31.309 935.949 59.569C936.334 87.3172 1003.93 60.5428 1014.64 52.9668C1027.84 43.633 1057.27 14.9028 1023.52 10.5728C990.573 6.34568 938.356 4.01541 908.495 17.8082C895.804 23.6703 884.228 30.3545 897.825 41.0133C910.898 51.2622 941.284 53.0041 957.696 53.3744C981.214 53.9049 1054.82 57.9627 1059.02 26.8594C1060.1 18.8035 1040.72 17.0181 1033.67 16.0677C1018.13 13.97 1001.42 15.2304 991.368 26.2629C969.923 49.8081 958.509 75.3949 952.145 104.304C949.027 118.464 945.604 145.292 954.266 158.074C964.099 172.582 993.199 185.774 1010.47 192.39C1044.19 205.302 1082.88 216.783 1119.89 220.842C1126.55 221.572 1158.05 225.301 1160.76 217.584C1162.92 211.443 1166.65 205.249 1156.62 205.216C1113.3 205.077 1101.64 238.918 1090.63 269.155C1085.66 282.816 1083.47 298.995 1085.29 313.294C1086.69 324.245 1115.28 318.769 1123.38 318.656C1152.58 318.25 1181.83 318.281 1211.01 317.438C1229 316.918 1251.63 315.128 1266.26 305.013C1269.21 302.973 1283.89 291.838 1272.33 291.223C1257.92 290.457 1251.7 293.903 1242.72 303.291C1240.17 305.958 1207.01 343.803 1221.8 347.133C1238.06 350.79 1261.91 338.402 1276.43 333.693C1283.99 331.24 1287.67 330.206 1277.45 330.348C1247.59 330.763 1222.51 340.209 1194.03 348.16C1054.57 387.101 910.782 413.21 764.182 422.282C695.888 426.508 633.436 422.455 566.782 412.986C543.197 409.635 520.739 403.768 497.575 399.089C488.361 397.228 468.549 393.024 463.49 385.473C451.506 367.591 475.675 348.056 489.089 337.851C560.866 283.245 652.563 267.147 746.848 262.791C754.21 262.451 856.767 249.091 853.241 271.688C851.812 280.848 807.938 290.153 800.849 292.142C752.852 305.615 703.562 317.062 653.807 324.673C613.29 330.871 572.289 330.93 531.295 331.5C524.573 331.593 498.4 335.433 493.862 329.715C479.181 311.218 559.8 288.859 573.895 287.612C591.016 286.099 618.019 281.946 632.726 291.021C643.549 297.7 654.003 309.5 649.795 321.654C641.715 344.993 602.698 358.072 579.589 367.719C540.847 383.892 502.639 396.215 460.38 403.449C444.847 406.109 427.443 408.648 411.562 406.434C391.751 403.672 389.854 380.347 386.591 367.457C369.657 300.562 452.682 253.36 514.124 227.599C556.802 209.706 616.435 205.643 663.515 210.279C678.165 211.722 697.781 226.505 704.653 236.991C708.056 242.183 715.643 258.852 709.463 264.464C700.718 272.406 677.892 269.514 666.784 269.669C660.166 269.761 636.576 271.379 636.446 262.021C636.347 254.926 682.429 257.883 686.774 257.862C770.824 257.469 864.432 287.614 931.464 330.035C969.579 354.156 1010.87 360.191 1057.45 364.661C1080.8 366.902 1104.99 365.025 1128.45 364.699C1144.37 364.478 1162.47 365.254 1177.71 360.684C1202.76 353.177 1224.55 320.825 1231.85 300.752C1244.18 266.829 1184 245.59 1156.29 236.475C1101.53 218.462 1037.97 220.06 980.075 224.323C943.086 227.047 891.838 247.025 870.996 274.771C848.492 304.728 904.093 320.615 927.518 331.755C976.773 355.177 1061.83 371.558 1113.68 345.69C1177.24 313.985 1121.23 251.153 1087.8 219.239C1040.2 173.796 974.268 149.25 903.777 139.69C801.436 125.81 696.768 128.606 593.385 130.044C553.887 130.593 514.283 130.226 474.956 133.996C467.748 134.687 459.026 136.892 453.993 141.717C453.184 142.492 453.065 149.83 453.432 145.311C454.57 131.32 476.455 113.223 483.963 100.951C488.521 93.5012 515.557 52.6446 494.562 50.5912C470.513 48.2392 449.346 38.6564 425.931 34.253C395.252 28.4831 369.891 37.7937 339.32 42.5023C303.406 48.034 270.141 67.237 233.714 68.1802C210.999 68.7684 192.412 66.1607 183.329 46.3365C177.407 33.4127 177.298 25.2169 193.968 20.8262C202.808 18.4976 213.013 20.4762 221.03 23.5241C240.329 30.8606 260.835 32.8417 281.522 36.5171C307.454 41.1243 332.492 42.4841 356.713 52.5079C379.265 61.8407 396.089 74.0537 412.958 89.5132C443.111 117.147 467.875 149.87 511.712 163.971C551.194 176.67 617.189 194.955 657.205 173.732C679.225 162.054 700.298 143.012 719.785 128.286" stroke="#F7DFBC" stroke-width="6" stroke-linecap="round"/>
</svg>
