<svg width="875" height="517" viewBox="0 0 875 517" fill="none" xmlns="http://www.w3.org/2000/svg">
<g clip-path="url(#clip0_70_745)">
<rect width="875" height="517" fill="#FF24E1"/>
<path d="M367.878 341.425C390.405 271.981 422.65 206.221 460.867 144.044C470.775 127.925 481.289 110.047 494.805 96.5315C495.918 95.4178 498.032 94.2405 496.705 97.1424C493.067 105.101 481.424 113.888 475.799 118.93C416.649 171.954 353.955 220.854 294.234 273.21C275.58 289.564 257.258 310.028 235.454 322.488C229.468 325.908 239.899 309.373 243.124 303.279C261.356 268.828 279.957 234.548 298.713 200.38C319.632 162.274 341.196 124.541 362.448 86.6218C371.471 70.5226 380.502 54.6423 387.63 37.6159C392.607 25.7266 397.986 13.6459 401.951 1.37064C407.127 -14.6522 376.509 23.5456 365.163 35.9869C277.982 131.585 191.916 227.982 112.803 330.429C100.342 346.566 87.298 368.793 71.3997 382.354C62.099 390.287 81.1238 359.858 87.2824 349.298C110.568 309.372 134.93 270.353 154.886 228.616C158.01 222.083 168.864 206.67 168.529 198.955C168.351 194.874 163.238 205.187 160.791 208.458C152.364 219.725 155.554 215.471 147.148 226.648C137.94 238.893 126.011 251.165 118.912 264.794C118.526 265.536 117.394 266.717 118.098 267.17C121.391 269.287 124.837 263.128 127.872 260.654C150.133 242.497 170.794 222.65 190.045 201.331C209.207 180.11 227.982 158.216 245.092 135.288C250.696 127.779 255.386 120.161 259.142 111.6C260.081 109.461 260.929 107.281 261.721 105.084C262.333 103.387 263.623 101.708 263.35 99.9253C263.23 99.1374 261.616 99.7237 260.975 100.197C255.567 104.185 235.766 124.92 235.318 125.378C218.006 143.097 202.273 159.376 185.158 177.439C150.55 213.965 111.655 250.571 85.1104 293.777C82.9276 297.329 72.3915 310.099 81.7167 313.46C91.9446 317.147 107.127 315.8 117.623 315.225C149.197 313.495 184.126 306.607 212.58 292.283C234.582 281.207 250.375 261.223 246.789 235.404C242.265 202.833 196.832 186.504 169.547 183.004C146.089 179.995 120.035 181.234 99.2284 193.661C68.6739 211.91 45.0741 247.947 28.7741 278.64C17.2152 300.406 0.612356 337.769 23.1405 358.597C38.741 373.02 61.4841 375.801 81.8524 374.548C122.293 372.06 161.394 353.624 189.502 324.456C217.6 295.299 234.783 258.016 247.06 219.996C257.412 187.938 264.146 153.979 263.893 120.152C263.636 85.6524 253.211 17.6967 203.485 26.3487C177.325 30.9002 154.217 50.3566 137.035 69.1779C113.235 95.2483 94.7554 126.923 81.4452 159.52C55.4876 223.089 41.4832 309.803 101.808 358.258C132.865 383.204 170.679 393.706 209.458 399.526C251.273 405.801 297.012 408.849 338.963 401.766C462.003 380.993 546.636 260.864 583.178 150.017C592.563 121.547 596.729 91.4952 593.902 61.6437C592.91 51.17 591.663 40.6699 589.287 30.4212C588.085 25.2378 575.405 -17.5032 567.702 -22.3856C559.804 -27.3923 548.73 -27.1927 539.738 -24.6255C492.862 -11.2429 421.488 40.4525 389.666 64.4266C320.58 116.475 270.248 158.908 218.146 227.191C187.488 267.369 173.1 296.298 163.71 343.393C157.132 376.381 159.841 414.613 173.348 445.817C184.746 472.147 205.354 482.705 232.196 488.578C272.611 497.421 318.015 500.043 359.19 496.044C401.048 491.979 435.589 472.934 470.437 450.636C523.74 416.529 571.365 377.291 611.007 327.578C638.384 293.246 664.883 252.298 678.542 210.087C683.674 194.228 686.843 173.004 684.991 156.126C682.174 130.462 633.275 164.429 628.111 167.8C590.985 192.044 559.254 223.53 530.1 256.649C513.685 275.296 498.039 294.904 486.931 317.261C479.014 333.196 472.442 350.503 467.858 367.693C464.321 380.956 460.077 398.788 474.17 407.535C487.287 415.676 508.585 412.252 522.362 410.522C564.323 405.253 605.435 395.198 644.741 379.503C704.156 355.777 775.624 313.557 799.564 250.065C802.687 241.782 806.994 224.172 792.505 223.662C775.424 223.06 758.747 240.969 748.522 251.83C720.439 281.658 694.333 318.126 688.927 359.751C687.92 367.505 686.171 380.265 694.018 385.612C703.49 392.065 720.844 391.451 731.417 391.924C758.386 393.131 796.159 394.275 812.867 368.168C819.945 357.109 813.217 355.893 803.433 361.991C787.336 372.022 774.82 387.128 763.726 402.241C748.433 423.075 734.738 446.442 726.53 471.066C722.057 484.486 713.048 516.149 736.033 518.715C749.432 520.21 764.554 510.782 774.654 503.85C814.195 476.708 840.262 435.684 858.004 391.788C875.128 349.421 886.165 303.067 889.159 257.396C891.074 228.174 888.159 200.514 870.629 176.353C855.043 154.871 834.276 148.061 808.387 145.537C753.244 140.161 695.757 144.86 641.075 151.918C539.958 164.969 442.957 197.843 357.629 254.341C328.233 273.805 300.818 296.422 278.69 324.049C268.137 337.225 253.903 356.839 254.255 375.091C254.856 406.2 282.867 425.599 311.134 429.934C338.385 434.113 367.326 431.381 394.078 425.59C443.238 414.948 477.429 383.726 507.226 344.14C544.793 294.231 572.8 237.392 587.929 176.624C603.148 115.496 603.497 50.2778 597.5 -12.0007C591.568 -73.5955 580.071 -138.069 542.724 -189.494C502.152 -245.361 433.584 -278.745 364.62 -259.541C297.481 -240.846 242.139 -187.623 198.394 -136.416C147.846 -77.2445 111.625 -11.0796 87.0109 62.7297C78.3397 88.7318 71.7324 115.401 65.4266 142.076C56.2285 180.985 43.0629 230.615 53.6842 271.921C58.1118 289.139 66.6618 305.67 77.9157 319.433C99.8674 346.279 157.225 384.243 188.145 396.675C208.16 404.723 229.631 409.796 251.133 411.54C295.146 415.11 325.613 403.746 364.62 385.747C413.633 363.131 455.635 330.206 485.166 284.41C528.457 217.276 552.486 137.798 570.553 60.8292C584.958 -0.538738 607.182 -83.3272 557.86 -135.873C546.202 -148.293 533.386 -160.419 518.154 -168.046C484.672 -184.81 428.732 -193.044 392.585 -182.435C365.542 -174.498 340.2 -160.222 317.583 -143.407C248.568 -92.096 188.125 -12.5882 137.035 53.7702C108.376 90.9943 80.6406 128.954 54.0236 167.665C29.1769 203.801 -3.85719 254.737 -20.7747 298.392C-25.183 309.767 -35.7842 359.3 -37.7435 371.154C-40.7721 389.479 -44.7627 425.527 -43.445 444.188C-41.0708 477.812 -30.4903 511.369 5.96806 520.751C16.5821 523.482 28.6712 526.247 38.8196 522.108C88.6325 501.794 152.408 420.744 178.371 392.331C221.714 344.897 262.433 295.013 307.469 249.183C403.925 151.025 439.672 116.091 547.476 52.5485C564.607 42.4507 637.837 23.477 533.086 54.3132C417.535 88.3288 409.452 84.4362 290.365 143.162C206.979 184.282 120.176 236.623 51.5801 300.836C44.4418 307.518 38.4551 315.339 32.1678 322.827C28.5138 327.179 13.2593 343.304 13.6379 352.896C14.3824 371.756 72.604 367.586 76.9654 367.489C142.361 366.029 207.215 354.307 268.645 331.651C337.092 306.406 404.154 268.682 455.98 216.535C491.904 180.388 516.879 135.698 522.43 84.7892C526.594 46.5953 520.785 3.93449 503.9 -30.9379C486.887 -66.0746 449.06 -79.7145 413.354 -87.5457C384.58 -93.8567 354.255 -95.8387 325.66 -87.6136C288.667 -76.9729 252.49 -56.9541 220.046 -36.6394C196.854 -22.1179 180.503 -6.04745 165.746 16.7783C154.233 34.5865 137.169 60.4969 141.854 83.4995C148.454 115.904 190.224 132.701 215.906 142.483C289.329 170.449 368.848 181.237 446.342 190.606C520.098 199.524 594.619 205.507 668.836 209.136C711.737 211.234 749.178 204.61 789.722 189.86C807.276 183.473 840.382 174.24 847.212 152.461C851.853 137.661 847.242 115.326 842.121 101.419C833.858 78.9778 815.745 52.323 789.586 50.8516C778.654 50.2367 765.87 51.7835 756.802 58.6572C744.415 68.0477 736.758 87.6196 730.331 100.672C713.543 134.766 700.613 170.203 690.828 206.896C690.017 209.938 687.487 217.472 690.421 216.331C700.549 212.392 729.759 170.023 730.738 168.751C775.1 111.129 817.999 52.2433 856.511 -9.48936C885.908 -56.6108 913.206 -105.535 926.49 -159.833C928.217 -166.893 939.136 -199.228 925.947 -205.105C907.166 -213.475 871.852 -178.75 863.706 -171.711C794.634 -112.025 729.848 -45.8812 667.071 20.2399C602.516 88.2342 538.778 158.827 486.795 237.169C475.068 254.842 464.667 273.602 454.147 292.012C451.388 296.841 448.39 301.546 445.934 306.537C443.706 311.067 440.86 317.008 448.649 311.831C477.03 292.971 503.144 267.42 528.674 245.246C564.661 213.989 600.475 182.452 635.034 149.61C662.706 123.313 691.686 96.0226 714.177 64.9017C715.519 63.0445 727.763 46.1638 714.313 59.2002C682.574 89.9626 657.48 128.427 634.967 166.104C594.414 233.97 556.756 310.311 553.381 390.838C552.682 407.513 552.705 428.067 560.508 443.509C571.214 464.698 595.942 467.842 616.98 463.329C659.634 454.178 687.148 419.741 703.86 381.607C708.115 371.897 726.945 317.004 695.918 325.067C676.083 330.222 656.697 348.607 643.315 363.009C619.517 388.621 603.456 420.129 589.558 451.858C572.3 491.257 558.593 532.063 553.177 574.915C549.735 602.15 547.856 634.716 558.064 660.981C563.459 674.86 576.358 687.265 592.816 681.072C624.612 669.108 644.646 627.144 656.211 599.35C683.171 534.563 694.801 463.327 698.158 393.553C701.768 318.532 696.052 235.602 652.818 171.194C628.442 134.88 592.492 105.894 548.086 100.536C505.577 95.4071 472.124 118.121 440.64 143.637C392.321 182.796 348.013 228.305 305.704 273.753C281.457 299.8 257.026 326.64 238.033 356.9C229.605 370.328 221.327 383.939 213.802 397.897C211.357 402.432 204.767 415.805 208.711 412.49C226.089 397.882 241.264 374.09 253.576 355.95C282.991 312.613 309.598 268.184 321.452 216.67C331.056 174.927 340.065 128.643 337.131 85.6036C336.187 71.7656 333.825 57.9827 330.411 44.5392C326.754 30.1404 309.446 -16.5542 300.953 -30.5307C282.871 -60.2868 254.658 -61.4461 222.965 -62.9749C210.331 -63.5844 197.579 -65.0455 185.023 -63.5179C154.724 -59.8319 136.632 -49.4099 112.668 -30.2591C97.811 -18.3866 84.4269 -4.75949 70.9245 8.63327C42.5061 36.821 20.6705 60.412 -2.71995 92.3911C-20.1358 116.202 -33.8409 141.979 -42.359 170.244C-45.243 179.814 -62.0039 235.009 -32.7886 219.793C-14.0549 210.036 -3.35261 187.941 5.01781 169.837C19.0732 139.437 29.7395 106.699 35.9689 73.7934C41.7087 43.4732 43.3088 12.007 40.0414 -18.7204C37.7573 -40.2001 33.2139 -78.3957 11.2623 -90.9395C-1.61477 -98.2978 -13.3599 -89.0631 -20.7069 -78.9935C-37.8072 -55.556 -45.425 -24.9916 -50.504 2.99966C-55.3086 29.4782 -59.2476 59.6457 -55.5268 86.6218C-50.2866 124.613 -28.6515 165.064 3.79606 186.398C48.2651 215.637 110.978 221.904 162.352 223.865C250.291 227.223 337.136 213.061 422.925 195.561C500.052 179.829 575.649 157.459 652.886 142.347C669.093 139.176 685.366 136.107 701.824 134.542C704.05 134.33 716.818 131.847 718.928 135.628C722.364 141.784 718.509 160.315 718.114 165.493C713.779 222.199 710.927 279.103 720.286 335.588C732.994 412.291 770.449 481.107 826.171 535.005C842.623 550.919 861.348 565.365 883.254 572.811C892.186 575.847 903.047 579.49 912.033 573.422C922.15 566.59 923.593 552.488 925.133 542.064C939.643 443.842 901.302 334.23 840.628 258.074C789.832 194.317 722.293 150.602 642.365 132.234C553.839 111.89 456.377 121.206 376.023 163.999C336.467 185.065 297.542 214.398 278.419 256.038C272.479 268.972 265.723 286.464 274.618 299.885C287.674 319.586 324.941 327.852 345.208 330.972C419.838 342.462 495.755 331.13 568.788 315.429C628.348 302.624 689.609 286.937 737.254 246.671C750.39 235.57 761.927 222.674 773.5 209.951C801.201 179.495 820.336 156.406 839.881 120.288C863.184 77.225 871.189 32.8341 847.823 -11.6614C835.353 -35.4067 817.898 -51.5802 789.654 -52.9294C738.137 -55.3904 687.937 -32.6926 646.234 -4.87387C586.45 35.0052 534.26 88.1666 486.524 141.465C454.058 177.713 428.044 217.889 407.11 261.74C391.439 294.567 369.198 349.698 416.884 367.082C443.947 376.947 476.22 377.028 504.511 377.263C538.693 377.547 573.713 376.423 604.355 359.548C637.866 341.092 677.045 294.329 642.297 257.803C622.603 237.101 589.07 233.21 562.272 237.576C507.938 246.429 461.898 278.138 423.943 316.447C383.755 357.009 352.52 406.051 329.325 458.034C317.835 483.784 308.256 512.629 304.211 540.706C302.952 549.444 300.677 568.05 310.048 574.508C319.339 580.91 336.738 576.588 344.936 573.829C369.297 565.63 401.215 547.502 421.907 534.462C484.274 495.157 537.861 445.207 596.753 401.426C608.016 393.053 619.533 384.371 631.912 377.67C641.072 372.712 641.906 376.769 640.872 385.883C637.207 418.179 625.958 450.196 628.994 483.08C630.097 495.032 633.732 506.832 642.908 515.185C650.829 522.396 659.839 522.485 669.651 523.466" stroke="#FF0004" stroke-width="6" stroke-linecap="round"/>
</g>
<defs>
<clipPath id="clip0_70_745">
<rect width="875" height="517" fill="white"/>
</clipPath>
</defs>
</svg>
