<svg width="1488" height="958" viewBox="0 0 1488 958" fill="none" xmlns="http://www.w3.org/2000/svg">
<path d="M289.387 849.418C289.501 850.067 288.931 848.178 288.651 847.582C283.752 837.155 274.505 827.89 267.536 818.969C220.262 758.456 170.869 699.525 120.902 641.229C103.678 621.134 86.4874 601.011 68.6994 581.411C55.7998 567.198 42.4803 553.497 30.3491 538.605C20.1992 526.146 10.054 514.111 3.48682 499.366" stroke="white" stroke-width="6" stroke-linecap="round"/>
<path d="M110.907 628.504C118.7 627.134 126.493 625.764 134.286 624.394C154.73 620.8 175.38 617.584 196.158 616.827C214.368 616.164 232.761 618.955 250.884 620.395C279.532 622.67 308.73 630.034 337.443 624.986" stroke="white" stroke-width="6" stroke-linecap="round"/>
<path d="M312.539 451.551L355 746.009" stroke="white" stroke-width="6" stroke-linecap="round"/>
<path d="M712.777 573.348C708.641 589.624 696.601 605.799 687.655 619.685C659.285 663.721 626.465 704.677 591.23 743.362C543.904 795.323 486.039 834.907 416.438 850.048C402.433 853.095 388.273 855.384 374.16 857.865C370.396 858.527 364.024 861.047 360.605 858.421C355.845 854.767 354.653 849.726 353.675 844.16C352.018 834.735 351.045 829.854 355.116 820.638C370.296 786.281 383.456 751.032 400.44 717.483C426.491 666.023 457.885 621.096 496.337 578.226C538.514 531.205 584.872 486.146 648.222 470.856C654.095 469.438 676.253 461.72 682.149 465.853C682.339 465.986 672.299 467.969 669.997 468.374C661.172 469.925 649.253 466.517 640.448 464.915C619.375 461.081 598.068 461.446 576.718 460.639C515.434 458.321 453.403 449.805 392.902 439.975C364.678 435.39 335.65 431.305 308.154 423.337C304.797 422.364 294.131 415.963 304.176 417.114C312.677 418.088 320.703 422.039 329.236 423.477C368.47 430.089 408.129 433.993 447.689 438.228C488.743 442.624 530.103 443.338 571.197 447.283C587.729 448.87 604.383 449.29 620.895 451.046C630.732 452.092 640.3 454.626 650.257 454.537C663.593 454.419 675.134 457.087 688.465 454.743C696.272 453.371 700.599 450.618 707.164 447.898C711.215 446.221 715.512 443.695 719.187 441.362C735.166 431.216 752 423.026 768.877 414.454C838.342 379.173 908.504 341.37 981.271 313.272C1007.02 303.329 1032.75 292.108 1060.07 287.305C1074.4 284.786 1088.73 282.266 1103.06 279.747C1115.46 277.567 1128.21 274.239 1140.55 274.79C1153.13 275.352 1144.56 281.976 1138.21 286.067C1128.98 292.017 1117.14 294.738 1106.67 298.055C1051.27 315.59 998.947 343.384 942.852 359.448C916.528 366.986 891.539 377.718 866.227 387.918C849.471 394.669 830.068 401.423 815.123 411.708C808.133 416.519 795.462 419.52 790.341 426.065C786.184 431.377 777.466 437.397 771.675 440.211C767.832 442.079 770.617 456.793 774.28 458.31C775.772 458.928 780.206 455.955 781.885 455.627C792.587 453.537 800.342 455.377 810.517 459.343C859.959 478.612 908.554 507.801 951.529 538.971C1008.1 580 1057.68 630.198 1091.79 691.996C1095.85 699.357 1125.73 742.385 1105.26 748.376C1075.06 757.213 1039.77 764.881 1008.68 756.316C890.081 723.647 819.27 612.721 729.059 537.987C724.236 533.991 707.685 514.852 710.435 530.492C711.924 538.964 714.713 544.496 714.326 553.172C713.097 580.673 700.276 599.515 687.714 622.752C683.658 630.253 679.049 636.375 674.101 643.221C671.51 646.806 665.485 652.204 665.271 656.984C664.672 670.401 701.404 671.456 711.054 674.03C722.063 676.966 732.906 681.952 742.841 687.48C752.325 692.757 762.773 695.74 772.169 701.169C781.306 706.448 793.043 711.168 803.848 709.637C822.299 707.024 821.578 673.742 822.274 659.67C822.636 652.369 820.536 644.859 819.277 637.698C818.955 635.868 815.755 642.981 815.257 644.366C814.089 647.614 809.141 651.058 806.924 652.753C786.338 668.505 764.112 682.174 743.021 697.255C728.686 707.505 715.405 721.073 698.765 727.726C696.805 728.51 684.392 732.167 683.277 729.872C680.293 723.73 677.938 717.993 673.239 712.696C670.668 709.798 644.315 690.955 653.555 689.331C680.696 684.559 706.912 675.374 732.63 664.949C741.414 661.388 752.448 655.802 759.377 649.19C764.338 644.455 765.438 641.483 758.611 647.017C756.936 648.374 752.155 654.661 753.514 656.855C753.664 657.097 754.325 648.94 753.284 646.799C752.821 645.847 757.131 646.306 756.264 645.699C754.451 644.428 747.314 646.796 745.806 648.018C739.958 652.759 726.748 652.818 728.124 660.645C733.059 688.72 719.848 604.109 712.478 576.573C705.874 551.899 699.513 525.92 689.169 502.502C686.869 497.296 680.77 483.787 673.041 485.146C670.276 485.632 663.599 489.411 664.188 492.759C664.591 495.052 677.73 478.576 678.752 476.065C679.128 475.142 685.349 461.597 681.719 461.217C677.938 460.822 680.16 468.755 680.994 470.767C686.653 484.429 719.446 447.908 693.848 443.797C689.148 443.043 687.547 448.152 689.761 451.727C693.841 458.315 693.044 436.377 692.53 428.645C691.441 412.257 696.652 397.025 701.25 381.441C715.588 332.846 735.793 285.197 759.643 240.509C784.748 193.472 816.292 148.256 850.002 106.938C867.709 85.2335 885.906 63.2861 907.181 44.9653C912.676 40.2329 917.422 33.9301 924.245 31.0045C927.441 29.6338 927.363 31.8989 924.041 32.5787C903.328 36.8159 881.479 37.7005 863.446 49.9617C788.839 100.688 744.471 198.702 724.567 284.366C715.161 324.845 706.694 365.325 681.907 399.937C676.171 407.946 665.931 422.447 655.685 425.796C654.088 426.318 651.175 427.181 649.738 425.88C641.66 418.566 636.63 400.888 631.916 391.227C621.384 369.639 609.765 348.583 597.694 327.823C581.165 299.395 565.745 268.717 545.592 242.564C528.276 220.093 504.223 186.526 471.285 190.15C461.637 191.212 452.014 193.441 442.449 195.123C430.411 197.239 435.221 200.462 443.779 208.158C480.921 241.558 522.474 271.989 563.404 300.68C578.074 310.962 597.246 319.554 609.803 332.713C626.503 350.213 632.351 373.012 642.501 394.558C645.385 400.679 654.563 429.137 665.059 427.706C673.225 426.592 675.222 419.85 674.01 411.902C671.016 392.258 660.826 436.853 675.083 432.77C678.704 431.733 685.29 417.846 681.074 414.891C674.738 410.449 678.239 435.956 678.503 437.457" stroke="white" stroke-width="6" stroke-linecap="round"/>
<path d="M599.569 531.921C586.709 534.182 574.02 544.177 564.429 552.578C543.797 570.652 521.969 589.035 504.291 610.06C492.015 624.659 478.235 637.711 466.46 652.849C455.239 667.276 444.775 682.187 434.281 697.158C428.875 704.87 424.785 713.184 420.693 721.625C416.949 729.345 412.191 736.6 409.904 745.002C407.093 755.325 402.291 763.639 404.228 774.659C406.93 790.025 418.713 793.287 433.523 792.904C450.241 792.471 467.231 788.7 480.811 778.727C505.798 760.376 528.943 739.497 550.251 716.978C566.691 699.603 579.478 680.204 593.545 661.022C606.619 643.195 620.238 626.182 630.244 606.345C637.497 591.965 645.532 577.116 649.765 561.51C651.361 555.624 652.452 550.929 651.4 544.948C650.725 541.105 648.788 532.753 644.21 531.612C640.354 530.652 636.442 531.901 632.534 532.588C626.204 533.701 615.195 538.069 610.567 533.219" stroke="white" stroke-width="6" stroke-linecap="round"/>
<path d="M864.406 525.212C854.717 526.915 832.51 526.378 828.841 537.328C823.455 553.402 826.617 573.737 839.611 584.976C844.013 588.783 850.337 594.843 856.988 593.289C862.74 591.945 862.221 578.019 862.455 574.019C862.691 570.002 862.704 566.13 862.34 562.133C861.872 556.997 863.358 551.761 862.814 546.792C862.517 544.074 863.555 532.383 860.1 531.354" stroke="white" stroke-width="6" stroke-linecap="round"/>
<path d="M1099.47 323.646L1210.35 954.37" stroke="white" stroke-width="6" stroke-linecap="round"/>
<path d="M1022.58 401.583C1018.08 401.638 1004.67 403.009 1009.1 402.23C1036.52 397.411 1063.59 390.788 1089.96 381.791C1143.85 363.401 1194.47 336.789 1249.28 320.749C1258.99 317.906 1256.55 318.929 1249.14 322.115C1220.79 334.299 1191.57 344.766 1162.56 355.24C1101.05 377.448 1034.68 399.294 968.687 401.1C965.776 401.18 943.606 398.272 945.09 397.589C952 394.408 959.561 392.679 966.859 390.698C992.817 383.651 1017.49 374.404 1042.15 363.673C1077.8 348.164 1113.36 332.597 1149.25 317.652C1156.91 314.464 1177.46 302.233 1186.91 305.86C1189.65 306.908 1182.37 309.613 1179.77 310.947C1172.6 314.622 1165.31 318.409 1157.53 320.602C1137.12 326.35 1116.19 331.699 1095.3 335.371C1069.68 339.875 1045.24 345.41 1019.28 343.565" stroke="white" stroke-width="6" stroke-linecap="round"/>
<path d="M1142.99 478.656C1141.2 468.457 1133.05 452.827 1146.83 450.404C1166.58 446.933 1198.25 433.518 1212.56 452.829C1234.3 482.172 1252.44 513.941 1274.06 543.416C1286.87 560.878 1298.96 578.436 1312.48 595.262C1322.08 607.214 1313.28 599.973 1305.84 606.003C1290.95 618.071 1272.03 632.208 1254.4 639.654C1232.04 649.099 1184.07 670.014 1176.98 632.775C1173.23 613.118 1172.36 510.967 1216.11 541.636" stroke="white" stroke-width="6" stroke-linecap="round"/>
<path d="M1279.05 370.284L1305.8 522.421" stroke="white" stroke-width="6" stroke-linecap="round"/>
<path d="M1280.43 368.318C1300.52 364.786 1320.62 361.254 1340.71 357.721C1349.81 356.121 1358.91 354.521 1368.02 352.921C1370.92 352.41 1379.66 349.232 1382.54 351.133C1403.98 365.267 1369.51 403.582 1358.06 412.312C1345.23 422.096 1330.72 424.942 1316.4 431.318C1309.94 434.195 1303.79 440.249 1310.44 445.867C1321.57 455.279 1327.34 477.498 1332.93 490.459C1339.61 505.949 1353.49 521.197 1367.55 530.524C1374.91 535.41 1378.64 529.998 1379.95 522.119C1383.94 498.215 1391.32 474.281 1398 451.059C1404.38 428.902 1407.38 404.186 1408.41 381.152C1408.87 370.807 1412.15 392.113 1412.38 393.38C1417.22 420.94 1420.32 449.406 1430.66 475.576C1436.55 490.503 1444.81 514.018 1459.5 523.073C1474.01 532.021 1476.17 517.999 1475.93 505.438C1475.08 460.855 1470.84 412.624 1459.14 369.647C1456.97 361.673 1449.83 341.173 1440.63 338.431" stroke="white" stroke-width="6" stroke-linecap="round"/>
<path d="M1440.58 336.299C1432.87 337.654 1425.16 339.01 1417.45 340.365C1416.39 340.552 1413.56 341.019 1415.06 342.825C1417.52 345.789 1426.62 339.925 1428.56 338.412C1437.06 331.778 1443.21 322.79 1451.05 315.555C1457.42 309.679 1450.29 317.152 1448.69 319.971C1447.68 321.733 1439.54 335.643 1444.83 335.474C1454.53 335.162 1464.7 323.69 1471.53 317.837C1473.21 316.403 1479.77 309.231 1480.24 314.737C1480.73 320.456 1478.37 325.144 1477.05 330.514C1475.53 336.735 1475.76 344.612 1478.28 333.907" stroke="white" stroke-width="6" stroke-linecap="round"/>
<path d="M693.901 420.126C694 420.686 693.836 415.982 691.168 415.945C684.484 415.85 673.677 417.014 673.394 425.463C673.277 428.947 674.417 433.171 675.218 436.598C675.883 439.445 683.346 438.68 684.839 436.772C691.208 428.632 692.066 392.916 675.067 405.055C668.19 409.966 670.004 422.322 670.625 429.413C671.222 436.239 674.749 440.107 678.093 432.496" stroke="white" stroke-width="6" stroke-linecap="round"/>
<path d="M729.325 401.616C723.832 402.582 708.733 402.575 705.124 407.13C704.149 408.36 698.219 412.981 696.956 410.383C694.8 405.944 707.484 404.357 709.802 403.511C715.45 401.449 721.145 400.537 727.065 399.497C730.355 398.918 730.079 405.904 730.494 408.263C731.523 414.12 732.667 437.317 738.42 439.031" stroke="white" stroke-width="6" stroke-linecap="round"/>
<path d="M780.766 763.421C777.283 764.492 786.217 802.51 786.9 806.395" stroke="white" stroke-width="6" stroke-linecap="round"/>
<path d="M830.542 771.723C832.204 781.179 847.449 787.182 853.066 794.763" stroke="white" stroke-width="6" stroke-linecap="round"/>
<path d="M652.558 774.477C635.811 777.422 624.94 799.424 616.547 812.158C604.874 829.864 595.153 848.172 581.885 864.648" stroke="white" stroke-width="6" stroke-linecap="round"/>
<path d="M955.683 405.187C1007.69 395.35 1059.93 386.197 1111.53 374.343C1138.08 368.245 1163.76 358.989 1190.5 353.724C1196.02 352.636 1207.07 352.944 1211.99 349.894C1212.62 349.501 1208.65 349.415 1208.56 349.417C1202.85 349.552 1197.12 349.505 1191.42 349.91C1147.11 353.059 1102.62 363.618 1058.95 371.295C1019.59 378.216 980.575 385.794 941.478 394.005C930.65 396.279 919.825 398.531 908.926 400.447C903.801 401.348 898.556 402.113 893.84 404.437C891.112 405.78 899.009 404.042 899.116 404.023C912.251 401.714 925.42 399.555 938.48 396.846C983.489 387.511 1028.85 376.983 1071.88 360.589C1121.45 341.703 1169.37 317.269 1216.42 292.907C1252.84 274.048 1289.46 253.609 1328.66 240.983C1331.34 240.119 1334.06 239.622 1336.82 239.137C1339.43 238.677 1331.71 240.591 1329.2 241.452C1298.43 252.014 1268.56 265.425 1238.95 278.867C1203.07 295.152 1168.17 313.359 1133.52 332.063C1107.07 346.334 1080.72 360.742 1052.97 372.348C1029.99 381.958 1006.35 391.437 982.112 397.558C981.136 397.804 973.277 399.983 974.083 400.152C978.804 401.141 983.554 400.636 988.333 400.475C1016.42 399.533 1044.5 394.821 1072.21 390.563C1106.15 385.349 1141.83 381.198 1174.5 370.062C1200 361.37 1225.57 350.668 1249.31 337.83" stroke="white" stroke-width="6" stroke-linecap="round"/>
<path d="M1311.46 433.965C1311.54 435.493 1301.62 436.412 1300.2 436.662C1296.48 437.315 1292.49 439.731 1298.13 441.683C1299.56 442.178 1301.94 441.705 1303.49 441.816C1305.29 441.944 1307.44 442.725 1309.17 443.325C1313.31 444.757 1310.44 443.916 1310.46 440.271C1310.47 438.617 1317.99 434.195 1319.41 433.443C1322.9 431.605 1326.82 430.034 1330.68 429.153C1333.32 428.553 1337.59 425.625 1339.83 424.122C1342.26 422.488 1344.47 420.902 1346.84 419.148" stroke="white" stroke-width="6" stroke-linecap="round"/>
</svg>
