<svg width="1611" height="1120" viewBox="0 0 1611 1120" fill="none" xmlns="http://www.w3.org/2000/svg">
<path d="M288.999 885.247C289.005 885.906 288.753 883.95 288.574 883.315C285.454 872.226 277.854 861.568 272.443 851.624C235.745 784.171 196.697 717.931 156.978 652.222C143.287 629.573 129.633 606.901 115.304 584.647C104.913 568.508 94.0236 552.806 84.5016 536.126C76.5349 522.169 68.5031 508.632 64.4458 493.008" stroke="white" stroke-width="8" stroke-linecap="round"/>
<path d="M149.208 638.029C157.121 637.957 165.033 637.885 172.945 637.813C193.702 637.624 214.599 637.842 235.219 640.506C253.291 642.842 270.976 648.615 288.618 653.01C316.503 659.957 344.096 672.015 373.248 671.75" stroke="white" stroke-width="8" stroke-linecap="round"/>
<path d="M377.155 496.58L370.699 794.013" stroke="white" stroke-width="8" stroke-linecap="round"/>
<path d="M751.967 682.43C745.215 697.807 730.683 711.786 719.579 724.015C684.365 762.796 645.266 797.808 604.158 830.183C548.944 873.67 485.365 903.217 414.223 906.727C399.907 907.433 385.564 907.366 371.236 907.497C367.414 907.532 360.715 908.971 357.773 905.82C353.677 901.433 353.329 896.265 353.278 890.614C353.191 881.045 353.032 876.071 358.562 867.648C379.176 836.249 397.944 803.639 420.205 773.333C454.351 726.848 492.695 687.685 537.663 651.71C586.987 612.25 640.114 575.414 705.115 570.731C711.14 570.297 734.264 566.321 739.402 571.366C739.568 571.529 729.338 571.836 727.001 571.858C718.041 571.939 706.844 566.621 698.421 563.595C678.263 556.353 657.185 553.215 636.258 548.914C576.185 536.566 516.395 517.982 458.328 498.354C431.239 489.197 403.276 480.402 377.462 468.028C374.31 466.518 364.839 458.452 374.559 461.236C382.785 463.592 390.053 468.808 398.234 471.627C435.851 484.591 474.33 494.952 512.658 505.625C552.434 516.7 593.115 524.195 633.004 534.833C649.051 539.113 665.41 542.261 681.41 546.703C690.942 549.35 699.965 553.421 709.801 554.968C722.975 557.041 733.922 561.567 747.456 561.444C755.383 561.371 760.103 559.366 767.026 557.761C771.297 556.771 775.95 554.986 779.959 553.287C797.386 545.903 815.336 540.587 833.392 534.902C907.706 511.504 983.123 485.733 1059.51 469.962C1086.55 464.381 1113.77 457.536 1141.5 457.283C1156.06 457.151 1170.61 457.018 1185.16 456.886C1197.74 456.771 1210.87 455.581 1222.96 458.152C1235.27 460.771 1225.72 465.897 1218.79 468.891C1208.71 473.244 1196.59 473.985 1185.71 475.537C1128.18 483.74 1072.01 502.567 1014.04 509.204C986.832 512.318 960.42 518.802 933.777 524.708C916.141 528.617 895.892 532.094 879.461 539.786C871.776 543.384 858.784 544.264 852.658 549.879C847.686 554.437 838.097 558.944 831.923 560.769C827.825 561.98 828.158 576.952 831.521 579.05C832.891 579.905 837.753 577.7 839.463 577.652C850.363 577.347 857.711 580.436 867.097 586.018C912.705 613.143 955.849 649.914 993.123 687.716C1042.19 737.475 1082.86 795.132 1106.36 861.692C1109.16 869.619 1131.57 916.969 1110.39 919.517C1079.15 923.276 1043.08 925.047 1013.82 911.495C902.191 859.798 850.551 738.753 773.834 650.222C769.732 645.488 756.548 623.893 756.692 639.772C756.771 648.373 758.614 654.288 756.807 662.783C751.08 689.709 735.34 706.19 719.133 727.049C713.901 733.783 708.35 739.065 702.345 745.006C699.2 748.117 692.371 752.453 691.376 757.133C688.582 770.269 724.642 777.341 733.739 781.464C744.117 786.168 753.994 792.866 762.886 799.949C771.375 806.712 781.191 811.37 789.569 818.267C797.715 824.975 808.518 831.558 819.428 831.822C838.058 832.273 842.81 799.324 845.807 785.557C847.362 778.415 846.524 770.662 846.458 763.391C846.441 761.533 842.116 768.024 841.398 769.309C839.713 772.321 834.266 774.906 831.801 776.215C808.909 788.373 784.739 798.207 761.459 809.622C745.636 817.379 730.308 828.583 712.801 832.414C710.739 832.865 697.894 834.435 697.171 831.988C695.235 825.439 693.854 819.393 690.089 813.397C688.028 810.116 665.127 787.202 674.508 787.117C702.064 786.866 729.432 782.109 756.513 776.048C765.762 773.978 777.563 770.279 785.484 764.893C791.155 761.038 792.728 758.286 785.085 762.624C783.211 763.688 777.461 769.105 778.442 771.492C778.55 771.755 780.541 763.818 779.866 761.535C779.566 760.52 783.741 761.681 782.986 760.939C781.406 759.388 773.977 760.552 772.29 761.51C765.742 765.226 752.702 763.116 752.774 771.063C753.033 799.567 753.892 713.935 751.143 685.563C748.679 660.139 746.669 633.468 740.31 608.67C738.896 603.157 735.098 588.83 727.251 588.901C724.443 588.927 717.237 591.559 717.267 594.958C717.289 597.286 732.954 583.191 734.375 580.882C734.897 580.033 743.257 567.693 739.739 566.722C736.075 565.712 736.964 573.902 737.456 576.024C740.795 590.43 779.139 559.787 754.563 551.53C750.051 550.014 747.633 554.791 749.23 558.681C752.173 565.849 754.988 544.078 755.751 536.367C757.367 520.023 765.008 505.853 772.102 491.235C794.223 445.653 821.976 401.968 852.839 361.802C885.325 319.524 923.865 280.1 963.901 244.877C984.931 226.374 1006.48 207.712 1030.48 193.132C1036.68 189.366 1042.39 183.928 1049.6 182.162C1052.98 181.335 1052.53 183.556 1049.14 183.681C1028.02 184.461 1006.32 181.746 986.516 190.881C904.594 228.67 844.737 318.071 811.039 399.305C795.116 437.691 780.118 476.231 749.984 506.305C743.012 513.264 730.531 525.886 719.873 527.508C718.212 527.76 715.197 528.133 713.994 526.614C707.225 518.074 705.166 499.81 702.102 489.505C695.257 466.482 687.252 443.803 678.753 421.344C667.115 390.588 656.941 357.795 641.355 328.688C627.963 303.679 609.747 266.618 576.661 264.786C566.97 264.249 557.112 264.869 547.4 264.958C535.178 265.069 539.394 269.038 546.572 278.034C577.726 317.078 613.72 353.918 649.385 388.939C662.167 401.491 679.668 413.114 689.895 428.155C703.496 448.159 705.521 471.609 711.997 494.529C713.836 501.04 718.218 530.62 728.806 530.93C737.044 531.172 740.122 524.85 740.231 516.811C740.502 496.942 723.129 539.258 737.863 537.572C741.606 537.143 750.382 524.526 746.708 520.918C741.187 515.497 740.453 541.232 740.467 542.756" stroke="white" stroke-width="8" stroke-linecap="round"/>
<path d="M647.096 622.981C634.039 623.1 619.881 630.876 609.042 637.589C585.722 652.029 561.172 666.58 540.282 684.417C525.776 696.803 510.04 707.415 495.94 720.415C482.503 732.804 469.733 745.796 456.924 758.84C450.325 765.56 444.926 773.09 439.503 780.744C434.543 787.745 428.659 794.12 425.023 802.033C420.556 811.755 414.453 819.167 414.555 830.356C414.697 845.957 425.786 851.109 440.457 853.162C457.019 855.48 474.398 854.55 489.431 846.941C517.092 832.942 543.351 816.146 568.066 797.43C587.135 782.99 602.934 765.953 619.96 749.341C635.783 733.902 652.01 719.356 665.136 701.431C674.652 688.437 685.016 675.108 691.753 660.408C694.294 654.865 696.141 650.412 696.086 644.339C696.05 640.439 695.51 631.882 691.182 630.005C687.536 628.424 683.472 629.014 679.505 629.05C673.077 629.109 661.501 631.61 657.732 626.066" stroke="#FFBF3E" stroke-width="8" stroke-linecap="round"/>
<path d="M933.257 650.06C915.632 650.22 876.54 642.739 866.834 661.012C852.586 687.839 852.193 724.711 871.854 748.396C878.514 756.42 887.909 768.991 900.121 768.201C910.684 767.518 913.862 742.752 915.453 735.751C917.051 728.72 918.214 721.881 918.746 714.708C919.429 705.494 923.595 696.676 924.097 687.734C924.371 682.843 929.644 662.484 923.841 659.649" stroke="#FFBF3E" stroke-width="8" stroke-linecap="round"/>
<path d="M1085.77 563.857C1081.32 563.173 1067.86 562.323 1072.36 562.282C1100.2 562.028 1128 559.941 1155.48 555.395C1211.66 546.102 1265.96 528.16 1322.66 521.336C1332.71 520.127 1330.13 520.734 1322.3 522.66C1292.33 530.024 1261.79 535.554 1231.46 541.123C1167.13 552.932 1098.08 563.586 1032.68 554.532C1029.8 554.133 1008.41 547.625 1009.98 547.194C1017.32 545.192 1025.06 544.727 1032.59 543.971C1059.35 541.281 1085.2 536.21 1111.3 529.674C1149.01 520.228 1186.63 510.709 1224.5 501.86C1232.57 499.972 1254.86 491.281 1263.59 496.411C1266.11 497.893 1258.48 499.366 1255.7 500.255C1248.03 502.704 1240.22 505.243 1232.17 506.128C1211.1 508.447 1189.58 510.288 1168.37 510.481C1142.36 510.718 1117.34 512.166 1092.03 506.084" stroke="white" stroke-width="8" stroke-linecap="round"/>
<path d="M1469.71 607.044C1471.87 596.915 1471.61 618.471 1471.62 619.758C1471.87 647.74 1470.26 676.327 1476.16 703.839C1479.52 719.531 1483.81 744.084 1496.81 755.426C1509.65 766.635 1514.09 753.159 1515.91 740.729C1522.4 696.612 1526.13 648.338 1521.65 604.025C1520.82 595.802 1517.14 574.409 1508.51 570.193" stroke="white" stroke-width="8" stroke-linecap="round"/>
<path d="M1508.81 568.08C1500.98 568.152 1493.15 568.223 1485.33 568.294C1484.25 568.304 1481.38 568.3 1482.56 570.328C1484.51 573.656 1494.44 569.366 1496.61 568.192C1506.09 563.044 1513.62 555.187 1522.55 549.337C1529.79 544.586 1521.54 550.789 1519.49 553.305C1518.21 554.879 1507.9 567.264 1513.14 567.964C1522.76 569.249 1534.67 559.602 1542.37 554.951C1544.26 553.811 1551.92 547.814 1551.47 553.323C1551.02 559.044 1547.92 563.282 1545.74 568.362C1543.21 574.248 1542.15 582.056 1546.39 571.91" stroke="white" stroke-width="8" stroke-linecap="round"/>
<path d="M758.502 528.189C758.507 528.758 759.118 524.091 756.492 523.615C749.914 522.424 739.062 521.798 737.396 530.087C736.709 533.504 737.14 537.858 737.367 541.37C737.556 544.287 745.044 544.758 746.83 543.121C754.448 536.137 761.159 501.047 742.397 510.23C734.807 513.946 734.568 526.432 734.016 533.529C733.485 540.359 736.329 544.754 740.877 537.796" stroke="white" stroke-width="8" stroke-linecap="round"/>
<path d="M796.484 515.746C790.907 515.797 776.014 513.311 771.706 517.211C770.542 518.265 763.934 521.85 763.115 519.08C761.716 514.347 774.489 514.863 776.914 514.409C782.824 513.303 788.592 513.339 794.602 513.284C797.942 513.254 796.523 520.1 796.545 522.494C796.599 528.44 793.919 551.511 799.312 554.146" stroke="white" stroke-width="8" stroke-linecap="round"/>
<path d="M787.83 881.086C784.218 881.571 786.789 920.54 786.825 924.484" stroke="white" stroke-width="8" stroke-linecap="round"/>
<path d="M835.567 897.447C835.654 907.048 849.707 915.473 854.003 923.873" stroke="white" stroke-width="8" stroke-linecap="round"/>
<path d="M659.545 870.945C642.542 871.1 628.207 891.019 617.837 902.202C603.416 917.752 590.821 934.216 575.028 948.29" stroke="white" stroke-width="8" stroke-linecap="round"/>
<path d="M1019.18 556.429C1072.1 555.264 1125.14 554.811 1177.98 551.589C1205.17 549.932 1232.02 545.018 1259.26 544.214C1264.89 544.048 1275.73 546.164 1281.09 543.964C1281.78 543.681 1277.87 542.943 1277.79 542.931C1272.13 542.127 1266.49 541.14 1260.8 540.604C1216.57 536.435 1170.95 539.547 1126.62 539.951C1086.65 540.315 1046.92 541.385 1007.01 543.066C995.953 543.532 984.905 543.977 973.84 544.077C968.636 544.125 963.336 544.018 958.303 545.536C955.392 546.414 963.467 545.995 963.575 545.994C976.911 545.873 990.256 545.905 1003.58 545.377C1049.51 543.558 1095.99 540.62 1141.13 531.512C1193.13 521.021 1244.41 504.785 1294.82 488.477C1333.84 475.854 1373.32 461.703 1414.06 455.684C1416.84 455.272 1419.6 455.228 1422.41 455.203C1425.06 455.178 1417.13 455.799 1414.52 456.237C1382.43 461.604 1350.76 469.928 1319.34 478.326C1281.28 488.501 1243.86 500.731 1206.61 513.492C1178.18 523.229 1149.82 533.113 1120.54 540.007C1096.3 545.714 1071.42 551.182 1046.51 553.242C1045.5 553.325 1037.39 554.184 1038.16 554.483C1042.66 556.234 1047.42 556.515 1052.16 557.141C1080.02 560.823 1108.5 560.785 1136.54 561.134C1170.87 561.562 1206.74 563.325 1240.8 557.703C1267.38 553.315 1294.36 546.958 1319.89 538.191" stroke="white" stroke-width="8" stroke-linecap="round"/>
<path d="M288.999 885.247C289.005 885.906 288.753 883.95 288.574 883.315C285.454 872.226 277.854 861.568 272.443 851.624C235.745 784.171 196.697 717.931 156.978 652.222C143.287 629.573 129.633 606.901 115.304 584.647C104.913 568.508 94.0236 552.806 84.5016 536.126C76.5349 522.169 68.5031 508.632 64.4458 493.008" stroke="white" stroke-width="8" stroke-linecap="round"/>
<path d="M149.208 638.029C157.121 637.957 165.033 637.885 172.945 637.813C193.702 637.624 214.599 637.842 235.219 640.506C253.291 642.842 270.976 648.615 288.618 653.01C316.503 659.957 344.096 672.015 373.248 671.75" stroke="white" stroke-width="8" stroke-linecap="round"/>
<path d="M377.155 496.58L370.699 794.013" stroke="white" stroke-width="8" stroke-linecap="round"/>
<path d="M751.967 682.43C745.215 697.807 730.683 711.786 719.579 724.015C684.365 762.796 645.266 797.808 604.158 830.183C548.944 873.67 485.365 903.217 414.223 906.727C399.907 907.433 385.564 907.366 371.236 907.497C367.414 907.532 360.715 908.971 357.773 905.82C353.677 901.433 353.329 896.265 353.278 890.614C353.191 881.045 353.032 876.071 358.562 867.648C379.176 836.249 397.944 803.639 420.205 773.333C454.351 726.848 492.695 687.685 537.663 651.71C586.987 612.25 640.114 575.414 705.115 570.731C711.14 570.297 734.264 566.321 739.402 571.366C739.568 571.529 729.338 571.836 727.001 571.858C718.041 571.939 706.844 566.621 698.421 563.595C678.263 556.353 657.185 553.215 636.258 548.914C576.185 536.566 516.395 517.982 458.328 498.354C431.239 489.197 403.276 480.402 377.462 468.028C374.31 466.518 364.839 458.452 374.559 461.236C382.785 463.592 390.053 468.808 398.234 471.627C435.851 484.591 474.33 494.952 512.658 505.625C552.434 516.7 593.115 524.195 633.004 534.833C649.051 539.113 665.41 542.261 681.41 546.703C690.942 549.35 699.965 553.421 709.801 554.968C722.975 557.041 733.922 561.567 747.456 561.444C755.383 561.371 760.103 559.366 767.026 557.761C771.297 556.771 775.95 554.986 779.959 553.287C797.386 545.903 815.336 540.587 833.392 534.902C907.706 511.504 983.123 485.733 1059.51 469.962C1086.55 464.381 1113.77 457.536 1141.5 457.283C1156.06 457.151 1170.61 457.018 1185.16 456.886C1197.74 456.771 1210.87 455.581 1222.96 458.152C1235.27 460.771 1225.72 465.897 1218.79 468.891C1208.71 473.244 1196.59 473.985 1185.71 475.537C1128.18 483.74 1072.01 502.567 1014.04 509.204C986.832 512.318 960.42 518.802 933.777 524.708C916.141 528.617 895.892 532.094 879.461 539.786C871.776 543.384 858.784 544.264 852.658 549.879C847.686 554.437 838.097 558.944 831.923 560.769C827.825 561.98 828.158 576.952 831.521 579.05C832.891 579.905 837.753 577.7 839.463 577.652C850.363 577.347 857.711 580.436 867.097 586.018C912.705 613.143 955.849 649.914 993.123 687.716C1042.19 737.475 1082.86 795.132 1106.36 861.692C1109.16 869.619 1131.57 916.969 1110.39 919.517C1079.15 923.276 1043.08 925.047 1013.82 911.495C902.191 859.798 850.551 738.753 773.834 650.222C769.732 645.488 756.548 623.893 756.692 639.772C756.771 648.373 758.614 654.288 756.807 662.783C751.08 689.709 735.34 706.19 719.133 727.049C713.901 733.783 708.35 739.065 702.345 745.006C699.2 748.117 692.371 752.453 691.376 757.133C688.582 770.269 724.642 777.341 733.739 781.464C744.117 786.168 753.994 792.866 762.886 799.949C771.375 806.712 781.191 811.37 789.569 818.267C797.715 824.975 808.518 831.558 819.428 831.822C838.058 832.273 842.81 799.324 845.807 785.557C847.362 778.415 846.524 770.662 846.458 763.391C846.441 761.533 842.116 768.024 841.398 769.309C839.713 772.321 834.266 774.906 831.801 776.215C808.909 788.373 784.739 798.207 761.459 809.622C745.636 817.379 730.308 828.583 712.801 832.414C710.739 832.865 697.894 834.435 697.171 831.988C695.235 825.439 693.854 819.393 690.089 813.397C688.028 810.116 665.127 787.202 674.508 787.117C702.064 786.866 729.432 782.109 756.513 776.048C765.762 773.978 777.563 770.279 785.484 764.893C791.155 761.038 792.728 758.286 785.085 762.624C783.211 763.688 777.461 769.105 778.442 771.492C778.55 771.755 780.541 763.818 779.866 761.535C779.566 760.52 783.741 761.681 782.986 760.939C781.406 759.388 773.977 760.552 772.29 761.51C765.742 765.226 752.702 763.116 752.774 771.063C753.033 799.567 753.892 713.935 751.143 685.563C748.679 660.139 746.669 633.468 740.31 608.67C738.896 603.157 735.098 588.83 727.251 588.901C724.443 588.927 717.237 591.559 717.267 594.958C717.289 597.286 732.954 583.191 734.375 580.882C734.897 580.033 743.257 567.693 739.739 566.722C736.075 565.712 736.964 573.902 737.456 576.024C740.795 590.43 779.139 559.787 754.563 551.53C750.051 550.014 747.633 554.791 749.23 558.681C752.173 565.849 754.988 544.078 755.751 536.367C757.367 520.023 765.008 505.853 772.102 491.235C794.223 445.653 821.976 401.968 852.839 361.802C885.325 319.524 923.865 280.1 963.901 244.877C984.931 226.374 1006.48 207.712 1030.48 193.132C1036.68 189.366 1042.39 183.928 1049.6 182.162C1052.98 181.335 1052.53 183.556 1049.14 183.681C1028.02 184.461 1006.32 181.746 986.516 190.881C904.594 228.67 844.737 318.071 811.039 399.305C795.116 437.691 780.118 476.231 749.984 506.305C743.012 513.264 730.531 525.886 719.873 527.508C718.212 527.76 715.197 528.133 713.994 526.614C707.225 518.074 705.166 499.81 702.102 489.505C695.257 466.482 687.252 443.803 678.753 421.344C667.115 390.588 656.941 357.795 641.355 328.688C627.963 303.679 609.747 266.618 576.661 264.786C566.97 264.249 557.112 264.869 547.4 264.958C535.178 265.069 539.394 269.038 546.572 278.034C577.726 317.078 613.72 353.918 649.385 388.939C662.167 401.491 679.668 413.114 689.895 428.155C703.496 448.159 705.521 471.609 711.997 494.529C713.836 501.04 718.218 530.62 728.806 530.93C737.044 531.172 740.122 524.85 740.231 516.811C740.502 496.942 723.129 539.258 737.863 537.572C741.606 537.143 750.382 524.526 746.708 520.918C741.187 515.497 740.453 541.232 740.467 542.756" stroke="white" stroke-width="8" stroke-linecap="round"/>
<path d="M647.096 622.981C634.039 623.1 619.881 630.876 609.042 637.589C585.722 652.029 561.172 666.58 540.282 684.417C525.776 696.803 510.04 707.415 495.94 720.415C482.503 732.804 469.733 745.796 456.924 758.84C450.325 765.56 444.926 773.09 439.503 780.744C434.543 787.745 428.659 794.12 425.023 802.033C420.556 811.755 414.453 819.167 414.555 830.356C414.697 845.957 425.786 851.109 440.457 853.162C457.019 855.48 474.398 854.55 489.431 846.941C517.092 832.942 543.351 816.146 568.066 797.43C587.135 782.99 602.934 765.953 619.96 749.341C635.783 733.902 652.01 719.356 665.136 701.431C674.652 688.437 685.016 675.108 691.753 660.408C694.294 654.865 696.141 650.412 696.086 644.339C696.05 640.439 695.51 631.882 691.182 630.005C687.536 628.424 683.472 629.014 679.505 629.05C673.077 629.109 661.501 631.61 657.732 626.066" stroke="#FFBF3E" stroke-width="8" stroke-linecap="round"/>
<path d="M933.257 650.06C915.632 650.22 876.54 642.739 866.834 661.012C852.586 687.839 852.193 724.711 871.854 748.396C878.514 756.42 887.909 768.991 900.121 768.201C910.684 767.518 913.862 742.752 915.453 735.751C917.051 728.72 918.214 721.881 918.746 714.708C919.429 705.494 923.595 696.676 924.097 687.734C924.371 682.843 929.644 662.484 923.841 659.649" stroke="#FFBF3E" stroke-width="8" stroke-linecap="round"/>
<path d="M1174.41 499.6L1174.41 1014" stroke="white" stroke-width="8" stroke-linecap="round"/>
<path d="M1085.77 563.857C1081.32 563.173 1067.86 562.323 1072.36 562.282C1100.2 562.028 1128 559.941 1155.48 555.395C1211.66 546.102 1265.96 528.16 1322.66 521.336C1332.71 520.127 1330.13 520.734 1322.3 522.66C1292.33 530.024 1261.79 535.554 1231.46 541.123C1167.13 552.932 1098.08 563.586 1032.68 554.532C1029.8 554.133 1008.41 547.625 1009.98 547.194C1017.32 545.192 1025.06 544.727 1032.59 543.971C1059.35 541.281 1085.2 536.21 1111.3 529.674C1149.01 520.228 1186.63 510.709 1224.5 501.86C1232.57 499.972 1254.86 491.281 1263.59 496.411C1266.11 497.893 1258.48 499.366 1255.7 500.255C1248.03 502.704 1240.22 505.243 1232.17 506.128C1211.1 508.447 1189.58 510.288 1168.37 510.481C1142.36 510.718 1117.34 512.166 1092.03 506.084" stroke="white" stroke-width="8" stroke-linecap="round"/>
<path d="M1469.71 607.044C1471.87 596.915 1471.61 618.471 1471.62 619.758C1471.87 647.74 1470.26 676.327 1476.16 703.839C1479.52 719.531 1483.81 744.084 1496.81 755.426C1509.65 766.635 1514.09 753.159 1515.91 740.729C1522.4 696.612 1526.13 648.338 1521.65 604.025C1520.82 595.802 1517.14 574.409 1508.51 570.193" stroke="white" stroke-width="8" stroke-linecap="round"/>
<path d="M1508.81 568.08C1500.98 568.152 1493.15 568.223 1485.33 568.294C1484.25 568.304 1481.38 568.3 1482.56 570.328C1484.51 573.656 1494.44 569.366 1496.61 568.192C1506.09 563.044 1513.62 555.187 1522.55 549.337C1529.79 544.586 1521.54 550.789 1519.49 553.305C1518.21 554.879 1507.9 567.264 1513.14 567.964C1522.76 569.249 1534.67 559.602 1542.37 554.951C1544.26 553.811 1551.92 547.814 1551.47 553.323C1551.02 559.044 1547.92 563.282 1545.74 568.362C1543.21 574.248 1542.15 582.056 1546.39 571.91" stroke="white" stroke-width="8" stroke-linecap="round"/>
<path d="M758.502 528.189C758.507 528.758 759.118 524.091 756.492 523.615C749.914 522.424 739.062 521.798 737.396 530.087C736.709 533.504 737.14 537.858 737.367 541.37C737.556 544.287 745.044 544.758 746.83 543.121C754.448 536.137 761.159 501.047 742.397 510.23C734.807 513.946 734.568 526.432 734.016 533.529C733.485 540.359 736.329 544.754 740.877 537.796" stroke="white" stroke-width="8" stroke-linecap="round"/>
<path d="M796.484 515.746C790.907 515.797 776.014 513.311 771.706 517.211C770.542 518.265 763.934 521.85 763.115 519.08C761.716 514.347 774.489 514.863 776.914 514.409C782.824 513.303 788.592 513.339 794.602 513.284C797.942 513.254 796.523 520.1 796.545 522.494C796.599 528.44 793.919 551.511 799.312 554.146" stroke="white" stroke-width="8" stroke-linecap="round"/>
<path d="M787.83 881.086C784.218 881.571 786.789 920.54 786.825 924.484" stroke="white" stroke-width="8" stroke-linecap="round"/>
<path d="M835.567 897.447C835.654 907.048 849.707 915.473 854.003 923.873" stroke="white" stroke-width="8" stroke-linecap="round"/>
<path d="M659.545 870.945C642.542 871.1 628.207 891.019 617.837 902.202C603.416 917.752 590.821 934.216 575.028 948.29" stroke="white" stroke-width="8" stroke-linecap="round"/>
<path d="M1019.18 556.429C1072.1 555.264 1125.14 554.811 1177.98 551.589C1205.17 549.932 1232.02 545.018 1259.26 544.214C1264.89 544.048 1275.73 546.164 1281.09 543.964C1281.78 543.681 1277.87 542.943 1277.79 542.931C1272.13 542.127 1266.49 541.14 1260.8 540.604C1216.57 536.435 1170.95 539.547 1126.62 539.951C1086.65 540.315 1046.92 541.385 1007.01 543.066C995.953 543.532 984.905 543.977 973.84 544.077C968.636 544.125 963.336 544.018 958.303 545.536C955.392 546.414 963.467 545.995 963.575 545.994C976.911 545.873 990.256 545.905 1003.58 545.377C1049.51 543.558 1095.99 540.62 1141.13 531.512C1193.13 521.021 1244.41 504.785 1294.82 488.477C1333.84 475.854 1373.32 461.703 1414.06 455.684C1416.84 455.272 1419.6 455.228 1422.41 455.203C1425.06 455.178 1417.13 455.799 1414.52 456.237C1382.43 461.604 1350.76 469.928 1319.34 478.326C1281.28 488.501 1243.86 500.731 1206.61 513.492C1178.18 523.229 1149.82 533.113 1120.54 540.007C1096.3 545.714 1071.42 551.182 1046.51 553.242C1045.5 553.325 1037.39 554.184 1038.16 554.483C1042.66 556.234 1047.42 556.515 1052.16 557.141C1080.02 560.823 1108.5 560.785 1136.54 561.134C1170.87 561.562 1206.74 563.325 1240.8 557.703C1267.38 553.315 1294.36 546.958 1319.89 538.191" stroke="white" stroke-width="8" stroke-linecap="round"/>
<path d="M1238.32 821.454C1237.6 825.788 1239.91 812.808 1240.49 808.452C1242.49 793.276 1239.9 776.941 1240.39 761.62C1240.91 745.416 1243.23 729.08 1243.42 712.914C1243.59 698.372 1243.84 684.177 1246.14 669.69C1248.28 656.156 1250.64 642.65 1252.89 629.132C1253.69 624.319 1255.49 619.304 1256.96 614.653C1258.39 610.142 1259.75 604.158 1262.05 600.144C1263.63 597.388 1264.89 594.958 1267.56 593.383C1273.71 589.744 1274.91 595.133 1276.71 600.789C1277.7 603.897 1279.78 606.353 1281.32 609.134C1286.7 618.84 1291.79 629.11 1296.12 639.419C1308.34 668.503 1314.89 700.104 1322.48 730.907C1332.86 773.031 1349.82 812.476 1359 855" stroke="white" stroke-width="8" stroke-linecap="round"/>
<path d="M1244.66 693.078C1245.57 690.682 1249.01 689.665 1250.93 688.295C1255.16 685.267 1259.18 681.934 1263.42 678.904C1269.26 674.734 1274.77 670.183 1280.63 665.994C1285.29 662.659 1292.92 658.763 1296.32 654.087" stroke="white" stroke-width="8" stroke-linecap="round"/>
<path d="M1397.43 803.383C1396.11 802.991 1394.99 796.433 1394.69 795.553C1388.38 776.884 1381.86 758.32 1374.8 739.914C1362.83 708.701 1349.58 677.812 1334.99 647.734C1330.16 637.787 1327.59 627.187 1323.56 616.96C1322.47 614.207 1318.67 606.946 1319.77 603.894C1320.75 601.159 1322.75 598.385 1324.26 596.012C1331.12 585.206 1339.01 575.246 1347.27 565.478C1374.58 533.154 1405.95 504.385 1440.19 479.501C1469.97 457.859 1503.69 439.861 1539.29 430.171C1539.88 430.008 1550.59 426.154 1550.03 429.526C1548.61 438.048 1546.6 445.944 1543.29 453.98C1530.51 484.987 1509.6 511.758 1488.09 537.213C1453.17 578.531 1418.07 620.267 1378.68 657.438C1370.21 665.429 1359.01 675.836 1347.23 678.838C1344.94 679.423 1337.92 679.8 1340.26 680.189C1342.09 680.493 1343.92 680.798 1345.76 681.103C1347.64 681.417 1349.52 681.73 1351.4 682.043C1362.57 683.902 1371.42 693.042 1379.81 699.951C1401.17 717.544 1420.85 737.671 1439.15 758.43C1450.66 771.484 1460.83 786.195 1473.91 797.755" stroke="white" stroke-width="8" stroke-linecap="round"/>
</svg>
