<svg width="1488" height="958" viewBox="0 0 1488 958" fill="none" xmlns="http://www.w3.org/2000/svg">
<path d="M288.9 849.186C289.015 849.835 288.444 847.946 288.164 847.35C283.265 836.923 274.019 827.658 267.049 818.737C219.775 758.224 170.382 699.293 120.415 640.997C103.192 620.902 86.0006 600.779 68.2126 581.179C55.313 566.966 41.9935 553.265 29.8622 538.373C19.7124 525.914 9.56719 513.879 3 499.134" stroke="white" stroke-width="6" stroke-linecap="round"/>
<path d="M110.42 628.271C118.213 626.901 126.006 625.531 133.799 624.161C154.244 620.567 174.893 617.351 195.671 616.595C213.881 615.931 232.274 618.723 250.397 620.162C279.045 622.437 308.243 629.802 336.956 624.754" stroke="white" stroke-width="6" stroke-linecap="round"/>
<path d="M312.053 451.32L354.513 745.777" stroke="white" stroke-width="6" stroke-linecap="round"/>
<path d="M712.29 573.116C708.154 589.392 696.114 605.567 687.168 619.453C658.799 663.489 625.978 704.445 590.744 743.13C543.417 795.091 485.552 834.675 415.951 849.816C401.946 852.863 387.786 855.152 373.673 857.633C369.91 858.295 363.537 860.815 360.118 858.189C355.358 854.535 354.166 849.494 353.188 843.928C351.531 834.503 350.558 829.622 354.629 820.406C369.81 786.049 382.969 750.8 399.953 717.251C426.004 665.791 457.398 620.864 495.851 577.994C538.027 530.973 584.386 485.914 647.736 470.624C653.608 469.206 675.766 461.488 681.662 465.621C681.852 465.755 671.812 467.737 669.51 468.142C660.685 469.693 648.767 466.285 639.961 464.683C618.888 460.849 597.581 461.214 576.231 460.407C514.947 458.089 452.917 449.573 392.415 439.744C364.191 435.158 335.163 431.073 307.668 423.105C304.311 422.133 293.644 415.732 303.689 416.882C312.19 417.856 320.216 421.807 328.749 423.245C367.984 429.857 407.642 433.761 447.202 437.996C488.256 442.392 529.616 443.106 570.711 447.051C587.242 448.638 603.896 449.058 620.408 450.814C630.245 451.86 639.814 454.394 649.77 454.305C663.106 454.187 674.647 456.855 687.978 454.511C695.785 453.139 700.112 450.386 706.677 447.666C710.728 445.989 715.025 443.463 718.701 441.13C734.679 430.985 751.513 422.794 768.391 414.222C837.855 378.941 908.018 341.139 980.784 313.041C1006.53 303.097 1032.26 291.876 1059.58 287.073C1073.91 284.554 1088.24 282.034 1102.58 279.515C1114.97 277.335 1127.72 274.007 1140.07 274.558C1152.64 275.12 1144.07 281.744 1137.72 285.835C1128.49 291.785 1116.66 294.506 1106.18 297.823C1050.78 315.358 998.46 343.152 942.365 359.216C916.041 366.754 891.052 377.486 865.74 387.686C848.985 394.437 829.581 401.191 814.636 411.477C807.646 416.287 794.975 419.288 789.854 425.833C785.697 431.145 776.979 437.165 771.188 439.979C767.345 441.847 770.131 456.561 773.793 458.078C775.285 458.696 779.719 455.723 781.398 455.395C792.1 453.305 799.855 455.145 810.03 459.111C859.472 478.38 908.067 507.57 951.042 538.739C1007.61 579.768 1057.2 629.966 1091.3 691.765C1095.37 699.125 1125.24 742.154 1104.77 748.144C1074.57 756.981 1039.28 764.649 1008.19 756.084C889.595 723.415 818.783 612.49 728.572 537.755C723.749 533.759 707.198 514.62 709.948 530.26C711.437 538.732 714.227 544.264 713.839 552.941C712.61 580.441 699.789 599.283 687.227 622.52C683.171 630.021 678.563 636.143 673.614 642.989C671.023 646.574 664.998 651.972 664.785 656.752C664.185 670.169 700.917 671.224 710.568 673.798C721.577 676.734 732.419 681.72 742.354 687.248C751.838 692.525 762.286 695.509 771.682 700.937C780.819 706.216 792.556 710.936 803.362 709.405C821.812 706.792 821.091 673.51 821.787 659.438C822.149 652.137 820.049 644.627 818.79 637.466C818.468 635.636 815.268 642.749 814.77 644.134C813.602 647.382 808.654 650.826 806.438 652.521C785.852 668.273 763.625 681.942 742.534 697.023C728.199 707.273 714.918 720.841 698.278 727.495C696.318 728.278 683.906 731.935 682.79 729.64C679.806 723.498 677.451 717.761 672.752 712.464C670.181 709.566 643.829 690.723 653.068 689.099C680.209 684.327 706.425 675.142 732.143 664.717C740.927 661.156 751.961 655.57 758.89 648.958C763.851 644.224 764.951 641.251 758.124 646.785C756.45 648.142 751.668 654.429 753.027 656.623C753.177 656.865 753.838 648.708 752.797 646.567C752.335 645.615 756.644 646.074 755.777 645.467C753.964 644.196 746.827 646.564 745.32 647.786C739.471 652.527 726.261 652.586 727.637 660.413C732.572 688.488 719.361 603.877 711.992 576.341C705.388 551.667 699.026 525.688 688.682 502.27C686.382 497.064 680.284 483.555 672.554 484.914C669.789 485.4 663.112 489.179 663.701 492.527C664.104 494.82 677.243 478.344 678.265 475.833C678.641 474.91 684.862 461.365 681.232 460.985C677.452 460.59 679.674 468.523 680.507 470.535C686.166 484.197 718.959 447.676 693.361 443.565C688.662 442.811 687.06 447.92 689.274 451.495C693.355 458.083 692.557 436.145 692.043 428.413C690.955 412.025 696.165 396.793 700.763 381.209C715.101 332.614 735.306 284.965 759.156 240.277C784.261 193.24 815.805 148.024 849.515 106.706C867.223 85.0016 885.419 63.0541 906.694 44.7334C912.189 40.001 916.936 33.6981 923.758 30.7725C926.954 29.4019 926.877 31.667 923.554 32.3468C902.842 36.584 880.992 37.4685 862.959 49.7297C788.353 100.456 743.984 198.47 724.08 284.134C714.675 324.613 706.207 365.093 681.42 399.705C675.684 407.715 665.445 422.215 655.198 425.564C653.601 426.086 650.688 426.949 649.252 425.648C641.173 418.335 636.143 400.656 631.429 390.995C620.897 369.408 609.278 348.351 597.207 327.591C580.678 299.163 565.258 268.485 545.105 242.332C527.789 219.861 503.736 186.294 470.798 189.918C461.15 190.98 451.528 193.21 441.962 194.891C429.925 197.007 434.734 200.23 443.292 207.926C480.434 241.326 521.987 271.757 562.918 300.448C577.587 310.731 596.759 319.322 609.316 332.481C626.016 349.981 631.864 372.78 642.014 394.326C644.898 400.447 654.076 428.905 664.572 427.474C672.738 426.36 674.735 419.618 673.524 411.67C670.529 392.027 660.339 436.621 674.596 432.538C678.218 431.501 684.803 417.614 680.587 414.659C674.251 410.217 677.752 435.724 678.016 437.225" stroke="white" stroke-width="6" stroke-linecap="round"/>
<path d="M599.082 531.689C586.222 533.95 573.533 543.945 563.942 552.346C543.31 570.419 521.482 588.803 503.804 609.827C491.528 624.427 477.748 637.478 465.973 652.617C454.752 667.044 444.288 681.955 433.795 696.925C428.389 704.637 424.298 712.952 420.206 721.393C416.463 729.113 411.705 736.367 409.417 744.769C406.606 755.092 401.804 763.406 403.741 774.427C406.443 789.793 418.226 793.054 433.036 792.671C449.754 792.239 466.744 788.468 480.324 778.494C505.311 760.144 528.456 739.265 549.764 716.746C566.204 699.371 578.991 679.971 593.058 660.79C606.132 642.962 619.751 625.95 629.757 606.113C637.01 591.733 645.045 576.884 649.278 561.277C650.874 555.392 651.965 550.697 650.914 544.715C650.238 540.873 648.301 532.521 643.723 531.38C639.867 530.419 635.955 531.669 632.048 532.356C625.717 533.469 614.708 537.836 610.08 532.986" stroke="#FFBF3E" stroke-width="6" stroke-linecap="round"/>
<path d="M885.806 511.422C868.447 514.474 828.657 513.512 822.083 533.131C812.432 561.932 818.098 598.368 841.38 618.505C849.267 625.326 860.599 636.184 872.515 633.4C882.822 630.992 881.892 606.04 882.312 598.873C882.734 591.675 882.758 584.738 882.105 577.575C881.267 568.374 883.929 558.992 882.955 550.088C882.423 545.219 884.282 524.271 878.092 522.426" stroke="#FFBF3E" stroke-width="6" stroke-linecap="round"/>
<path d="M1098.99 323.413L1209.87 954.138" stroke="white" stroke-width="6" stroke-linecap="round"/>
<path d="M1022.1 401.351C1017.6 401.406 1004.18 402.777 1008.61 401.998C1036.03 397.178 1063.11 390.556 1089.47 381.559C1143.37 363.169 1193.98 336.557 1248.79 320.517C1258.51 317.674 1256.06 318.696 1248.65 321.882C1220.3 334.066 1191.08 344.534 1162.08 355.007C1100.56 377.216 1034.2 399.062 968.201 400.868C965.289 400.947 943.119 398.039 944.603 397.356C951.514 394.176 959.074 392.446 966.372 390.465C992.33 383.419 1017 374.172 1041.67 363.44C1077.31 347.932 1112.87 332.365 1148.76 317.42C1156.42 314.232 1176.98 302.001 1186.43 305.628C1189.16 306.676 1181.88 309.38 1179.28 310.715C1172.11 314.389 1164.83 318.177 1157.04 320.37C1136.63 326.118 1115.7 331.467 1094.81 335.139C1069.19 339.643 1044.75 345.178 1018.79 343.333" stroke="white" stroke-width="6" stroke-linecap="round"/>
<path d="M1407.92 380.92C1408.38 370.575 1411.67 391.881 1411.89 393.149C1416.73 420.708 1419.83 449.174 1430.17 475.344C1436.06 490.271 1444.33 513.786 1459.01 522.841C1473.52 531.789 1475.68 517.767 1475.44 505.206C1474.59 460.623 1470.35 412.392 1458.66 369.415C1456.49 361.441 1449.35 340.941 1440.15 338.199" stroke="white" stroke-width="6" stroke-linecap="round"/>
<path d="M1440.09 336.066C1432.38 337.422 1424.67 338.777 1416.96 340.132C1415.9 340.319 1413.07 340.786 1414.57 342.592C1417.03 345.556 1426.13 339.693 1428.07 338.18C1436.58 331.545 1442.72 322.558 1450.56 315.323C1456.93 309.447 1449.81 316.92 1448.2 319.738C1447.2 321.501 1439.06 335.411 1444.34 335.241C1454.04 334.929 1464.21 323.457 1471.04 317.605C1472.72 316.17 1479.29 308.999 1479.75 314.505C1480.24 320.223 1477.88 324.912 1476.57 330.282C1475.04 336.502 1475.27 344.379 1477.79 333.674" stroke="white" stroke-width="6" stroke-linecap="round"/>
<path d="M693.415 419.894C693.513 420.454 693.349 415.75 690.681 415.712C683.997 415.617 673.19 416.781 672.907 425.231C672.79 428.715 673.93 432.938 674.731 436.366C675.396 439.213 682.859 438.447 684.352 436.539C690.721 428.4 691.579 392.684 674.581 404.822C667.703 409.734 669.517 422.09 670.138 429.181C670.735 436.006 674.263 439.874 677.607 432.264" stroke="white" stroke-width="6" stroke-linecap="round"/>
<path d="M728.838 401.385C723.345 402.35 708.247 402.343 704.637 406.898C703.662 408.128 697.732 412.749 696.47 410.151C694.313 405.712 706.997 404.125 709.315 403.279C714.963 401.217 720.658 400.306 726.578 399.265C729.868 398.687 729.592 405.673 730.007 408.031C731.036 413.888 732.18 437.085 737.933 438.799" stroke="white" stroke-width="6" stroke-linecap="round"/>
<path d="M780.279 763.188C776.796 764.259 785.73 802.278 786.413 806.163" stroke="white" stroke-width="6" stroke-linecap="round"/>
<path d="M830.055 771.49C831.718 780.946 846.963 786.95 852.58 794.531" stroke="white" stroke-width="6" stroke-linecap="round"/>
<path d="M652.071 774.245C635.324 777.189 624.453 799.192 616.06 811.925C604.387 829.632 594.666 847.94 581.398 864.416" stroke="white" stroke-width="6" stroke-linecap="round"/>
<path d="M955.196 404.954C1007.21 395.117 1059.45 385.965 1111.05 374.111C1137.59 368.013 1163.27 358.757 1190.01 353.492C1195.54 352.403 1206.58 352.711 1211.5 349.662C1212.14 349.269 1208.16 349.182 1208.08 349.184C1202.37 349.32 1196.64 349.273 1190.94 349.678C1146.62 352.827 1102.14 363.386 1058.47 371.063C1019.1 377.983 980.088 385.561 940.991 393.772C930.163 396.046 919.338 398.299 908.44 400.215C903.314 401.116 898.069 401.881 893.353 404.204C890.626 405.548 898.522 403.81 898.629 403.791C911.764 401.482 924.933 399.322 937.993 396.613C983.003 387.279 1028.36 376.75 1071.4 360.356C1120.97 341.471 1168.88 317.036 1215.93 292.674C1252.36 273.815 1288.97 253.376 1328.17 240.75C1330.85 239.887 1333.57 239.39 1336.33 238.904C1338.95 238.445 1331.23 240.359 1328.72 241.22C1297.94 251.782 1268.07 265.193 1238.46 278.635C1202.59 294.92 1167.68 313.126 1133.03 331.831C1106.59 346.102 1080.23 360.509 1052.48 372.115C1029.5 381.726 1005.86 391.204 981.625 397.325C980.649 397.572 972.79 399.751 973.596 399.92C978.317 400.909 983.067 400.403 987.846 400.243C1015.93 399.301 1044.01 394.589 1071.73 390.331C1105.67 385.116 1141.34 380.966 1174.01 369.83C1199.51 361.137 1225.09 350.436 1248.83 337.598" stroke="white" stroke-width="6" stroke-linecap="round"/>
<path d="M288.9 849.186C289.015 849.835 288.444 847.946 288.164 847.35C283.265 836.923 274.019 827.658 267.049 818.737C219.775 758.224 170.382 699.293 120.415 640.997C103.192 620.902 86.0006 600.779 68.2126 581.179C55.313 566.966 41.9935 553.265 29.8622 538.373C19.7124 525.914 9.56719 513.879 3 499.134" stroke="white" stroke-width="6" stroke-linecap="round"/>
<path d="M110.42 628.271C118.213 626.901 126.006 625.531 133.799 624.161C154.244 620.567 174.893 617.351 195.671 616.595C213.881 615.931 232.274 618.723 250.397 620.162C279.045 622.437 308.243 629.802 336.956 624.754" stroke="white" stroke-width="6" stroke-linecap="round"/>
<path d="M312.053 451.32L354.513 745.777" stroke="white" stroke-width="6" stroke-linecap="round"/>
<path d="M712.29 573.116C708.154 589.392 696.114 605.567 687.168 619.453C658.799 663.489 625.978 704.445 590.744 743.13C543.417 795.091 485.552 834.675 415.951 849.816C401.946 852.863 387.786 855.152 373.673 857.633C369.91 858.295 363.537 860.815 360.118 858.189C355.358 854.535 354.166 849.494 353.188 843.928C351.531 834.503 350.558 829.622 354.629 820.406C369.81 786.049 382.969 750.8 399.953 717.251C426.004 665.791 457.398 620.864 495.851 577.994C538.027 530.973 584.386 485.914 647.736 470.624C653.608 469.206 675.766 461.488 681.662 465.621C681.852 465.755 671.812 467.737 669.51 468.142C660.685 469.693 648.767 466.285 639.961 464.683C618.888 460.849 597.581 461.214 576.231 460.407C514.947 458.089 452.917 449.573 392.415 439.744C364.191 435.158 335.163 431.073 307.668 423.105C304.311 422.133 293.644 415.732 303.689 416.882C312.19 417.856 320.216 421.807 328.749 423.245C367.984 429.857 407.642 433.761 447.202 437.996C488.256 442.392 529.616 443.106 570.711 447.051C587.242 448.638 603.896 449.058 620.408 450.814C630.245 451.86 639.814 454.394 649.77 454.305C663.106 454.187 674.647 456.855 687.978 454.511C695.785 453.139 700.112 450.386 706.677 447.666C710.728 445.989 715.025 443.463 718.701 441.13C734.679 430.985 751.513 422.794 768.391 414.222C837.855 378.941 908.018 341.139 980.784 313.041C1006.53 303.097 1032.26 291.876 1059.58 287.073C1073.91 284.554 1088.24 282.034 1102.58 279.515C1114.97 277.335 1127.72 274.007 1140.07 274.558C1152.64 275.12 1144.07 281.744 1137.72 285.835C1128.49 291.785 1116.66 294.506 1106.18 297.823C1050.78 315.358 998.46 343.152 942.365 359.216C916.041 366.754 891.052 377.486 865.74 387.686C848.985 394.437 829.581 401.191 814.636 411.477C807.646 416.287 794.975 419.288 789.854 425.833C785.697 431.145 776.979 437.165 771.188 439.979C767.345 441.847 770.131 456.561 773.793 458.078C775.285 458.696 779.719 455.723 781.398 455.395C792.1 453.305 799.855 455.145 810.03 459.111C859.472 478.38 908.067 507.57 951.042 538.739C1007.61 579.768 1057.2 629.966 1091.3 691.765C1095.37 699.125 1125.24 742.154 1104.77 748.144C1074.57 756.981 1039.28 764.649 1008.19 756.084C889.595 723.415 818.783 612.49 728.572 537.755C723.749 533.759 707.198 514.62 709.948 530.26C711.437 538.732 714.227 544.264 713.839 552.941C712.61 580.441 699.789 599.283 687.227 622.52C683.171 630.021 678.563 636.143 673.614 642.989C671.023 646.574 664.998 651.972 664.785 656.752C664.185 670.169 700.917 671.224 710.568 673.798C721.577 676.734 732.419 681.72 742.354 687.248C751.838 692.525 762.286 695.509 771.682 700.937C780.819 706.216 792.556 710.936 803.362 709.405C821.812 706.792 821.091 673.51 821.787 659.438C822.149 652.137 820.049 644.627 818.79 637.466C818.468 635.636 815.268 642.749 814.77 644.134C813.602 647.382 808.654 650.826 806.438 652.521C785.852 668.273 763.625 681.942 742.534 697.023C728.199 707.273 714.918 720.841 698.278 727.495C696.318 728.278 683.906 731.935 682.79 729.64C679.806 723.498 677.451 717.761 672.752 712.464C670.181 709.566 643.829 690.723 653.068 689.099C680.209 684.327 706.425 675.142 732.143 664.717C740.927 661.156 751.961 655.57 758.89 648.958C763.851 644.224 764.951 641.251 758.124 646.785C756.45 648.142 751.668 654.429 753.027 656.623C753.177 656.865 753.838 648.708 752.797 646.567C752.335 645.615 756.644 646.074 755.777 645.467C753.964 644.196 746.827 646.564 745.32 647.786C739.471 652.527 726.261 652.586 727.637 660.413C732.572 688.488 719.361 603.877 711.992 576.341C705.388 551.667 699.026 525.688 688.682 502.27C686.382 497.064 680.284 483.555 672.554 484.914C669.789 485.4 663.112 489.179 663.701 492.527C664.104 494.82 677.243 478.344 678.265 475.833C678.641 474.91 684.862 461.365 681.232 460.985C677.452 460.59 679.674 468.523 680.507 470.535C686.166 484.197 718.959 447.676 693.361 443.565C688.662 442.811 687.06 447.92 689.274 451.495C693.355 458.083 692.557 436.145 692.043 428.413C690.955 412.025 696.165 396.793 700.763 381.209C715.101 332.614 735.306 284.965 759.156 240.277C784.261 193.24 815.805 148.024 849.515 106.706C867.223 85.0016 885.419 63.0541 906.694 44.7334C912.189 40.001 916.936 33.6981 923.758 30.7725C926.954 29.4019 926.877 31.667 923.554 32.3468C902.842 36.584 880.992 37.4685 862.959 49.7297C788.353 100.456 743.984 198.47 724.08 284.134C714.675 324.613 706.207 365.093 681.42 399.705C675.684 407.715 665.445 422.215 655.198 425.564C653.601 426.086 650.688 426.949 649.252 425.648C641.173 418.335 636.143 400.656 631.429 390.995C620.897 369.408 609.278 348.351 597.207 327.591C580.678 299.163 565.258 268.485 545.105 242.332C527.789 219.861 503.736 186.294 470.798 189.918C461.15 190.98 451.528 193.21 441.962 194.891C429.925 197.007 434.734 200.23 443.292 207.926C480.434 241.326 521.987 271.757 562.918 300.448C577.587 310.731 596.759 319.322 609.316 332.481C626.016 349.981 631.864 372.78 642.014 394.326C644.898 400.447 654.076 428.905 664.572 427.474C672.738 426.36 674.735 419.618 673.524 411.67C670.529 392.027 660.339 436.621 674.596 432.538C678.218 431.501 684.803 417.614 680.587 414.659C674.251 410.217 677.752 435.724 678.016 437.225" stroke="white" stroke-width="6" stroke-linecap="round"/>
<path d="M599.082 531.689C586.222 533.95 573.533 543.945 563.942 552.346C543.31 570.419 521.482 588.803 503.804 609.827C491.528 624.427 477.748 637.478 465.973 652.617C454.752 667.044 444.288 681.955 433.795 696.925C428.389 704.637 424.298 712.952 420.206 721.393C416.463 729.113 411.705 736.367 409.417 744.769C406.606 755.092 401.804 763.406 403.741 774.427C406.443 789.793 418.226 793.054 433.036 792.671C449.754 792.239 466.744 788.468 480.324 778.494C505.311 760.144 528.456 739.265 549.764 716.746C566.204 699.371 578.991 679.971 593.058 660.79C606.132 642.962 619.751 625.95 629.757 606.113C637.01 591.733 645.045 576.884 649.278 561.277C650.874 555.392 651.965 550.697 650.914 544.715C650.238 540.873 648.301 532.521 643.723 531.38C639.867 530.419 635.955 531.669 632.048 532.356C625.717 533.469 614.708 537.836 610.08 532.986" stroke="#FFBF3E" stroke-width="6" stroke-linecap="round"/>
<path d="M885.806 511.422C868.447 514.474 828.657 513.512 822.083 533.131C812.432 561.932 818.098 598.368 841.38 618.505C849.267 625.326 860.599 636.184 872.515 633.4C882.822 630.992 881.892 606.04 882.312 598.873C882.734 591.675 882.758 584.738 882.105 577.575C881.267 568.374 883.929 558.992 882.955 550.088C882.423 545.219 884.282 524.271 878.092 522.426" stroke="#FFBF3E" stroke-width="6" stroke-linecap="round"/>
<path d="M1098.99 323.413L1209.87 954.138" stroke="white" stroke-width="6" stroke-linecap="round"/>
<path d="M1022.1 401.351C1017.6 401.406 1004.18 402.777 1008.61 401.998C1036.03 397.178 1063.11 390.556 1089.47 381.559C1143.37 363.169 1193.98 336.557 1248.79 320.517C1258.51 317.674 1256.06 318.696 1248.65 321.882C1220.3 334.066 1191.08 344.534 1162.08 355.007C1100.56 377.216 1034.2 399.062 968.201 400.868C965.289 400.947 943.119 398.039 944.603 397.356C951.514 394.176 959.074 392.446 966.372 390.465C992.33 383.419 1017 374.172 1041.67 363.44C1077.31 347.932 1112.87 332.365 1148.76 317.42C1156.42 314.232 1176.98 302.001 1186.43 305.628C1189.16 306.676 1181.88 309.38 1179.28 310.715C1172.11 314.389 1164.83 318.177 1157.04 320.37C1136.63 326.118 1115.7 331.467 1094.81 335.139C1069.19 339.643 1044.75 345.178 1018.79 343.333" stroke="white" stroke-width="6" stroke-linecap="round"/>
<path d="M1407.92 380.92C1408.38 370.575 1411.67 391.881 1411.89 393.149C1416.73 420.708 1419.83 449.174 1430.17 475.344C1436.06 490.271 1444.33 513.786 1459.01 522.841C1473.52 531.789 1475.68 517.767 1475.44 505.206C1474.59 460.623 1470.35 412.392 1458.66 369.415C1456.49 361.441 1449.35 340.941 1440.15 338.199" stroke="white" stroke-width="6" stroke-linecap="round"/>
<path d="M1440.09 336.066C1432.38 337.422 1424.67 338.777 1416.96 340.132C1415.9 340.319 1413.07 340.786 1414.57 342.592C1417.03 345.556 1426.13 339.693 1428.07 338.18C1436.58 331.545 1442.72 322.558 1450.56 315.323C1456.93 309.447 1449.81 316.92 1448.2 319.738C1447.2 321.501 1439.06 335.411 1444.34 335.241C1454.04 334.929 1464.21 323.457 1471.04 317.605C1472.72 316.17 1479.29 308.999 1479.75 314.505C1480.24 320.223 1477.88 324.912 1476.57 330.282C1475.04 336.502 1475.27 344.379 1477.79 333.674" stroke="white" stroke-width="6" stroke-linecap="round"/>
<path d="M693.415 419.894C693.513 420.454 693.349 415.75 690.681 415.712C683.997 415.617 673.19 416.781 672.907 425.231C672.79 428.715 673.93 432.938 674.731 436.366C675.396 439.213 682.859 438.447 684.352 436.539C690.721 428.4 691.579 392.684 674.581 404.822C667.703 409.734 669.517 422.09 670.138 429.181C670.735 436.006 674.263 439.874 677.607 432.264" stroke="white" stroke-width="6" stroke-linecap="round"/>
<path d="M728.838 401.385C723.345 402.35 708.247 402.343 704.637 406.898C703.662 408.128 697.732 412.749 696.47 410.151C694.313 405.712 706.997 404.125 709.315 403.279C714.963 401.217 720.658 400.306 726.578 399.265C729.868 398.687 729.592 405.673 730.007 408.031C731.036 413.888 732.18 437.085 737.933 438.799" stroke="white" stroke-width="6" stroke-linecap="round"/>
<path d="M780.279 763.188C776.796 764.259 785.73 802.278 786.413 806.163" stroke="white" stroke-width="6" stroke-linecap="round"/>
<path d="M830.055 771.49C831.718 780.946 846.963 786.95 852.58 794.531" stroke="white" stroke-width="6" stroke-linecap="round"/>
<path d="M652.071 774.245C635.324 777.189 624.453 799.192 616.06 811.925C604.387 829.632 594.666 847.94 581.398 864.416" stroke="white" stroke-width="6" stroke-linecap="round"/>
<path d="M955.196 404.954C1007.21 395.117 1059.45 385.965 1111.05 374.111C1137.59 368.013 1163.27 358.757 1190.01 353.492C1195.54 352.403 1206.58 352.711 1211.5 349.662C1212.14 349.269 1208.16 349.182 1208.08 349.184C1202.37 349.32 1196.64 349.273 1190.94 349.678C1146.62 352.827 1102.14 363.386 1058.47 371.063C1019.1 377.983 980.088 385.561 940.991 393.772C930.163 396.046 919.338 398.299 908.44 400.215C903.314 401.116 898.069 401.881 893.353 404.204C890.626 405.548 898.522 403.81 898.629 403.791C911.764 401.482 924.933 399.322 937.993 396.613C983.003 387.279 1028.36 376.75 1071.4 360.356C1120.97 341.471 1168.88 317.036 1215.93 292.674C1252.36 273.815 1288.97 253.376 1328.17 240.75C1330.85 239.887 1333.57 239.39 1336.33 238.904C1338.95 238.445 1331.23 240.359 1328.72 241.22C1297.94 251.782 1268.07 265.193 1238.46 278.635C1202.59 294.92 1167.68 313.126 1133.03 331.831C1106.59 346.102 1080.23 360.509 1052.48 372.115C1029.5 381.726 1005.86 391.204 981.625 397.325C980.649 397.572 972.79 399.751 973.596 399.92C978.317 400.909 983.067 400.403 987.846 400.243C1015.93 399.301 1044.01 394.589 1071.73 390.331C1105.67 385.116 1141.34 380.966 1174.01 369.83C1199.51 361.137 1225.09 350.436 1248.83 337.598" stroke="white" stroke-width="6" stroke-linecap="round"/>
<path d="M1214.37 606.963C1214.37 610.912 1214.52 599.063 1214.37 595.117C1213.87 581.367 1208.79 567.266 1206.81 553.611C1204.73 539.169 1204.34 524.344 1201.95 509.983C1199.8 497.066 1197.77 484.445 1197.66 471.262C1197.56 458.946 1197.66 446.625 1197.66 434.309C1197.66 429.924 1198.59 425.213 1199.25 420.872C1199.9 416.662 1200.26 411.154 1201.82 407.257C1202.89 404.582 1203.72 402.24 1206.02 400.45C1211.33 396.316 1213.34 400.917 1215.96 405.666C1217.41 408.276 1219.79 410.146 1221.71 412.385C1228.4 420.197 1234.92 428.549 1240.72 437.05C1257.05 461.032 1268.36 488.082 1280.54 514.271C1297.2 550.085 1319.73 582.552 1335.31 618.898" stroke="white" stroke-width="6" stroke-linecap="round"/>
<path d="M1200.05 502.734C1200.55 500.221 1203.78 498.653 1205.44 496.987C1209.13 493.304 1212.54 489.357 1216.23 485.672C1221.3 480.601 1225.99 475.207 1231.08 470.113C1235.14 466.057 1242.02 460.961 1244.61 455.791" stroke="white" stroke-width="6" stroke-linecap="round"/>
<path d="M1368.85 586.463C1367.48 586.292 1365.3 580.007 1364.86 579.188C1355.58 561.807 1346.1 544.567 1336.11 527.569C1319.18 498.745 1301.04 470.45 1281.71 443.175C1275.31 434.156 1271.03 424.122 1265.38 414.696C1263.86 412.159 1258.92 405.62 1259.5 402.43C1260.02 399.57 1261.53 396.505 1262.63 393.917C1267.62 382.133 1273.78 371.01 1280.31 360.02C1301.95 323.65 1328.17 290.122 1357.86 259.955C1383.68 233.718 1413.99 210.428 1447.52 195.025C1448.08 194.766 1458 189.207 1458 192.625C1458 201.265 1457.32 209.384 1455.37 217.855C1447.85 250.539 1431.63 280.379 1414.59 309.02C1386.92 355.509 1359.15 402.442 1326.4 445.574C1319.36 454.847 1310.01 466.954 1298.89 471.848C1296.72 472.802 1289.87 474.325 1292.23 474.325C1294.09 474.325 1295.95 474.325 1297.8 474.325C1299.71 474.325 1301.62 474.325 1303.53 474.325C1314.85 474.325 1325.08 481.889 1334.49 487.326C1358.45 501.174 1381.16 517.798 1402.63 535.269C1416.13 546.256 1428.57 559.1 1443.37 568.354" stroke="white" stroke-width="6" stroke-linecap="round"/>
</svg>
