<svg width="796" height="216" viewBox="0 0 796 216" fill="none" xmlns="http://www.w3.org/2000/svg">
<path d="M33.1797 92.7748C30.6394 92.4573 31.2194 86.6546 31.5442 84.5974C32.1321 80.874 41.2572 75.1092 44.6281 73.5124C51.159 70.4189 72.3965 77.8237 78.0648 80.5087C87.1513 84.8128 92.6904 92.4864 101.87 97.3178C103.784 98.3253 109.23 101.043 111.32 98.9533C112.808 97.4654 93.6389 93.841 92.1481 93.5926C72.2505 90.2763 56.4321 84.7752 38.0862 75.6022C29.0354 71.0768 21.1304 66.6437 11.1915 64.2447C10.0519 63.9696 0.647527 61.9871 0.106546 63.7904C-0.971399 67.3835 6.33891 74.8589 9.3743 76.42C15.7703 79.7093 26.1317 78.4257 32.8163 77.692C44.7683 76.3802 58.4902 75.1097 70.1599 72.3312C81.6145 69.6039 95.1847 71.5135 106.867 71.5135C121.692 71.5135 131.486 76.1403 142.03 86.4146C155.177 99.224 165.91 111.199 185.098 108.766C219.768 104.372 251.872 68.877 288.407 74.9662C302.259 77.2749 315.767 90.1098 326.204 98.5899C338.659 108.709 354.767 120.476 370.635 124.758C387.528 129.316 401.725 120.433 416.065 113.128C432.915 104.544 444.256 97.6813 463.495 97.6813C496.602 97.6813 528.202 122.789 553.81 141.658C566.338 150.889 578.828 157.343 594.424 150.38C618.998 139.41 637.947 118.944 663.478 110.038C682.723 103.325 701.411 104.223 721.538 104.223C742.82 104.223 762.937 106.083 783.959 107.585C795.166 108.386 805.809 112.401 817.214 112.401C820.157 112.401 830.921 113.848 828.026 112.401" stroke="#4DFFAC" stroke-width="125" stroke-linecap="round"/>
</svg>
