<svg width="110" height="99" viewBox="0 0 110 99" fill="none" xmlns="http://www.w3.org/2000/svg">
<path d="M55.5901 32.4694C61.5383 32.4694 76.5113 32.5408 76.5113 38.3314C76.5113 40.8848 71.9208 42.5261 69.3632 43.9961C63.8143 47.1854 58.6058 48.4568 51.435 48.4568C46.829 48.4568 42.0182 48.5857 38.4464 46.2462C36.8993 45.2328 37.2842 43.9076 37.2842 42.575C37.2842 41.1198 37.0238 39.4975 38.0396 38.1538C40.2351 35.2496 45.433 33.4894 49.8368 32.6667C58.1524 31.1134 65.7567 31.5231 71.804 36.0221C74.3736 37.9338 75.4652 40.9148 75.4652 43.4434C75.4652 46.2909 73.1611 47.3803 70.4093 49.4831C66.7037 52.3149 63.2736 54.8753 57.7985 56.115C52.635 57.2841 46.9925 57.4535 41.5846 57.3387C36.8525 57.2382 32.9005 51.8006 31.6471 49.2463C30.1492 46.1939 33.8479 42.4668 35.7151 39.9301C38.697 35.8791 42.8266 31.0482 50.3599 31.0482C54.5521 31.0482 58.359 30.6206 61.9246 32.3115C66.9192 34.6799 70.9253 37.9911 73.8961 41.5684C76.8789 45.1601 81.5166 50.9005 77.3249 54.7728C73.9223 57.9161 69.1115 60.7744 64.656 63.2205C61.1263 65.1583 57.2977 67.1808 52.7425 67.7996C44.6928 68.8932 38.5697 65.3855 35.9475 60.3388C33.9459 56.4866 31.2266 52.1831 31.0078 48.0226C30.8529 45.0757 33.0334 42.6925 34.5528 40.0091C36.6855 36.2425 43.3341 34.3312 48.2677 32.4694" stroke="black" stroke-width="62" stroke-linecap="round"/>
<path d="M50.6419 38.3079C53.2839 38.3079 55.165 37.335 57.9144 37.335C60.5299 37.335 62.7646 38.4373 64.9714 39.2807C67.1218 40.1026 68.4033 41.2166 69.0386 42.7038C69.8648 44.638 71.8107 47.3609 71.9745 49.3337C72.1659 51.638 71.2863 52.4451 69.0655 54.0178C66.281 55.9899 63.7058 57.8831 60.0961 59.2244C57.554 60.1691 55.5672 61.9042 52.4735 61.9809C50.7372 62.0239 48.9864 61.9809 47.2481 61.9809C44.8488 61.9809 45.0502 61.1291 43.6118 60.3594C42.3207 59.6685 41.3185 56.6482 40.7029 55.4951C39.405 53.0645 39.0059 51.2663 39.0059 48.6851C39.0059 45.6899 38.7984 43.4785 40.8375 40.9022C41.5584 39.9914 44.2982 37.8242 45.5781 37.335C47.8078 36.4828 49.2325 35.4727 51.854 35.083C53.0355 34.9074 54.5216 35.065 55.7327 35.065C57.6973 35.065 57.9169 35.7188 59.3689 36.2901C62.8027 37.6411 62.2779 40.5488 62.2779 42.8659C62.2779 46.8438 54.2278 52.2522 48.2178 52.2522" stroke="#4DFFAC" stroke-width="62" stroke-linecap="round"/>
<path d="M52.8159 33C54.5345 33.1036 56.9215 33.5518 58.2994 34.2302C61.3527 35.7336 64.2923 37.4281 66.2887 39.5612C67.4392 40.7905 68.5415 42.0157 69.6731 43.2518C72.2876 46.1077 70.7695 49.8473 67.4602 52.2302C63.8598 54.8227 60.1383 57.6362 55.159 59.0719C53.3182 59.6027 51.0322 60 49.0083 60C47.4107 60 46.6917 59.393 45.4286 58.8345C43.0778 57.7952 41.299 55.6118 39.9289 54.0216C37.9396 51.7128 37 49.4423 37 46.7914C37 44.4473 37.5433 42.8072 39.1153 40.6835C40.5079 38.8021 41.354 37.1281 43.9316 35.8273C45.6003 34.9853 48.8072 33.4168 51.0586 33.5827C53.3438 33.7511 52.2354 41.7643 52.2301 42.4101C52.2071 45.2015 51.3514 47.9172 51.3514 50.6763C51.3514 51.8266 52.1443 52.3737 50.4728 53.0072" stroke="#002AFF" stroke-width="46" stroke-linecap="round"/>
<path d="M49.5454 37.3064C51.238 36.7881 53.9345 37.0745 55.7805 37.1182C58.2255 37.176 61.1028 38.72 62.8351 39.7534C64.1125 40.5154 64.8918 41.4499 65.583 42.4723C67.0239 44.6033 68.015 47.8751 65.2295 49.6877C63.9075 50.548 62.4529 51.3064 61.1317 52.1661C60.272 52.7256 59.1878 53.5608 57.9981 53.8288C56.3362 54.2031 54.7504 55 52.8719 55C48.7758 55 46.2074 53.769 43.3425 51.9047C41.4726 50.6878 40 48.3556 40 46.6133C40 44.302 41.7194 41.5334 44.6281 40.0462C46.2995 39.1916 51.7659 36.4699 53.0808 38.7077C53.9136 40.1251 53.595 41.7255 53.595 43.2147C53.595 44.3648 53.6713 45.4835 53.3057 46.6133C53.0185 47.5011 53.274 48.3909 52.1487 48.9766" stroke="black" stroke-width="46" stroke-linecap="round"/>
<path d="M48.4533 41.7005C51.4688 41.7005 55.2732 42.382 56.7319 44.1568C57.1717 44.6919 58.6733 44.9584 58.72 45.7103C58.7908 46.8501 59.0899 48.3351 58.4919 49.4052C57.4216 51.3201 52.804 51.7145 50.2133 51.7145C47.4705 51.7145 46.1864 51.0698 45.2919 49.4052C44.5746 48.0706 43.444 46.7399 42.9452 45.3744C42.2345 43.4288 47.3175 41.7647 49.4637 41.0497C51.3884 40.4084 52.8698 40 55.0533 40C56.4471 40 57.6322 41.5395 58.5733 42.0784C61.1763 43.5688 64 45.9336 64 48.3135C64 51.2581 56.881 53.9818 52.8696 53.9818C52.0301 53.9818 50.1714 54.1095 49.6104 53.6879C49.0925 53.2987 48.5648 52.92 47.997 52.5543C44.7369 50.4543 42 48.8142 42 45.6683" stroke="#FB9600" stroke-width="46" stroke-linecap="round"/>
</svg>
