<svg width="139" height="163" viewBox="0 0 139 163" fill="none" xmlns="http://www.w3.org/2000/svg">
<path fill-rule="evenodd" clip-rule="evenodd" d="M113.055 86.4838C113.296 91.4761 113.345 96.1971 113.355 100.112C113.355 100.304 113.364 100.638 113.376 101.085C113.441 103.524 113.598 109.361 112.977 114.264C112.276 119.799 109.783 131.988 98.3496 138.053C88.9061 143.061 79.1801 143.72 71.9866 143.78C68.4901 143.809 65.8141 143.738 63.5402 143.677C60.1355 143.586 57.6323 143.52 54.6263 143.85C41.2238 145.324 30.1935 138.328 23.3593 130.131C16.6355 122.067 12.0354 110.667 12.7251 98.8048C13.5312 84.941 16.5453 69.701 23.926 56.7021C30.46 45.1944 40.2899 35.7699 53.7712 31.0662C57.0883 28.4721 60.1879 26.2473 62.6557 24.4997C69.307 19.7893 77.746 18.0915 84.7191 18.1891C90.6891 18.2727 99.5967 19.7598 106.738 26.159C108.103 26.7078 111.131 28.021 114.04 30.7774C117.37 33.9333 119.599 38.0338 120.596 42.5931C120.691 42.8062 120.871 43.2091 121.184 43.8732C121.212 43.9347 121.243 43.9999 121.276 44.0686C122.092 45.7997 123.978 49.7952 124.678 54.9122C125.07 57.7782 125.333 60.965 125.045 64.5272C124.756 68.0974 123.982 71.1939 123.119 73.9691C122.162 77.0462 119.433 83.2787 113.055 86.4838Z" fill="black"/>
<path fill-rule="evenodd" clip-rule="evenodd" d="M53.7771 40.9255C54.3532 40.4393 54.9764 39.9469 55.6419 39.4679C55.6606 39.4434 55.6798 39.4182 55.6999 39.3918C55.8025 39.257 55.9288 39.0911 56.1289 38.8306C56.7326 38.0447 57.9923 36.4066 59.6236 34.8158C61.2985 33.1825 63.9352 31.0181 67.6046 29.6257C67.6557 29.6002 67.8809 29.4904 68.4006 29.2084C68.4724 29.1694 68.5626 29.1199 68.6689 29.0616C69.3908 28.6654 70.8529 27.863 72.3092 27.2061C76.2288 25.4383 82.8995 23.361 90.8345 26.1868C91.4098 26.3916 91.7751 26.5055 92.3176 26.6746C92.7761 26.8175 93.361 26.9999 94.3062 27.3099C95.8447 27.8146 98.1298 28.606 100.515 29.8224C102.821 30.998 106.83 33.2895 110.319 36.8673C113.326 39.9511 120.576 49.0747 116.688 61.5717C115.628 64.9787 113.733 67.8389 111.323 69.9823C110.993 71.1139 110.659 72.0847 110.38 72.8624C109.572 75.1189 108.644 77.2434 108.017 78.6784C107.994 78.7314 107.971 78.7835 107.949 78.8346C107.189 80.5738 106.909 81.2461 106.768 81.6593C106.162 83.4292 105.52 85.0584 105.047 86.2567L105.031 86.2988C104.506 87.6288 104.187 88.4441 103.921 89.2136C103.677 89.9198 103.577 90.3169 103.531 90.54C103.493 90.7292 103.493 90.8007 103.492 90.8224L103.492 90.8237C103.449 99.9194 102.406 107.475 99.6458 116.346C97.1053 124.511 91.198 129.406 85.0576 131.346C80.0225 132.937 75.3124 132.444 72.7268 132.048C69.9318 131.62 67.2692 130.888 65.7106 130.459L65.6207 130.434C64.2808 130.066 63.7751 129.943 63.7133 129.92C54.496 128.81 46.3552 123.675 41.732 120.179C37.3594 116.872 32.9539 112.01 29.6144 106.725C26.6075 101.967 22.3393 93.534 23.1596 83.6469C23.7314 76.7558 25.8728 70.9169 28.7437 66.0026C29.2775 64.1132 29.8583 62.4248 30.3884 60.9813C33.1756 53.3907 38.8117 48.9867 41.7949 46.9372C45.2662 44.5524 48.8208 42.9245 51.0852 41.9714C51.9769 41.5961 52.8922 41.2457 53.7771 40.9255Z" fill="#002AFF"/>
<path fill-rule="evenodd" clip-rule="evenodd" d="M110.127 53.8547C111.818 58.7199 112.443 64.7133 110.443 71.1436C108.188 78.391 105.077 84.9679 101.601 90.8694C101.559 94.0172 101.126 96.6969 100.789 98.4572C100.179 101.644 99.3279 104.5 98.7835 106.25C98.2375 108.005 97.1822 111.223 94.9918 114.55C92.8383 117.822 90.3927 119.961 89.1885 121.002C86.7043 123.148 84.2428 124.297 83.1553 124.778C81.7631 125.393 80.429 125.845 79.3048 126.173C77.5006 126.699 74.3359 127.465 70.9021 127.419C68.4061 127.385 66.0693 127.073 64.8965 126.917C64.7955 126.903 64.7032 126.891 64.6201 126.88C63.5473 126.74 63.2278 126.716 63.1964 126.713C59.1022 126.742 56.0765 125.866 53.9796 125.138C53.9571 125.132 53.9327 125.126 53.9063 125.119C53.8794 125.112 53.8461 125.103 53.8068 125.093C53.4292 124.995 52.5058 124.756 51.5705 124.462C50.5188 124.131 48.7933 123.535 46.8797 122.519C44.9884 121.514 42.1992 119.727 39.636 116.65C35.8449 112.099 34.1673 107.032 33.44 104.622C32.8405 102.636 32.3008 100.275 32.0566 99.1865C26.8469 93.5415 24.7117 85.0817 27.1994 77.0859C28.2502 73.7086 29.7565 71.1474 30.9326 69.4338C31.7269 68.2765 32.5354 67.2801 33.0672 66.6484C34.5739 63.6893 36.2711 61.6467 37.1921 60.5842C37.6637 60.0401 38.2795 59.3719 38.4291 59.2095C38.4463 59.1909 38.4573 59.1789 38.4613 59.1745C38.4644 59.1711 38.4674 59.1678 38.4703 59.1646C41.3762 55.4985 44.7337 53.1478 46.9347 51.7978C48.9927 50.5355 51.0656 49.5308 52.9384 48.7679C53.0654 48.6762 53.1876 48.5889 53.3048 48.506C54.0567 47.974 54.904 47.4148 55.3533 47.1183C55.3602 47.1137 55.367 47.1092 55.3737 47.1048C55.4927 46.9421 55.6355 46.7454 55.8058 46.5088C55.8675 46.4232 55.9346 46.3297 56.0068 46.2292C56.6788 45.2932 57.791 43.7441 59.002 42.2556C61.2963 39.4356 67.1018 32.684 76.6217 30.8039C76.7013 30.7881 76.8046 30.7661 76.93 30.7394C78.8057 30.3393 85.6475 28.88 93.0434 31.5138C96.6706 32.8055 99.6502 34.9352 101.705 36.7963C102.876 37.8574 104.359 39.3808 105.757 41.4046C107.041 43.2628 109.098 46.7555 109.875 51.6353C109.997 52.3979 110.078 53.1398 110.127 53.8547Z" fill="#FEFC51"/>
<path fill-rule="evenodd" clip-rule="evenodd" d="M97.7722 92.7657C95.5293 99.3596 91.5308 108.532 83.1665 115.448C81.6133 116.732 80.1067 117.629 78.8497 118.258C77.6798 118.844 76.6192 119.25 75.7792 119.532C74.7357 120.293 73.0494 121.421 70.8806 122.364C68.863 123.241 64.9402 124.619 59.9764 124.063C51.6358 123.13 46.5594 117.692 44.2168 114.256C41.9389 110.915 40.8577 107.6 40.3346 105.703C40.331 105.69 40.3274 105.677 40.3237 105.664C37.6568 102.684 35.0396 98.5236 33.8462 92.9523C33.8314 92.9042 33.8145 92.8495 33.7953 92.7876C33.7883 92.765 33.7786 92.7344 33.7664 92.6962C33.5852 92.125 32.8628 89.8483 32.508 87.2153C32.0586 83.8804 32.0792 79.472 33.7664 74.7127C35.3872 70.1405 37.9891 66.8222 40.339 64.5307C42.0769 62.836 45.1672 60.0426 49.2302 57.9222C51.3171 56.8332 54.3982 55.5494 58.1268 55.0392C58.7614 54.4498 59.3186 53.9622 59.735 53.5997C59.9292 53.4306 60.0926 53.2887 60.2319 53.1677C60.2629 53.1204 60.2952 53.0713 60.3283 53.021C60.8038 50.2129 61.7984 47.5008 63.2918 45.0614C63.3092 45.0239 63.327 44.9856 63.3453 44.9468L63.3523 44.932C63.4331 44.7598 63.7979 43.983 64.3465 43.0606L64.358 43.0412C64.5641 42.6944 65.4055 41.2782 66.7757 39.7423C67.3821 39.0626 69.1489 37.1349 71.9777 35.5367C74.7084 33.9939 82.1566 30.8222 90.6094 35.2645C98.2923 39.3022 100.626 46.5401 101.22 48.6826C101.496 49.6804 101.679 50.6128 101.802 51.4361C101.855 51.5319 101.908 51.6285 101.96 51.7259C104.806 57.0301 104.979 62.1433 104.741 65.2041C104.691 65.8515 104.617 66.4677 104.531 67.0434C104.342 69.2043 103.947 70.9971 103.704 72.0154C103.146 74.3556 102.15 77.3237 102.294 76.861C101.805 78.4328 101.366 80.1113 100.756 82.4409C100.671 82.7658 100.583 83.1035 100.49 83.4553C99.805 86.0691 98.9187 89.395 97.7722 92.7657ZM62.1719 48.0216C62.1714 48.0234 62.1708 48.0251 62.1703 48.0269C62.1786 47.9995 62.1802 47.9947 62.1719 48.0216ZM43.4368 73.3609C43.4322 73.3761 43.4268 73.3931 43.4208 73.4121C43.472 73.2183 43.4892 73.1893 43.4368 73.3609ZM59.672 54.0161C59.6427 54.0581 59.6513 54.0428 59.6959 53.9812C59.6853 53.9968 59.6776 54.008 59.672 54.0161Z" fill="black"/>
<path fill-rule="evenodd" clip-rule="evenodd" d="M99.118 55.6568C99.6726 56.9702 102.302 63.1973 99.9525 70.7471L94.8287 87.2152C92.6019 94.3723 87.9244 100.083 85.9737 102.465C85.8097 102.665 85.6649 102.842 85.5426 102.994C82.1873 107.163 77.8954 110.055 75.9034 111.364C74.0959 112.553 72.3767 113.313 71.6727 113.624L71.6517 113.633C71.6477 113.635 71.6437 113.637 71.6398 113.638C71.0144 114.064 70.0532 114.667 68.8793 115.211C67.9977 115.62 66.503 116.232 64.5721 116.577C62.666 116.918 59.5098 117.145 55.8926 115.856C52.185 114.536 49.7458 112.275 48.4297 110.82C47.9538 110.294 47.5423 109.779 47.2016 109.322C46.5971 108.685 45.9828 107.978 45.385 107.205C45.275 107.063 45.1704 106.931 44.9765 106.688C44.9186 106.616 44.8527 106.533 44.7763 106.437C44.4972 106.086 44.0846 105.566 43.6496 104.984C42.8132 103.866 41.4933 101.999 40.3507 99.5802C40.3466 99.5715 40.3392 99.556 40.3286 99.5341C40.149 99.162 39.0732 96.9333 38.3095 94.4407C37.9429 93.2441 37.1866 90.5706 37.164 87.2772C37.1441 84.3695 37.7856 75.9952 45.3249 70.6625C45.3748 70.6217 45.4543 70.5563 45.5703 70.4596C45.5872 70.4455 45.6059 70.4299 45.6263 70.4128C45.7461 70.3128 45.9235 70.1648 46.1236 70.0005C46.1765 69.9452 46.2305 69.8895 46.2855 69.8335C47.1697 68.9326 48.6812 67.5609 50.8444 66.4135C51.7925 65.9106 52.6274 65.5622 53.2155 65.335C53.5235 65.2159 53.8138 65.1115 54.0417 65.0318C54.3544 64.8711 54.8046 64.6427 55.3089 64.4051C55.8575 64.1466 56.6388 63.7965 57.5534 63.4632C58.0205 63.2929 58.6545 63.0777 59.4174 62.8752C60.2428 60.4002 61.328 57.5633 62.6293 55.1647C62.7976 54.8543 62.9212 54.624 63.0271 54.4209C63.0921 54.2964 63.1415 54.1989 63.1791 54.1231C63.268 53.8182 63.411 53.3463 63.5945 52.8203C64.1005 51.3693 65.2668 48.4213 67.8194 45.586C68.6257 44.6905 70.1052 43.1958 72.2793 41.9155C74.483 40.6179 78.4072 38.9726 83.387 39.6968C94.308 41.2849 97.6013 51.3448 97.9998 52.5882C98.0974 52.8924 98.1853 53.1917 98.2647 53.4843C98.509 54.0383 98.7413 54.6329 98.9521 55.2676C98.9954 55.3673 99.0411 55.4739 99.0874 55.5842C99.0968 55.6064 99.107 55.6306 99.118 55.6568ZM58.0282 98.4146C58.0173 98.4098 58.01 98.4066 58.0076 98.4056L58.0068 98.4052C57.9741 98.391 57.9853 98.3962 58.0282 98.4146ZM96.7895 65.3324C96.7984 65.3009 96.7968 65.3078 96.786 65.3446L96.7895 65.3324ZM45.8669 107.307L45.8738 107.318C45.8634 107.301 45.8607 107.296 45.8669 107.307ZM73.2048 112.474C73.2157 112.465 73.212 112.468 73.196 112.481L73.2048 112.474Z" fill="#FF00A1"/>
<path fill-rule="evenodd" clip-rule="evenodd" d="M94.7988 77.1307C95.1699 76.2632 95.5717 75.1686 95.8984 73.8827C95.9948 73.5822 96.0872 73.29 96.1759 73.0068C96.1977 72.9461 96.2266 72.8655 96.2641 72.7614C96.402 72.3779 96.7105 71.5156 96.999 70.486C97.2667 69.5306 97.7112 67.7674 97.8632 65.5829C98.0029 63.5747 98.0316 59.4548 95.921 54.9862C95.2378 53.5395 93.0689 49.2904 88.1687 46.5496C81.7933 42.9837 75.2957 44.2885 71.0705 46.8603C67.7435 48.8853 65.915 51.5312 65.2841 52.486C64.4661 53.7239 63.9369 54.83 63.6508 55.4677C62.8199 57.32 61.9773 60.2899 62.4496 58.7719C61.878 60.609 61.5183 62.5777 61.3606 64.552C61.3442 64.5997 61.3279 64.6478 61.3117 64.6961C60.9317 65.8301 60.4365 66.8226 59.989 67.5293C53.3884 68.3023 47.5016 73.0408 45.2807 80.179C44.8203 81.6589 43.9641 84.8745 44.4177 88.9241C44.5238 89.8716 44.701 90.838 44.9542 91.8058C44.5786 93.8301 44.5146 95.9571 44.8104 98.1184C46.2101 108.347 55.1377 115.47 64.7508 114.029C68.9865 113.393 71.8601 111.282 72.5734 110.758L72.5899 110.746C73.7307 109.908 74.5937 109.08 75.0873 108.584C76.1065 107.559 76.9493 106.528 77.4718 105.865C78.5113 104.546 79.577 103.027 80.2368 101.959C80.346 101.782 80.4523 101.61 80.5558 101.442C82.6299 98.0825 83.5862 96.5335 84.4201 95.6073C89.6095 89.8433 92.7967 82.7153 94.7988 77.1307ZM67.1595 67.8912C67.1452 67.8904 67.1323 67.8897 67.1145 67.8886C67.2034 67.892 67.2247 67.8949 67.1595 67.8912ZM63.5109 60C63.511 59.9998 63.5084 60.0042 63.5027 60.0139C63.5079 60.005 63.5107 60.0002 63.5109 60ZM63.4264 59.1816C63.4266 59.1813 63.4241 59.1887 63.4184 59.2047C63.4235 59.1899 63.4263 59.1819 63.4264 59.1816Z" fill="white"/>
<path fill-rule="evenodd" clip-rule="evenodd" d="M94.9115 68.1612C94.5409 73.4704 93.4817 78.1602 92.0603 82.7286C91.5963 84.2202 90.7872 86.7739 89.6068 89.3476C88.5339 91.6867 86.4996 95.5452 82.9077 98.4648C80.3892 100.512 78.1771 102.82 75.2116 105.913C74.9285 106.209 74.6385 106.511 74.3407 106.821C74.3071 106.856 74.2602 106.906 74.2022 106.967C73.8659 107.321 73.1578 108.066 72.513 108.67C71.6926 109.439 70.151 110.791 67.9918 111.816C65.5803 112.96 62.7442 113.537 59.6839 113.124C56.8442 112.74 54.5483 111.603 52.8939 110.546C48.907 107.998 47.0803 104.195 46.2886 101.586C45.5059 99.0058 45.4067 96.6233 45.463 94.9512C45.5638 91.9552 46.2947 88.1459 48.113 84.9125C50.0646 81.4421 52.604 78.3422 54.4506 76.2251C55.4609 75.0669 56.607 73.9474 57.2656 73.3042C57.3764 73.1961 57.4734 73.1014 57.5536 73.0222C57.9182 72.6624 58.1491 72.4265 58.3243 72.2362C58.4818 72.0651 58.5392 71.9898 58.5394 71.9896L58.5387 71.9906C59.823 70.2654 61.188 69.0696 62.0075 68.3932C62.0999 68.3169 62.1911 68.2426 62.28 68.1711C62.6066 66.9036 62.7191 65.9626 62.7367 64.9292C62.773 62.8032 63.2647 61.0947 63.4013 60.6203L63.4071 60.6003C63.6354 59.8064 63.8997 59.0752 64.1468 58.4571C64.626 57.2587 65.3091 55.8162 66.1956 54.4092C66.2041 54.3958 66.213 54.3816 66.2225 54.3665C66.7407 53.5425 68.8007 50.2672 72.6049 48.3967C75.0678 47.1858 79.1673 46.1737 83.6411 48.1704C87.6788 49.9724 89.7398 53.2349 90.6684 55.1535C90.6916 55.1939 90.7314 55.2631 90.7939 55.3705C90.8012 55.3829 90.8109 55.3994 90.823 55.4199C91.0056 55.7296 91.7204 56.9421 92.2859 58.4314C92.3613 58.6299 92.4337 58.8314 92.5028 59.0357C94.2254 61.5957 95.1473 64.7849 94.9115 68.1612ZM63.8227 66.9683C63.823 66.9682 63.816 66.9744 63.8008 66.987C63.8148 66.9747 63.8224 66.9684 63.8227 66.9683Z" fill="#FF0000"/>
</svg>
