<svg width="140" height="112" viewBox="0 0 140 112" fill="none" xmlns="http://www.w3.org/2000/svg">
<path d="M87.5308 33.1341C83.8527 32.9319 80.2645 31.4715 76.583 31.2203C66.0787 30.5035 56.4573 31.7621 47.8997 38.1894C43.0431 41.837 38.3467 46.3382 40.5646 52.922C42.0171 57.2337 43.548 60.1666 46.1115 63.9715C52.43 73.3496 64.2196 76.032 74.9773 76.032C81.5028 76.032 86.5849 76.3448 92.4208 73.2877C96.4744 71.1642 100.555 67.5311 100.668 62.5993C100.734 59.7357 101.553 54.9851 100.34 52.3443C98.706 48.7879 94.7437 46.0267 91.9829 43.3891C89.2401 40.7688 84.9081 40.585 81.2905 40.3199C76.993 40.0049 73.0905 39.639 69.8318 42.5947C68.6647 43.6533 68.6042 49.2623 69.2844 50.6832C70.6422 53.5196 75.2531 54.5643 78.0427 55.558C82.295 57.0728 89.4441 58.0561 91.9829 53.2831C94.452 48.6411 82.9817 43.9871 80.3052 42.8836" stroke="black" stroke-width="62" stroke-linecap="round"/>
<path d="M81.4781 60.836C75.5731 60.836 65.0059 62.9814 61.3467 56.815C59.1511 53.1149 51.0577 52.8643 54.1354 46.7625C57.3432 40.4028 69.0512 41.4011 74.8678 41.4011C78.2661 41.4011 81.5912 43.1514 84.0321 45.5711C86.4442 47.9621 87.065 50.4317 88.5767 53.1291C89.7859 55.2865 90.9757 65.1223 89.065 67.0164C85.9835 70.0711 79.1919 68.878 75.0556 68.878C72.6403 68.878 68.3231 69.6753 66.2669 68.5429C63.3351 66.9283 61.9753 65.508 59.6941 62.9954C56.7818 59.7877 53.3477 57.8694 50.68 54.4694C49.2268 52.6173 46.9993 51.7877 46.9993 49.1081C46.9993 45.4245 49.4263 46.4358 51.0556 44.4169C51.6222 43.7148 56.4759 42.403 57.5157 42.1085C59.3696 41.5834 60.1789 39.4603 61.8725 38.5715C65.6014 36.6146 74.2606 36.0796 77.1213 39.7257C78.7028 41.7414 80.0759 43.9576 81.8537 45.72C82.7887 46.6468 84.2742 46.9379 85.0087 48.1028C85.5483 48.9587 87.391 51.4497 88.2387 51.9749C91.6702 54.1009 94.9993 57.0447 94.9993 61.1711C94.9993 63.2092 94.2627 65.5751 92.6331 66.8675C91.7607 67.5593 91.554 68.6904 90.2669 69.3992C89.1749 70.0006 87.2501 70.3321 86.3608 71.0374C83.3503 73.4248 75.5993 70.8966 72.3514 70.1811C68.3063 69.29 61.8596 64.8186 60.5204 60.836" stroke="#FB9600" stroke-width="62" stroke-linecap="round"/>
<path d="M86.7007 70.8647C86.7007 72.8465 85.7268 73.1789 83.7221 73.5319C81.9788 73.8388 78.7803 74.5791 77.1576 73.3827C75.7693 72.3591 74.2488 71.7327 72.8698 70.6782C69.968 68.4595 65.9072 67.9328 62.8713 65.6423C60.259 63.6714 57.5339 61.5655 55.6238 58.8531C54.1518 56.7629 52.2087 54.6099 52.2087 51.896C52.2087 49.646 53.1374 46.6094 54.5992 44.8644C56.6426 42.4251 60.1368 42.2916 62.7954 40.9848C65.2168 39.7946 67.4697 39.9776 70.1188 39.9776C71.6227 39.9776 74.3506 39.4969 75.6208 40.5185C77.0307 41.6526 78.5619 42.7198 79.8517 43.9877C82.2882 46.3831 84.8843 48.7034 86.7197 51.5603C88.7199 54.6737 90.6154 57.5109 92.5063 60.5317C93.4356 62.0162 94.2461 64.8936 93.8534 66.6308C93.4143 68.5732 90.282 70.4345 88.579 71.0512C84.7876 72.4245 81.4123 70.9051 77.8406 69.6897C71.9848 67.697 69.284 63.5712 69.284 57.7153C69.284 56.4665 69.0832 55.0963 70.0429 54.1529C70.1253 54.0719 67.141 53.0673 66.7417 52.9219C63.4542 51.7249 59.5778 49.5556 55.9653 49.3781C55.0754 49.3343 54.7655 49.6577 54.068 50.0495C53.0654 50.6127 51.8156 50.3852 50.6909 50.3852C49.9326 50.3852 48.9914 49.8741 48.3004 50.0682C47.4845 50.2973 47.9876 51.3924 46.9154 51.3924C45.1478 51.3924 46.4415 48.0218 46.6687 47.2891C47.0813 45.9586 48.6599 45.5298 49.6284 44.6779C51.7994 42.7682 54.9045 41.7674 57.4831 40.4999C62.5197 38.0242 67.4005 34.8829 73.401 36.4711C77.6736 37.602 79.4001 40.7527 82.1853 43.5961C84.2672 45.7215 86.0824 48.1763 87.7253 50.6464C88.7652 52.21 88.9792 53.7649 88.4083 55.589C87.1945 59.4671 79.5829 59.5793 76.5315 59.4126C71.9796 59.164 70.6739 55.3343 68.7907 51.896C67.7941 50.0765 70.8923 50.7105 71.8263 50.721C77.0359 50.7792 82.2762 52.9076 87.4217 53.7425C90.5454 54.2494 93.042 54.7663 94.4795 57.4356C95.289 58.9389 95.9214 59.1902 95.9214 61.1286C95.9214 63.0322 96.3394 65.2123 95.2384 66.836" stroke="black" stroke-width="46" stroke-linecap="round"/>
<path d="M85.6681 65.7494C81.8576 65.7494 77.4235 66.3877 73.8155 65.0899C69.9725 63.7075 67.7627 59.2944 64.5186 57.0292C62.7173 55.7713 60.8322 54.3537 59.1665 53.0721C58.4365 52.5104 55.8289 51.9397 56.4996 50.7455C58.8906 46.4882 65.1903 43.3091 69.8153 42.2634C72.2603 41.7105 73.0581 42.1938 74.8526 43.6557C78.6045 46.7121 82.6018 49.5259 86.0385 52.9255C87.8358 54.7034 93.2235 61.2647 89.9832 63.9358C87.9798 65.5872 85.4427 66.6853 83.3161 68.2226C82.1472 69.0676 80.5319 70.1204 79.001 70.0363C77.3651 69.9464 75.2954 65.7383 74.3341 64.7602C72.9413 63.343 71.7134 61.787 70.4079 60.2901C69.1413 58.8379 67.3723 57.8735 66.0002 56.5162C64.7948 55.3238 63.3293 54.1797 61.9259 53.2186C60.8844 52.5054 59.7365 52.3232 58.6849 51.7164C57.2324 50.8782 55.8276 49.7879 54.3328 49.0051C53.8567 48.7557 53.3887 48.2723 52.8327 48.2723C52.2223 48.2723 51.2766 48.4912 50.9993 47.9425" stroke="#002AFF" stroke-width="46" stroke-linecap="round"/>
<path d="M74.2813 53.953C76.1791 53.953 80.327 54.8738 80.327 51.9377C80.327 50.7337 79.8664 50.4615 78.5637 50.4263C77.3681 50.394 75.1597 49.9985 74.1694 50.7342C72.9304 51.6546 68.1603 54.7682 71.0066 56.5979C72.2505 57.3976 73.1551 57.7357 74.6452 58.0954C75.9176 58.4025 77.3478 58.2353 78.6477 58.2353C79.7451 58.2353 81.4286 58.574 82.4542 58.0954C85.1496 56.8375 85.2387 52.1668 83.9096 49.8665C82.8434 48.0211 81.7572 45.7583 79.9492 44.5065C79.011 43.8571 78.0768 43.8768 76.9683 43.8768C74.3137 43.8768 71.6438 43.7888 68.9913 43.8908C67.4901 43.9485 65.6488 43.8929 64.4431 44.9264C62.9959 46.1668 61.868 47.8385 61.1263 49.5866C60.4229 51.2447 60.1747 52.7989 60.1747 54.5827C60.1747 55.9855 61.2575 57.2592 61.938 58.4312C66.0589 65.5283 77.3515 65.5405 84.3575 65.5405C87.6673 65.5405 90.6576 64.4887 93.1741 62.2518C94.8128 60.7952 94.9521 58.2121 95.3153 56.1781C95.7067 53.9861 95.7839 51.0306 94.4896 49.1668C93.1361 47.2177 91.3749 45.7141 89.3396 44.3806C86.3711 42.4357 82.1373 41.3647 78.6896 40.8539C74.1959 40.1882 69.6641 39.7975 65.1008 40.1122C63.068 40.2524 60.8839 40.8096 58.9152 41.3018C56.698 41.8561 54.9788 43.7839 53.3173 45.2483C51.6375 46.7288 50.2359 49.0563 49.7906 51.238C49.6128 52.1097 49.0373 55.4826 49.6507 56.1641C52.8738 59.7453 56.4585 62.7684 60.0907 65.9604C64.2711 69.634 69.9837 74.0672 75.7787 74.3432C77.6142 74.4306 79.4696 74.3572 81.3066 74.3572C83.4416 74.3572 85.3471 73.6598 87.4083 73.2096C91.9888 72.2093 96.4634 69.3928 100.255 66.7161C102.793 64.9246 105.5 62.3147 106.385 59.2569C107.327 56.0035 108.01 51.5808 106.651 48.3411C105.712 46.1031 103.295 44.1979 101.487 42.6732C99.8752 41.3143 98.0625 40.1238 96.197 39.1466C92.1219 37.012 87.59 37.1071 83.1539 36.5156C76.2486 35.5949 69.4831 37.3273 62.5958 37.3273C59.4137 37.3273 57.0069 38.698 54.185 39.7903C52.5449 40.4252 47.5948 41.4315 47.3136 43.5409C46.6995 48.1468 46.0681 52.6576 46.0681 57.3257C46.0681 61.8942 45.9675 65.2029 48.937 68.9972C53.2108 74.4582 59.3178 79.9839 66.1084 81.9703C69.2251 82.8819 72.4533 83.3842 75.5968 84.1954C78.4413 84.9295 81.3506 85.6668 84.3015 85.6929C86.1228 85.709 88.001 85.8134 89.7314 85.1331C90.9039 84.6721 92.0175 83.8573 93.0062 83.0899C96.7464 80.1867 100.036 76.3886 103.068 72.7758C105.242 70.1856 106.326 66.6497 107.869 63.6653C109.005 61.4668 109.531 59.2683 110.038 56.8638C111.077 51.9287 110.59 45.4398 108.232 40.9659C106.986 38.6002 104.292 36.674 102.299 34.9902C99.916 32.9772 97.2398 31.044 94.4057 29.7142C85.5329 25.5508 75.6037 22.9688 65.7726 22.9688C63.2652 22.9688 61.1325 24.2479 59.0691 25.5997C56.288 27.4218 53.7288 29.5364 50.9802 31.3935C49.2976 32.5304 47.4094 33.4445 45.8162 34.6963C44.5447 35.6953 43.4361 37.1135 41.9116 37.8171C39.5333 38.9148 36.9995 42.4729 36.9995 45.1363C36.9995 47.3828 38.5026 49.8411 38.8188 52.1336C39.6408 58.0927 42.7734 63.0789 46.32 67.8077" stroke="#F7DFBC" stroke-linecap="round"/>
<path d="M9.91039 42.253C9.91039 49.2489 13.9502 56.0993 16.2472 62.5308C17.2392 65.3084 19.0622 67.5651 20.7816 69.9097C23.2421 73.265 25.3951 77.009 27.6535 80.4992C33.3192 89.2553 41.5689 94.0886 50.6913 98.9182C64.0815 106.007 79.375 107.142 94.2887 107.142C99.3875 107.142 104.739 103.804 108.737 100.805C113.479 97.2484 118.049 93.577 122.227 89.3989C125.407 86.2187 126.943 82.2135 129.324 78.4714C132.763 73.0676 132.98 66.4883 135.013 60.6157C136.714 55.7026 135.633 49.2597 135.633 44.0273C135.633 41.5618 134.675 39.9769 133.323 37.8876C130.794 33.9776 128.29 30.6554 124.762 27.5797C121.232 24.5027 118.298 20.692 114.229 18.3139C109.796 15.7235 104.957 11.9917 99.7524 11.3293C96.7833 10.9514 93.83 10.9527 90.8527 10.7097C80.5044 9.86491 69.5988 9.72084 59.2531 10.5689C47.4713 11.5346 36.3532 9.73687 25.2314 14.3709C16.9114 17.8376 11.0403 23.7724 6.30544 31.2128C4.74104 33.6711 3.09218 36.5812 4.58746 39.2394C6.09536 41.9202 5.96744 47.3787 8.8965 48.8432" stroke="#F7DFBC" stroke-width="8" stroke-linecap="round"/>
</svg>
