<svg width="249" height="153" viewBox="0 0 249 153" fill="none" xmlns="http://www.w3.org/2000/svg">
<path fill-rule="evenodd" clip-rule="evenodd" d="M203.53 76.4838C203.963 81.4761 204.051 86.1971 204.069 90.1123C204.07 90.3043 204.086 90.6376 204.107 91.0854C204.225 93.5245 204.506 99.3611 203.388 104.264C202.127 109.799 197.639 121.988 177.056 128.053C160.055 133.061 142.546 133.72 129.595 133.78C123.301 133.809 118.483 133.738 114.389 133.677C108.26 133.586 103.754 133.52 98.342 133.85C74.214 135.324 54.3564 128.328 42.053 120.131C29.9485 112.067 21.667 100.667 22.9087 88.8048C24.3599 74.941 29.7861 59.701 43.0733 46.7021C54.8363 35.1944 72.5327 25.7699 96.8027 21.0662C102.774 18.4721 108.355 16.2473 112.797 14.4997C124.771 9.78927 139.964 8.09154 152.517 8.18913C163.265 8.27267 179.301 9.75985 192.157 16.159C194.614 16.7078 200.065 18.021 205.302 20.7774C211.297 23.9333 215.31 28.0338 217.105 32.5931C217.276 32.8062 217.601 33.2091 218.163 33.8732C218.215 33.9347 218.27 33.9999 218.329 34.0686C219.799 35.7997 223.193 39.7952 224.454 44.9122C225.16 47.7782 225.634 50.965 225.115 54.5272C224.595 58.0974 223.202 61.1938 221.647 63.9691C219.924 67.0462 215.011 73.2787 203.53 76.4838Z" fill="black"/>
<path fill-rule="evenodd" clip-rule="evenodd" d="M96.8132 30.9255C97.8503 30.4393 98.9723 29.9469 100.17 29.4679C100.204 29.4434 100.238 29.4182 100.275 29.3918C100.459 29.257 100.687 29.0911 101.047 28.8306C102.134 28.0447 104.402 26.4066 107.339 24.8158C110.354 23.1825 115.1 21.0181 121.706 19.6257C121.798 19.6002 122.204 19.4904 123.139 19.2084C123.269 19.1694 123.431 19.1199 123.622 19.0616C124.922 18.6654 127.554 17.8629 130.176 17.2061C137.232 15.4383 149.241 13.361 163.526 16.1868C164.562 16.3916 165.22 16.5055 166.196 16.6746C167.022 16.8175 168.075 16.9999 169.776 17.3099C172.546 17.8146 176.66 18.606 180.955 19.8224C185.105 20.998 192.323 23.2895 198.604 26.8673C204.018 29.9511 217.069 39.0747 210.069 51.5717C208.161 54.9787 204.749 57.8389 200.412 59.9823C199.816 61.1139 199.215 62.0847 198.714 62.8624C197.259 65.1189 195.588 67.2434 194.459 68.6784C194.418 68.7314 194.377 68.7835 194.336 68.8346C192.969 70.5738 192.465 71.2461 192.211 71.6593C191.12 73.4292 189.964 75.0584 189.113 76.2567L189.084 76.2988C188.14 77.6288 187.564 78.4441 187.086 79.2136C186.647 79.9198 186.466 80.3169 186.384 80.54C186.315 80.7292 186.314 80.8007 186.314 80.8224L186.314 80.8237C186.235 89.9194 184.358 97.4749 179.389 106.346C174.816 114.511 164.181 119.406 153.127 121.346C144.062 122.937 135.582 122.444 130.928 122.048C125.896 121.62 121.103 120.888 118.297 120.459L118.135 120.434C115.723 120.066 114.812 119.943 114.701 119.92C98.1073 118.81 83.4517 113.675 75.1289 110.179C67.257 106.872 59.3258 102.01 53.3138 96.7253C47.9006 91.9669 40.2167 83.534 41.6936 73.6469C42.7229 66.7558 46.5779 60.9169 51.7463 56.0026C52.7074 54.1132 53.753 52.4248 54.7072 50.9813C59.7249 43.3907 69.8715 38.9867 75.2421 36.9372C81.4913 34.5524 87.8904 32.9245 91.9671 31.9714C93.5723 31.5961 95.2201 31.2457 96.8132 30.9255Z" fill="#002AFF"/>
<path fill-rule="evenodd" clip-rule="evenodd" d="M198.258 43.8547C201.302 48.7199 202.428 54.7133 198.827 61.1436C194.767 68.391 189.166 74.9679 182.909 80.8694C182.834 84.0172 182.053 86.6969 181.447 88.4572C180.35 91.644 178.817 94.4999 177.837 96.2498C176.854 98.0046 174.954 101.223 171.011 104.55C167.134 107.822 162.731 109.961 160.563 111.002C156.091 113.148 151.66 114.297 149.702 114.778C147.195 115.393 144.794 115.845 142.77 116.173C139.522 116.699 133.825 117.465 127.643 117.419C123.149 117.385 118.942 117.073 116.831 116.917C116.649 116.903 116.483 116.891 116.333 116.88C114.402 116.74 113.827 116.716 113.77 116.713C106.4 116.742 100.953 115.866 97.1776 115.138C97.1371 115.132 97.0932 115.126 97.0457 115.119C96.9973 115.112 96.9373 115.103 96.8667 115.093C96.1869 114.995 94.5245 114.756 92.8406 114.462C90.9473 114.131 87.8409 113.535 84.396 112.519C80.991 111.514 75.9698 109.727 71.3553 106.65C64.5303 102.099 61.5102 97.0319 60.2009 94.6222C59.1216 92.6358 58.15 90.2752 57.7104 89.1865C48.3316 83.5415 44.4875 75.0817 48.9661 67.0859C50.8578 63.7086 53.5696 61.1474 55.6869 59.4338C57.1169 58.2765 58.5723 57.2801 59.5298 56.6484C62.2422 53.6893 65.2976 51.6467 66.9556 50.5842C67.8048 50.0401 68.9132 49.3719 69.1826 49.2095C69.2135 49.1909 69.2334 49.1789 69.2405 49.1745C69.2461 49.1711 69.2515 49.1678 69.2568 49.1646C74.4882 45.4985 80.5326 43.1478 84.495 41.7978C88.1999 40.5355 91.9317 39.5308 95.3033 38.7679C95.5318 38.6762 95.7519 38.5889 95.9629 38.506C97.3166 37.974 98.8418 37.4148 99.6507 37.1183C99.6631 37.1137 99.6754 37.1092 99.6875 37.1048C99.9017 36.9421 100.159 36.7454 100.465 36.5088C100.576 36.4232 100.697 36.3297 100.827 36.2292C102.037 35.2932 104.039 33.7441 106.219 32.2556C110.35 29.4356 120.801 22.684 137.939 20.8039C138.083 20.7881 138.269 20.7661 138.494 20.7394C141.871 20.3393 154.188 18.88 167.503 21.5138C174.033 22.8055 179.397 24.9352 183.096 26.7963C185.205 27.8574 187.875 29.3808 190.391 31.4046C192.702 33.2628 196.406 36.7555 197.805 41.6353C198.024 42.3979 198.17 43.1398 198.258 43.8547Z" fill="#FEFC51"/>
<path fill-rule="evenodd" clip-rule="evenodd" d="M176.016 82.7657C171.978 89.3596 164.78 98.5319 149.722 105.448C146.926 106.732 144.213 107.629 141.95 108.258C139.844 108.844 137.935 109.25 136.423 109.532C134.544 110.293 131.508 111.421 127.604 112.364C123.972 113.241 116.91 114.619 107.974 114.063C92.9582 113.13 83.8193 107.692 79.6021 104.256C75.5013 100.915 73.5548 97.5999 72.6131 95.7033C72.6066 95.6901 72.6 95.6769 72.5935 95.6637C67.7923 92.6843 63.0806 88.5236 60.9322 82.9523C60.9056 82.9042 60.8752 82.8495 60.8406 82.7876C60.8279 82.765 60.8105 82.7344 60.7886 82.6962C60.4623 82.125 59.1618 79.8483 58.523 77.2153C57.714 73.8804 57.7512 69.472 60.7885 64.7127C63.7064 60.1405 68.3906 56.8222 72.6209 54.5307C75.7496 52.836 81.313 50.0426 88.6276 47.9222C92.3845 46.8332 97.9313 45.5494 104.644 45.0392C105.786 44.4498 106.789 43.9622 107.539 43.5997C107.889 43.4306 108.183 43.2887 108.434 43.1677C108.489 43.1204 108.547 43.0713 108.607 43.021C109.463 40.2129 111.254 37.5008 113.942 35.0614C113.973 35.0239 114.006 34.9856 114.038 34.9468L114.051 34.932C114.197 34.7598 114.853 33.983 115.841 33.0606L115.862 33.0412C116.233 32.6944 117.747 31.2782 120.214 29.7423C121.306 29.0626 124.487 27.1349 129.579 25.5367C134.495 23.9939 147.904 20.8222 163.121 25.2645C176.952 29.3022 181.155 36.5401 182.222 38.6826C182.72 39.6804 183.05 40.6128 183.271 41.4361C183.367 41.5319 183.462 41.6285 183.556 41.7259C188.679 47.0301 188.99 52.1433 188.562 55.2041C188.471 55.8515 188.339 56.4677 188.183 57.0434C187.843 59.2043 187.133 60.9971 186.695 62.0154C185.69 64.3556 183.897 67.3237 184.156 66.861C183.276 68.4328 182.485 70.1113 181.388 72.4409C181.235 72.7658 181.076 73.1035 180.91 73.4553C179.676 76.0691 178.08 79.395 176.016 82.7657ZM111.926 38.0216C111.925 38.0234 111.924 38.0251 111.923 38.0269C111.938 37.9995 111.941 37.9947 111.926 38.0216ZM78.1979 63.3609C78.1895 63.3761 78.1799 63.3931 78.1691 63.4121C78.2613 63.2183 78.2921 63.1893 78.1979 63.3609ZM107.426 44.0161C107.373 44.0581 107.388 44.0428 107.469 43.9812C107.45 43.9968 107.436 44.008 107.426 44.0161Z" fill="black"/>
<path fill-rule="evenodd" clip-rule="evenodd" d="M178.439 45.6568C179.437 46.9702 184.17 53.1973 179.941 60.7471L170.717 77.2152C166.708 84.3723 158.287 90.0834 154.776 92.4651C154.48 92.6653 154.22 92.842 153.999 92.9941C147.959 97.163 140.232 100.055 136.646 101.365C133.392 102.553 130.297 103.313 129.03 103.624L128.992 103.633C128.985 103.635 128.978 103.637 128.971 103.638C127.845 104.064 126.114 104.667 124.001 105.211C122.414 105.62 119.723 106.232 116.247 106.577C112.815 106.918 107.133 107.145 100.621 105.856C93.9468 104.536 89.5556 102.275 87.1864 100.82C86.3295 100.294 85.5888 99.7794 84.9754 99.3221C83.8872 98.6846 82.7812 97.9783 81.7051 97.2051C81.5069 97.0627 81.3187 96.9315 80.9697 96.6883C80.8654 96.6156 80.7468 96.533 80.6092 96.437C80.1068 96.0865 79.364 95.5663 78.5809 94.9844C77.075 93.8657 74.6989 91.9993 72.642 89.5802C72.6346 89.5715 72.6212 89.556 72.6021 89.5341C72.2787 89.162 70.3421 86.9333 68.9672 84.4407C68.3072 83.2441 66.9457 80.5706 66.9051 77.2772C66.8692 74.3695 68.0242 65.9952 81.5968 60.6625C81.6866 60.6217 81.8299 60.5563 82.0385 60.4596C82.069 60.4455 82.1027 60.4299 82.1395 60.4128C82.3551 60.3128 82.6744 60.1648 83.0347 60.0005C83.13 59.9452 83.2272 59.8895 83.3262 59.8335C84.9181 58.9326 87.6391 57.5609 91.5335 56.4135C93.2402 55.9106 94.7433 55.5622 95.802 55.335C96.3565 55.2159 96.8792 55.1115 97.2895 55.0318C97.8523 54.8711 98.6628 54.6427 99.5706 54.4051C100.558 54.1466 101.965 53.7965 103.611 53.4632C104.452 53.2929 105.594 53.0777 106.967 52.8752C108.453 50.4002 110.407 47.5633 112.749 45.1647C113.052 44.8543 113.275 44.624 113.466 44.4209C113.582 44.2964 113.672 44.1989 113.739 44.1231C113.899 43.8182 114.157 43.3463 114.487 42.8203C115.398 41.3693 117.498 38.4213 122.093 35.586C123.544 34.6905 126.208 33.1958 130.122 31.9155C134.089 30.6179 141.154 28.9726 150.119 29.6968C169.78 31.2849 175.708 41.3448 176.426 42.5882C176.601 42.8924 176.76 43.1917 176.903 43.4843C177.342 44.0383 177.761 44.6329 178.14 45.2676C178.218 45.3673 178.3 45.4739 178.384 45.5842C178.401 45.6064 178.419 45.6307 178.439 45.6568ZM104.466 88.4146C104.446 88.4098 104.433 88.4066 104.429 88.4056L104.428 88.4052C104.369 88.391 104.389 88.3962 104.466 88.4146ZM174.247 55.3324C174.263 55.3009 174.26 55.3078 174.241 55.3446L174.247 55.3324ZM82.5727 97.3067L82.5851 97.3182C82.5664 97.301 82.5613 97.2962 82.5727 97.3067ZM131.788 102.474C131.808 102.465 131.801 102.468 131.772 102.481L131.788 102.474Z" fill="#FF00A1"/>
<path fill-rule="evenodd" clip-rule="evenodd" d="M170.663 67.1307C171.331 66.2632 172.055 65.1686 172.643 63.8827C172.816 63.5822 172.983 63.29 173.142 63.0068C173.182 62.9461 173.234 62.8655 173.301 62.7614C173.549 62.3779 174.105 61.5156 174.624 60.486C175.106 59.5306 175.906 57.7674 176.18 55.5829C176.431 53.5747 176.483 49.4548 172.683 44.9862C171.453 43.5395 167.549 39.2904 158.727 36.5496C147.25 32.9837 135.552 34.2885 127.946 36.8603C121.956 38.8853 118.665 41.5312 117.529 42.486C116.056 43.7239 115.103 44.83 114.588 45.4677C113.093 47.32 111.576 50.2899 112.426 48.7719C111.397 50.609 110.749 52.5777 110.465 54.552C110.436 54.5997 110.407 54.6478 110.377 54.6961C109.693 55.8301 108.802 56.8226 107.996 57.5293C96.1134 58.3023 85.5156 63.0408 81.5173 70.179C80.6884 71.6589 79.1471 74.8745 79.9636 78.9241C80.1546 79.8716 80.4737 80.838 80.9295 81.8058C80.2533 83.8301 80.1381 85.9571 80.6705 88.1184C83.1904 98.3472 99.2625 105.47 116.569 104.029C124.194 103.393 129.367 101.282 130.651 100.758L130.681 100.746C132.735 99.9079 134.289 99.0796 135.177 98.5835C137.012 97.5594 138.529 96.5276 139.47 95.8648C141.341 94.546 143.26 93.0275 144.448 91.9591C144.644 91.7822 144.836 91.61 145.022 91.4422C148.756 88.0825 150.477 86.5335 151.979 85.6073C161.321 79.8433 167.059 72.7153 170.663 67.1307ZM120.905 57.8912C120.879 57.8904 120.856 57.8897 120.824 57.8886C120.984 57.892 121.022 57.8949 120.905 57.8912ZM114.336 50C114.337 49.9998 114.332 50.0042 114.322 50.0139C114.331 50.005 114.336 50.0002 114.336 50ZM114.184 49.1816C114.185 49.1813 114.18 49.1887 114.17 49.2047C114.179 49.1899 114.184 49.1819 114.184 49.1816Z" fill="white"/>
<path fill-rule="evenodd" clip-rule="evenodd" d="M170.866 58.1612C170.199 63.4704 168.292 68.1602 165.733 72.7286C164.898 74.2202 163.441 76.7739 161.316 79.3476C159.385 81.6867 155.722 85.5452 149.256 88.4648C144.722 90.512 140.74 92.8196 135.401 95.9132C134.891 96.2086 134.369 96.5111 133.833 96.8213C133.773 96.8563 133.688 96.9057 133.584 96.9667C132.978 97.3208 131.704 98.0663 130.543 98.6702C129.066 99.4385 126.29 100.791 122.403 101.816C118.062 102.96 112.956 103.537 107.447 103.124C102.335 102.74 98.2015 101.603 95.2231 100.546C88.0457 97.9981 84.757 94.1952 83.3318 91.5857C81.9227 89.0058 81.7441 86.6233 81.8454 84.9512C82.027 81.9552 83.3429 78.1459 86.6163 74.9125C90.1295 71.4421 94.7012 68.3422 98.0257 66.2251C99.8443 65.0669 101.908 63.9474 103.093 63.3042C103.293 63.1961 103.467 63.1014 103.612 63.0222C104.268 62.6624 104.684 62.4265 104.999 62.2362C105.283 62.0651 105.387 61.9896 105.387 61.9896L105.385 61.9906C107.697 60.2654 110.155 59.0696 111.63 58.3932C111.796 58.3169 111.961 58.2426 112.121 58.1711C112.709 56.9036 112.911 55.9626 112.943 54.9292C113.008 52.8032 113.893 51.0947 114.139 50.6203L114.15 50.6003C114.561 49.8064 115.037 49.0752 115.481 48.4571C116.344 47.2587 117.574 45.8162 119.17 44.4092C119.185 44.3958 119.201 44.3816 119.218 44.3665C120.151 43.5425 123.86 40.2672 130.708 38.3967C135.142 37.1858 142.522 36.1737 150.576 38.1704C157.845 39.9724 161.556 43.2349 163.227 45.1535C163.269 45.1939 163.341 45.2631 163.453 45.3705C163.466 45.3829 163.484 45.3994 163.506 45.4199C163.834 45.7296 165.121 46.9421 166.139 48.4314C166.275 48.6299 166.405 48.8314 166.53 49.0357C169.631 51.5957 171.29 54.7849 170.866 58.1612ZM114.898 56.9683C114.898 56.9683 114.886 56.9744 114.858 56.987C114.884 56.9747 114.898 56.9683 114.898 56.9683Z" fill="#FF0000"/>
</svg>
