<svg width="141" height="129" viewBox="0 0 141 129" fill="none" xmlns="http://www.w3.org/2000/svg">
<path d="M33.2661 78.4359C36.0758 91.0794 61.0793 95.5614 71.0952 97.3141C89.939 100.612 111.371 91.9635 108.997 70.5942C108.319 64.4882 102.261 61.0952 97.8878 57.815C92.9423 54.1059 90.1832 48.6006 84.2374 46.0524C79.9184 44.2014 70.1776 44.5477 65.3592 44.455C56.5124 44.2849 49.5855 44.2518 45.9 53.7489C41.1646 65.9519 50.5509 70.0455 61.2205 71.9011C68.5639 73.1782 77.2015 75.1684 83.5113 69.8681C90.0833 64.3476 93.3861 57.4917 93.3861 49.0294C93.3861 37.3865 69.4622 32.0831 60.7122 31.4581C50.8325 30.7524 41.1079 29.2878 41.1079 41.3329C41.1079 56.9366 49.0612 69.536 64.3426 74.8055C72.9878 77.7866 80.6157 81.8459 86.1252 71.8285C90.3102 64.2195 93.3898 53.9734 88.8118 45.8346C82.1859 34.0554 66.4895 33.9994 54.7583 33.9994C40.8189 33.9994 37.9728 35.4176 33.5566 48.6663C30.6237 57.465 28.9068 61.9753 35.88 68.5611C42.1091 74.4441 48.7271 79.3396 55.4844 84.9707" stroke="black" stroke-width="62" stroke-linecap="round"/>
<path d="M72.2412 68.8098C62.5276 68.8098 55.1381 71.0705 50.3516 62.4548C47.4361 57.2069 48.8465 43.3896 56.0005 43.3896C66.8548 43.3896 68.9245 46.904 76.4779 54.0598C83.9359 61.1253 95.6303 64.24 100.172 74.4587C108.14 92.3868 72.2589 88.2501 65.18 79.4015C63.7767 77.6473 58.233 76.4051 56.0005 75.1649C52.8568 73.4183 50.2646 70.6988 48.2332 67.7114C43.3381 60.5127 41.8926 56.0709 45.4088 49.0386" stroke="#FF0000" stroke-width="62" stroke-linecap="round"/>
<path d="M87.8727 75.8508C83.3639 75.8508 72.64 77.9034 69.9468 73.8138C67.9829 70.8316 68.0386 65.9982 65.4653 63.4249C63.647 61.6066 61.2437 60.6016 59.558 58.4342C52.5757 49.457 61.7366 48.3509 69.5394 48.3509C79.11 48.3509 83.7722 57.3741 86.1412 65.6657C87.9601 72.0319 98.9585 78.7589 96.9375 85.8323C95.3358 91.4382 78.6859 89.0815 75.0394 87.2582C67.7369 83.6069 65.4297 76.9631 59.4561 72.1842C55.8273 69.2812 42.3581 65.0854 42.0395 59.3509C41.5859 51.1863 46.651 46.5176 54.8728 46.5176" stroke="#FF00A1" stroke-width="48" stroke-linecap="round"/>
<path d="M89.3563 85.3845C83.2058 85.3845 76.0846 83.5544 73.0119 77.4092C69.4531 70.2915 62.7567 67.3577 56.126 63.6739C52.7822 61.8163 51.8362 61.2295 51.3014 56.6832C50.6208 50.8982 54.8192 51.711 59.2275 51.711C62.5554 51.711 67.0648 52.7595 69.0243 55.6986C70.6407 58.1233 77.8924 60.7781 80.4949 62.1478C84.9719 64.5041 89.3563 70.0518 89.3563 75.1938C89.3563 76.7194 90.2213 82.3533 89.1594 83.4152C87.8816 84.6931 82.291 83.471 80.9872 82.726C74.8082 79.1951 70.1327 74.2465 63.6582 71.0092C60.6314 69.4958 49.8207 56.8574 51.2522 56.1417" stroke="black" stroke-width="48" stroke-linecap="round"/>
<path d="M90.1571 84.963C86.7965 84.963 84.5726 80.0946 82.7809 77.855C81.2291 75.9153 78.6037 74.9234 76.5782 73.7981C69.0109 69.5941 59.8652 69.7587 53.3433 63.2368C51.0232 60.9167 49.4281 48.7936 53.6785 47.5792C58.5271 46.1939 66.1599 46.9114 70.2414 50.5632C75.0414 54.8579 82.02 58.0444 85.9325 62.935C89.1576 66.9664 90.45 72.2966 92.1017 77.2515C93.6549 81.9113 94.2638 88.7567 89.2853 91.6015C85.2538 93.9052 80.3525 92.6615 77.0141 89.6569C72.6646 85.7424 66.72 84.0681 62.0941 80.4702C57.6776 77.0352 52.3819 74.723 49.1187 70.0095C46.7017 66.5181 39.3099 55.718 45.1624 52.3737C46.0227 51.8821 47.408 49.9695 47.9117 49.088C48.5934 47.895 50.1712 48.3512 51.231 48.1156C53.7616 47.5533 56.8171 46.9906 59.3783 48.0151C64.6798 50.1357 72.6031 48.4171 75.9747 54.486C78.53 59.0856 83.7882 60.604 86.4019 65.0473C87.4442 66.8192 89.988 68.2311 91.4982 69.7412C92.9445 71.1876 96.1921 74.8162 96.1921 76.8157C96.1921 81.1455 97.5249 93.6637 95.5886 89.791" stroke="#FB9600" stroke-width="23" stroke-linecap="round"/>
<path d="M75.6168 69.3472C75.6168 67.9266 70.8346 67.6977 69.6831 67.6977C67.9209 67.6977 69.5806 71.0151 70.2558 71.6153C70.7302 72.0369 71.7265 71.8215 72.3177 71.8215C74.0783 71.8215 75.9836 71.3571 76.6477 69.5992C77.6384 66.9768 74.3853 66.2851 72.3865 66.2543C71.4769 66.2403 69.108 65.8189 68.297 66.3803C67.3337 67.0473 67.5525 68.9847 67.5754 70.0116C67.6376 72.8137 71.2995 75.5931 73.8069 75.9911C75.9 76.3233 77.4725 75.9653 78.8814 74.2041C79.8456 72.9989 80.3307 71.0587 80.3591 69.5534C80.3791 68.4936 80.4607 67.468 79.6947 66.6324C78.3927 65.2119 76.7518 64.0549 74.792 63.8259C72.6145 63.5714 69.45 63.4152 67.4723 64.5246C65.2525 65.7699 62.8495 68.2424 62.4206 70.7905C61.9518 73.576 63.3701 75.839 65.6165 77.4688C69.6539 80.3978 75.8425 79.6589 79.9238 77.4115C82.9699 75.7341 85.6166 72.7604 86.7396 69.4617C87.3863 67.5621 87.7011 63.9138 86.7052 62.1305C85.4505 59.8838 83.366 58.7258 80.9777 58.0182C78.2152 57.1997 74.2846 56.5164 71.4471 57.3653C68.3255 58.2991 65.1358 60.7758 62.5695 62.7147C60.813 64.0419 59.8122 65.3876 59.4194 67.606C58.9488 70.2634 59.0152 73.7194 60.4847 76.0598C62.1402 78.6963 64.9928 80.5356 67.8961 81.5124C74.0962 83.5984 80.6368 82.1818 84.987 77.3199C87.2526 74.7877 89.1306 71.6927 90.2563 68.4766C90.7722 67.0025 91.2769 65.0961 90.4395 63.6541C89.2551 61.6142 87.668 59.8793 85.9721 58.2587C84.3307 56.6904 81.4169 56.4864 79.3282 55.9448C76.2439 55.1452 72.7661 54.9441 69.5914 54.9139C68.2261 54.9009 65.9117 54.5234 64.6887 55.2461C63.2502 56.0961 62.1288 58.1134 61.2751 59.473C60.3482 60.9492 59.5373 62.2701 59.2247 64.0206C58.5136 68.0027 59.7251 72.8092 62.329 75.9338C63.8694 77.7823 66.0681 79.3788 68.2856 80.2753C70.7728 81.2807 73.6579 81.3159 76.2926 81.604C78.4371 81.8386 81.5283 82.2171 83.4978 81.1C85.622 79.8952 87.6556 77.9008 89.1222 75.9453C90.7749 73.7417 91.7772 71.8592 92.112 69.1181C92.662 64.6143 91.7259 60.3822 89.4086 56.4718C87.3214 52.9496 84.6405 49.9412 80.4966 49.026C77.4451 48.3521 74.094 48.7282 70.9889 48.7282C65.2221 48.7282 61.4481 52.235 58.2968 56.6665C54.8748 61.4787 53.1703 67.4169 53.3597 73.2877C53.4581 76.3386 55.8132 78.5894 57.7699 80.7335C60.2943 83.4996 63.4845 86.1337 66.8537 87.7897C70.1425 89.4063 74.0642 90.4636 77.7245 90.7451C80.5604 90.9633 83.985 91.2375 86.6479 90.1724C91.2988 88.312 96.9875 84.1619 97.9769 78.8548C98.5558 75.7497 99.1115 72.0591 98.5726 68.9119C98.0168 65.666 96.2033 63.3193 94.6893 60.4696C93.5046 58.2394 92.2308 55.8198 90.325 54.112C88.6885 52.6456 86.9451 51.1791 85.1015 49.9768C81.2706 47.4784 77.5746 45.7266 72.9592 45.3833C70.2565 45.1823 67.5581 45.223 64.8491 45.223C62.4357 45.223 59.8134 45.5284 57.8157 47.0328C55.6661 48.6517 54.295 51.2694 52.8442 53.4706C51.3308 55.7668 49.9811 58.4864 49.2703 61.1454C48.6488 63.4702 48.6059 65.7439 48.6059 68.1215C48.6059 71.2541 51.2187 74.2914 52.9359 76.77C57.6443 83.5665 63.4333 89.8702 71.1035 93.2652C74.6302 94.8262 78.7841 95.3271 82.6158 95.3271C86.6072 95.3271 89.8453 93.0777 93.2346 91.3179C95.0443 90.3782 97.407 89.0964 98.5382 87.343C99.9509 85.1533 100.799 83.1689 101.184 80.5731C101.792 76.4789 102.215 72.5909 102.215 68.4422C102.215 64.7723 100.055 61.2113 98.0915 58.2129C96.2348 55.3777 94.0878 53.0368 91.5736 50.7901C89.7476 49.1584 88.0822 47.5385 85.9492 46.3226C83.9904 45.2061 81.9113 44.3328 79.9238 43.2527C78.1565 42.2922 76.4756 41.4142 74.6316 40.641C72.2197 39.6295 69.651 38.911 67.0713 38.4645C65.748 38.2355 64.5028 38.2125 63.1537 38.2125C61.1969 38.2125 59.7 38.8913 57.8615 39.5413C54.2098 40.8323 50.6447 42.5994 47.5291 44.9022C45.3314 46.5266 43.0954 49.7659 43.0387 52.6C42.9849 55.2921 42.8326 57.9717 42.8326 60.6758C42.8326 62.7278 42.5124 65.065 43.0846 67.0562C43.8219 69.622 44.6231 72.3855 45.8567 74.7539C46.4558 75.9042 46.9299 77.2227 47.7353 78.2477C48.8019 79.6053 50.0047 80.8828 51.1718 82.1539C53.6014 84.8 56.0942 87.364 58.755 89.7829C60.9995 91.8234 63.2818 94.0471 65.7426 95.8311C67.7559 97.2908 70.3756 98.4137 72.6156 99.4967C75.1341 100.715 77.9062 101.263 80.4737 102.338C82.5869 103.222 84.8097 103.369 87.0718 103.369C89.2845 103.369 91.9706 103.75 94.1968 103.346C95.6565 103.08 97.1326 101.762 98.2518 100.894C99.4514 99.964 100.406 98.9222 101.402 97.8014C103.071 95.9232 102.892 92.9793 104.197 90.8711C106.172 87.6803 106.958 84.3913 106.958 80.6762C106.958 77.2013 106.191 74.2423 104.598 71.1113C102.714 67.409 100.372 63.8773 97.8509 60.5841C93.2489 54.5733 86.3129 50.4662 80.3591 45.9332C75.5074 42.2392 71.176 37.9049 65.8342 34.9135C63.3386 33.5159 61.2855 32.8516 58.4686 32.8516C56.7251 32.8516 55.3264 33.489 53.6461 33.8367C52.3855 34.0975 50.7742 34.4629 49.6483 35.1197C46.6094 36.8923 43.7046 38.7793 41.4121 41.4886C40.4089 42.6743 39.7164 44.0748 38.7546 45.2688C37.6711 46.6138 37.3985 48.7211 36.6583 50.2632C36.0977 51.431 36.0283 52.4585 36.0283 53.7226C36.0283 56.2917 35.9372 58.8805 36.1314 61.4432C36.6795 68.6778 39.6283 76.0449 43.6688 82.0279C47.3593 87.4927 52.4441 91.2198 58.3426 94.1816C62.6848 96.3619 67.1758 98.5545 71.8939 99.7602C75.885 100.78 79.7294 101.925 83.8644 101.925" stroke="#F7DFBC" stroke-linecap="round"/>
</svg>
