<svg width="106" height="109" viewBox="0 0 106 109" fill="none" xmlns="http://www.w3.org/2000/svg">
<path d="M40.1859 51.7675C38.6677 56.591 46.247 62.9875 49.2914 65.5354C55.0191 70.3289 63.9541 71.5887 67.3228 63.8998C68.2854 61.7028 66.8997 59.3731 66.0613 57.4102C65.1131 55.1907 65.2549 52.7906 63.742 50.7683C62.643 49.2993 59.2818 47.5149 57.6707 46.5429C54.7127 44.7584 52.377 43.395 49.2769 45.8867C45.2936 49.0883 47.6681 52.3048 50.9135 55.0151C53.1471 56.8804 55.6792 59.2395 58.8474 58.6791C62.1471 58.0955 64.6023 56.4221 66.2542 53.5608C68.5271 49.6241 61.4732 43.1607 58.6367 41.2412C55.4339 39.074 52.4317 36.6804 50.0804 40.7531C47.0343 46.029 47.2639 51.8417 51.4022 56.6066C53.7434 59.3022 55.53 62.1638 59.3485 59.8523C62.2489 58.0965 65.2903 55.2332 65.3312 51.5876C65.3903 46.3114 60.094 43.2283 56.1274 40.9382C51.4143 38.2171 50.1751 38.141 46.0955 41.7586C43.3862 44.161 41.9253 45.3509 42.9974 48.9389C43.9551 52.1441 45.2371 55.0913 46.4227 58.3144" stroke="black" stroke-width="62" stroke-linecap="round"/>
<path d="M55.2434 56.1214C51.959 54.2252 49.0191 53.5471 49.0826 49.6995C49.1213 47.356 52.2955 42.9594 54.7144 44.356C58.3845 46.4749 58.3982 48.0672 59.5553 51.9612C60.6977 55.8061 64.0438 59.1422 63.5846 63.4839C62.7789 71.1012 51.4543 62.698 50.7882 58.3243C50.6561 57.4572 49.0242 55.955 48.5115 55.0998C47.7895 53.8956 47.4439 52.47 47.3402 51.0634C47.0904 47.6737 47.4687 45.8897 50.0304 44.1983" stroke="#FF0000" stroke-width="62" stroke-linecap="round"/>
<path d="M59.154 61.5535C57.6295 60.6734 53.6029 59.2739 53.4906 57.3654C53.4087 55.9737 54.3711 54.3503 54.0034 52.9779C53.7435 52.0081 53.1271 51.1991 52.9802 50.1372C52.3718 45.7388 55.6853 47.1531 58.3235 48.6764C61.5596 50.5447 61.3745 54.5057 60.5569 57.7717C59.9291 60.2793 62.3347 64.7009 60.2705 66.698C58.6346 68.2808 53.465 64.2337 52.588 62.9054C50.8316 60.2452 51.3485 57.5484 50.2616 54.7665C49.6014 53.0765 45.8662 49.0284 46.8779 47.0273C48.3184 44.1781 50.9424 43.5883 53.7224 45.1933" stroke="#FF00A1" stroke-width="48" stroke-linecap="round"/>
<path d="M57.7947 65.0668C55.715 63.8661 53.6644 61.8572 53.8252 59.1795C54.0113 56.0782 52.3199 53.779 50.797 51.239C50.029 49.9582 49.8237 49.5751 50.5304 47.9335C51.4296 45.8446 52.6905 46.939 54.181 47.7996C55.3062 48.4492 56.6263 49.684 56.715 51.0603C56.7883 52.1957 58.722 54.509 59.3345 55.4801C60.3883 57.1508 60.7878 59.8825 59.784 61.6211C59.4862 62.137 58.6788 64.2108 58.1125 64.3625C57.431 64.5451 55.7792 63.0406 55.4838 62.5342C54.0839 60.1341 53.469 57.5481 51.9118 55.1896C51.1839 54.087 49.9957 47.7033 50.6195 47.7408" stroke="black" stroke-width="48" stroke-linecap="round"/>
<path d="M58.1478 65.0809C57.0115 64.4249 57.21 62.3446 57.0414 61.2376C56.8953 60.2789 56.2013 59.4309 55.7361 58.6551C53.9981 55.7563 50.8736 54.0266 49.9416 50.5483C49.61 49.3109 51.4373 44.9005 53.1115 45.3196C55.0213 45.7977 57.4621 47.5303 58.1292 49.5618C58.9138 51.951 60.6514 54.3907 61.0196 56.8081C61.3231 58.8008 60.7195 60.8553 60.3107 62.8531C59.9263 64.7319 58.7958 67.1653 56.5571 67.1553C54.7443 67.1473 53.3298 65.7699 52.7876 64.1023C52.0811 61.9297 50.398 60.2031 49.5362 58.0835C48.7135 56.0599 47.3743 54.2443 47.1911 52.0136C47.0554 50.3612 46.6644 45.2665 49.2961 45.2783C49.683 45.28 50.5247 44.9037 50.8671 44.704C51.3305 44.4337 51.7749 44.8959 52.1792 45.0232C53.1447 45.327 54.2876 45.7333 54.9536 46.5796C56.3322 48.3316 59.3467 49.2972 59.302 52.0074C59.2681 54.0615 60.7496 55.6013 60.7659 57.614C60.7725 58.4165 61.357 59.3905 61.5728 60.1959C61.7795 60.9673 62.1692 62.8282 61.7789 63.5042C60.9336 64.9682 58.9405 69.4611 59.0418 67.7737" stroke="#FB9600" stroke-width="23" stroke-linecap="round"/>
<path d="M62.7937 36.7768C62.2426 36.7155 60.8603 35.6977 60.408 35.2906C59.8139 34.7559 58.6406 34.622 57.8659 34.2346C56.1061 33.3547 54.1338 32.6262 52.1559 32.5529C49.0482 32.4378 45.2749 32.1715 42.8087 34.3911C41.4267 35.6349 40.7901 37.5047 39.4844 38.8105C38.5043 39.7906 37.4507 43.0775 37.4507 44.5987C37.4507 47.4716 36.7871 50.2233 37.3725 53.0854C38.0013 56.1596 40.0483 58.874 41.6745 61.494C43.429 64.3206 44.6479 67.4489 46.4263 70.2154C48.9151 74.0869 54.4477 76.9031 59.0978 76.9031C62.7783 76.9031 63.8936 77.7094 67.1348 74.9868C69.6062 72.9108 72.5593 70.0555 72.9817 66.676C73.4493 62.9348 73.6146 58.6959 73.3337 54.904C73.131 52.1674 72.1376 48.1458 70.7134 45.772C69.6802 44.05 69.1537 42.5155 67.7019 41.0006C66.1693 39.4013 64.3529 38.3219 62.6177 36.9723C60.9389 35.6666 60.4613 34.6861 59.2738 32.9049" stroke="#F7DFBC" stroke-width="8" stroke-linecap="round"/>
<path d="M68.8897 8.51171C70.9774 9.95704 75.1379 13.095 77.838 13.095C78.538 14.4949 80.8498 15.8137 81.9605 17.2418C83.5928 19.3404 84.9484 22.1398 86.2286 24.4441C89.2941 29.962 93.9241 34.4145 96.9472 40.1582C98.1874 42.5146 99.2267 45.9791 99.2267 48.6458C99.2267 52.5327 101.409 56.3688 101.409 60.3344C101.409 63.0741 102.392 68.3132 101.191 70.956C99.8806 73.8387 99.2822 77.337 98.2567 80.4136C97.1602 83.7029 95.5927 86.7403 93.9644 89.7256C93.1808 91.1622 91.6603 92.6845 90.4966 93.8482C89.8769 94.4679 88.3567 94.9828 87.9746 95.5942C87.5226 96.3173 85.8885 97.1274 85.0403 97.3159C83.4597 97.6672 82.0688 98.9775 80.6268 99.741C78.6357 100.795 76.0877 102.287 73.9095 102.918C72.0683 103.451 70.1948 104.761 68.2349 104.761C60.9929 104.761 54.1093 104.353 47.1858 102.045C45.53 101.493 43.4313 100.777 41.8265 100.42C40.7836 100.188 40.137 99.2685 39.2074 99.0619C38.3028 98.8609 36.6418 97.1008 35.9337 96.4672C34.0126 94.7483 31.8812 93.0937 30.0166 91.2291C28.1182 89.3307 26.3133 87.8151 24.1723 86.2093C23.1409 85.4358 21.6845 84.6008 20.8985 83.5903C19.1534 81.3466 16.7473 79.0356 14.9815 76.485C11.789 71.8737 8.45902 67.9506 5.91192 62.8564C0.94882 52.9302 6.65632 40.7389 11.5865 31.8647C13.1203 29.1038 15.8702 25.7472 16.7275 22.7466C17.0206 21.7207 18.0864 20.4931 18.813 19.7396C19.5136 19.013 21.831 17.2273 21.9656 16.1505C22.0446 15.5185 23.9067 14.9931 24.3663 14.3803C25.452 12.9326 27.4803 12.0205 28.9254 10.9367C30.2518 9.9419 31.6957 9.03941 32.8781 7.85696C34.5639 6.17117 36.7051 6.10099 38.8437 5.33494C45.2465 3.0414 53.6241 4.28938 60.2809 4.80143C63.1332 5.02084 66.5749 6.90918 68.8897 8.51171Z" stroke="#F7DFBC" stroke-width="8" stroke-linecap="round"/>
</svg>
