<svg width="80" height="96" viewBox="0 0 80 96" fill="none" xmlns="http://www.w3.org/2000/svg">
<path fill-rule="evenodd" clip-rule="evenodd" d="M71.1508 37.0004C71.1792 37.2095 71.2037 37.3903 71.2241 37.5346C71.7396 41.1847 71.921 47.1346 70.9324 52.8447C70.4404 55.6867 69.4823 59.5477 67.3729 63.2303C65.8133 65.9528 63.1675 69.2965 59.0984 71.5506C58.7861 72.1701 58.4189 72.8517 57.996 73.5534C56.2226 76.4963 52.6604 81.1309 46.172 83.2984C34.5679 87.1749 23.919 83.3614 17.0326 75.9275C10.9086 69.3166 8.14158 60.4874 7.83672 52.6201C7.83497 52.5751 7.83318 52.5289 7.83134 52.4817C7.73057 49.8907 7.50417 44.0697 8.33867 38.2891C8.76374 35.3447 9.57215 31.5608 11.318 27.8726C13.0673 24.1771 16.3868 19.3059 22.4332 16.527C24.2847 15.676 26.2151 15.2131 28.1336 15.1043C29.9847 13.9061 32.1226 12.9417 34.5914 12.3473C39.0222 11.2805 43.6643 11.872 45.3186 12.0828C45.4819 12.1036 45.6161 12.1207 45.718 12.1321C45.782 12.1393 45.8477 12.1466 45.9151 12.1541C48.9799 12.4954 55.583 13.2307 61.0082 17.9008C64.3799 20.0351 66.5964 22.9084 67.971 25.4881C69.5501 28.4517 70.2083 31.3562 70.5377 33.0651C70.8046 34.45 71.0191 36.0303 71.1508 37.0004Z" fill="black"/>
<path fill-rule="evenodd" clip-rule="evenodd" d="M58.4241 25.135C56.3367 22.2144 53.2414 19.9848 49.4793 19.0228C45.1976 17.9279 40.0203 17.6278 34.6127 19.8704C29.985 21.7895 26.7863 24.9855 25.017 26.8301C22.609 29.3405 19.8872 32.9982 18.4142 37.7964C18.1422 38.6824 17.977 39.4568 17.8803 39.9551C17.7782 40.4817 17.7036 40.959 17.6527 41.3042C17.6511 41.3152 17.6495 41.3262 17.6479 41.3372C15.7509 45.1248 15.1685 48.9406 14.9406 51.2319C14.5614 55.0443 14.7582 59.2697 15.6552 63.2299C16.3843 66.4484 18.3073 72.8725 24.0456 77.2709C27.42 79.8574 31.8862 81.5139 36.9201 81.1787C41.6137 80.8662 45.3538 78.9227 47.9611 77.0307C54.0301 72.6268 56.6361 66.7387 57.9279 63.48C58.2645 62.6307 58.5647 61.8116 58.7967 61.1767L58.8551 61.0169C59.0778 60.4074 59.2377 59.9696 59.4019 59.5448C59.7098 58.7482 59.8502 58.4899 59.8524 58.4841C60.1264 58.0371 60.3914 57.6178 60.6993 57.1312L60.7276 57.0864C61.0105 56.6393 61.3689 56.0727 61.7124 55.5047C62.4127 54.3469 63.4345 52.5696 64.2448 50.3665C66.1733 45.1231 65.9432 40.2104 64.9641 35.6462C63.948 30.9102 61.3431 27.4575 58.4241 25.135Z" fill="#FF0000"/>
<path fill-rule="evenodd" clip-rule="evenodd" d="M59.0057 41.2613C59.3271 39.6818 59.3352 38.0128 58.9758 36.3376C58.0807 32.1653 55.8074 27.4697 51.1309 24.3869C46.2895 21.1955 40.8002 20.9997 36.1866 22.2595C30.9115 23.6999 28.2169 27.6016 27.1495 29.4196C25.945 31.4712 25.2392 33.5826 24.8324 34.9232C24.4969 36.0286 24.186 37.2446 23.9834 38.037C23.9354 38.2247 23.8935 38.3886 23.8588 38.5217C23.8324 38.6226 23.8085 38.7124 23.7871 38.7919C23.7539 38.8374 23.716 38.8885 23.6728 38.9455C23.4229 39.2754 23.2689 39.463 23.0364 39.7463C22.8409 39.9844 22.5899 40.2902 22.1797 40.8049C20.7656 42.5796 18.4511 45.6509 17.2832 50.1445C16.7047 52.3704 16.7048 54.6928 16.7392 55.9756C16.7834 57.6197 16.9587 59.5152 17.3174 61.4102C17.6466 63.1497 18.2718 65.6714 19.5865 68.0946C20.6691 70.09 24.1233 75.3964 31.2437 75.8648C35.8976 76.1709 39.5144 74.3582 41.7896 72.6926C43.8929 71.1528 45.4156 69.3303 46.2293 68.3257C46.9122 67.4827 47.1977 67.1058 47.4053 66.8317C47.5308 66.666 47.6279 66.5378 47.7671 66.3669C50.1752 64.9825 53.1612 62.9067 55.5891 59.9206C58.7036 56.0901 61.056 50.4607 59.6184 43.7598C59.466 43.0493 59.2668 42.1878 59.0057 41.2613ZM48.2131 65.8508C48.2128 65.8531 48.1841 65.8852 48.1278 65.9399C48.1851 65.8757 48.2133 65.8484 48.2131 65.8508ZM24.0011 38.4729C24.0011 38.4728 24.0008 38.4735 24.0001 38.4747C24.0007 38.4735 24.0011 38.4729 24.0011 38.4729Z" fill="#FF00A1"/>
<path fill-rule="evenodd" clip-rule="evenodd" d="M23.8162 43.7572C17.9833 50.4275 18.8488 59.0569 19.683 62.9453C21.119 69.6392 27.616 73.9301 34.2333 72.583C34.5154 72.5642 34.7615 72.5399 34.9644 72.5168C36.2185 72.3741 37.3266 72.0963 37.9402 71.9331C38.5917 71.7597 39.2106 71.5702 39.5626 71.4623L39.6133 71.4468C39.7196 71.4143 39.7998 71.3901 39.8578 71.3727C44.2441 70.3279 47.4671 67.7253 49.4987 65.4784C51.6442 63.1056 53.4301 60.0773 54.3484 56.7401C54.483 56.2508 54.5893 55.7862 54.6607 55.4636C54.7358 55.124 54.8099 54.7684 54.8694 54.4824C54.9712 53.9938 55.0524 53.6047 55.1315 53.2566C56.8897 50.5686 57.5316 47.7911 57.7703 45.8701C58.0933 43.2707 57.8697 40.8115 57.4438 38.8261C57.4184 38.7077 57.3947 38.5854 57.3387 38.2958L57.3274 38.2377C57.2759 37.9717 57.1872 37.5129 57.0756 37.0264C56.8949 36.2379 56.4093 34.179 55.1425 32.0576C53.6313 29.5272 50.9065 26.7637 46.7011 25.6684C44.493 25.0933 42.4652 25.1407 40.7981 25.4072C40.267 25.4597 39.7958 25.5396 39.4026 25.628C38.1841 25.902 37.165 26.3269 36.4019 26.7157C34.7358 27.4236 32.4484 28.679 30.5145 30.9603C29.2973 32.3961 28.4863 33.9818 27.9727 35.2296C27.5755 35.7983 27.1905 36.3731 26.8341 36.9346C26.4472 37.5442 26.0197 38.2543 25.6281 38.9986C25.3486 39.53 24.6407 40.8966 24.2083 42.6054C24.129 42.9188 24.0143 43.2659 23.8162 43.7572Z" fill="black"/>
<path fill-rule="evenodd" clip-rule="evenodd" d="M53.2444 48.1432C53.9261 46.1741 54.0559 44.1646 53.956 42.4931C53.8219 40.2502 53.2348 37.9042 52.2049 35.9412C52.1172 35.7326 52.0344 35.5465 51.9612 35.3855C51.9601 35.381 51.9589 35.3764 51.9578 35.3718C51.9225 35.2325 51.8645 35.0131 51.7818 34.7603C51.627 34.2872 51.2997 33.4197 50.6043 32.5418C49.845 31.5832 48.7846 30.7869 47.4635 30.3556C47.4539 30.3519 47.4382 30.3457 47.4164 30.3367C47.4162 30.3366 47.4161 30.3365 47.4159 30.3365C45.3997 28.5286 42.908 28.0928 40.7807 28.4171C38.7594 28.7253 37.0804 29.6849 35.9934 30.4149C33.7934 31.8925 31.8918 33.9207 31.1621 34.6989C31.1491 34.7127 31.1366 34.7261 31.1244 34.7391C29.4251 36.5508 28.4582 38.5496 27.8098 40.0908C27.444 40.9601 27.2204 41.5487 27.0337 42.0403C26.8027 42.6485 26.6281 43.1081 26.3106 43.7669C25.4685 45.5139 24.9675 47.3606 24.6252 48.6222C24.5898 48.7531 24.556 48.8776 24.5237 48.9951C24.1196 50.4657 23.8612 51.225 23.5347 51.7941C21.5682 55.2213 20.8968 60.5492 24.3828 64.6773C24.385 64.713 24.3875 64.749 24.3903 64.7851C24.6551 68.1403 27.2769 69.5409 28.333 69.9183C29.345 70.28 30.2266 70.2853 30.5248 70.2845C31.6979 70.2814 33.0504 69.9503 33.6854 69.7949L33.7103 69.7888C34.5099 69.5932 35.4066 69.3483 36.1723 69.1391C36.2491 69.1182 36.3246 69.0975 36.3985 69.0774C37.297 68.8322 37.9062 68.6704 38.2525 68.5961C39.8548 68.2523 40.9982 67.3924 41.5167 66.9716C42.1495 66.4581 42.6831 65.8979 43.0822 65.4433C43.8857 64.5282 44.5618 63.5607 44.9456 62.9665C45.2252 62.5336 45.4503 62.1113 45.6126 61.791C46.2308 61.2439 46.8222 60.6464 47.3524 59.9963C48.9595 58.0258 49.9452 55.7271 50.6121 54.103C50.6216 54.0799 50.631 54.0569 50.6404 54.0341C52.3935 52.1184 53.0322 49.9486 53.2444 48.1432ZM34.1924 68.5073C34.1827 68.5152 34.1755 68.521 34.1709 68.5246L34.1681 68.5268C34.1763 68.5203 34.1843 68.5138 34.1924 68.5073Z" fill="#FB9600"/>
<path d="M67.6135 63.847C68.6748 63.3164 68.0839 58.0985 68.0839 56.7912C68.0839 54.4631 69.0247 52.3771 69.0247 50.0228C69.0247 47.5281 70.3601 45.2547 70.8801 42.9147C71.4774 40.2269 71.3766 37.4203 71.3766 34.6567C71.3766 28.2674 68.3085 22.3151 66.6727 16.1808C65.1613 10.5129 58.0179 9.42826 53.7631 6.7207C50.0887 4.38245 44.6767 4.10742 40.4354 4.10742C34.6351 4.10742 32.079 6.68552 27.1599 9.28172C21.5827 12.2253 18.569 17.5997 14.8252 22.4527C13.0555 24.7467 12.1608 26.9056 10.6962 29.404C9.89026 30.7789 9.62264 32.8532 8.71015 34.1079C6.05744 37.7554 5.99233 43.1076 5.99233 47.3834C5.99233 49.7824 5.33003 53.4244 6.25366 55.6675C7.2116 57.9939 7.95981 61.3386 8.31815 63.847C8.8281 67.4166 10.107 72.0245 11.8722 75.1625C13.3682 77.8221 15.2954 79.2652 17.5169 81.4867C20.2865 84.2563 23.5648 87.8061 26.8986 89.9276C29.911 91.8446 34.3148 91.6001 37.8744 91.6001C45.0157 91.6001 52.8264 86.6608 57.8398 81.8264C60.2648 79.4881 62.021 76.6307 64.3208 74.1956C65.3594 73.0959 66.7487 71.801 67.509 70.4325C69.4403 66.9561 68.5543 62.0375 68.5543 58.2024" stroke="#F7DFBC" stroke-width="8" stroke-linecap="round"/>
</svg>
