<svg width="132" height="129" viewBox="0 0 132 129" fill="none" xmlns="http://www.w3.org/2000/svg">
<path d="M62.1783 87.9132C54.7431 87.9132 36.0269 87.8147 36.0269 79.833C36.0269 76.3135 41.765 74.0512 44.962 72.0249C51.8982 67.6288 58.4087 65.8764 67.3723 65.8764C73.1298 65.8764 79.1433 65.6987 83.608 68.9235C85.5419 70.3203 85.0608 72.1469 85.0608 73.9838C85.0608 75.9896 85.3862 78.2258 84.1165 80.0779C81.3721 84.0809 74.8748 86.5072 69.37 87.6411C58.9755 89.7822 49.4702 89.2174 41.911 83.0161C38.699 80.3811 37.3345 76.2722 37.3345 72.7867C37.3345 68.8618 40.2146 67.3603 43.6544 64.4617C48.2864 60.5585 52.574 57.0293 59.4179 55.3206C65.8723 53.7091 72.9254 53.4756 79.6853 53.6338C85.6004 53.7723 90.5404 61.2674 92.1072 64.7882C93.9795 68.9955 89.3561 74.1329 87.0222 77.6294C83.2948 83.2132 78.1328 89.872 68.7162 89.872C63.4759 89.872 58.7172 90.4614 54.2603 88.1308C48.0171 84.8662 43.0093 80.3021 39.2959 75.3713C35.5674 70.4205 29.7703 62.5081 35.0099 57.1706C39.2632 52.8379 45.2766 48.8981 50.8461 45.5265C55.2582 42.8554 60.0438 40.0677 65.7378 39.2147C75.8 37.7073 83.4538 42.5423 86.7316 49.4985C89.2336 54.8083 92.6328 60.7401 92.9062 66.475C93.0999 70.5368 90.3743 73.8217 88.475 77.5205C85.8091 82.7123 77.4984 85.3469 71.3313 87.9132" stroke="black" stroke-width="62" stroke-linecap="round"/>
<path d="M68.4518 80.283C65.1693 80.283 62.8323 81.6522 59.4163 81.6522C56.1668 81.6522 53.3903 80.1008 50.6485 78.9137C47.9769 77.757 46.3846 76.1892 45.5953 74.0961C44.5688 71.3739 42.1512 67.5417 41.9476 64.7652C41.7099 61.5221 42.8028 60.3861 45.5619 58.1727C49.0214 55.3972 52.221 52.7326 56.7057 50.8448C59.864 49.5153 62.3326 47.0732 66.1762 46.9654C68.3335 46.9048 70.5086 46.9654 72.6684 46.9654C75.6494 46.9654 75.3991 48.1642 77.1861 49.2474C78.7903 50.2198 80.0354 54.4707 80.8003 56.0935C82.4128 59.5144 82.9086 62.0452 82.9086 65.678C82.9086 69.8935 83.1665 73.0058 80.633 76.6317C79.7374 77.9135 76.3335 80.9636 74.7432 81.6522C71.973 82.8516 70.2029 84.2732 66.9459 84.8216C65.478 85.0688 63.6316 84.847 62.127 84.847C59.686 84.847 59.4132 83.9268 57.6092 83.1228C53.343 81.2214 53.995 77.1291 53.995 73.8679C53.995 68.2695 63.9967 60.6575 71.4637 60.6575" stroke="#4DFFAC" stroke-width="62" stroke-linecap="round"/>
<path d="M65.3788 86.9385C63.2558 86.7965 60.3072 86.1824 58.605 85.2526C54.8333 83.1924 51.202 80.8704 48.7359 77.9473C47.3146 76.2626 45.9529 74.5836 44.5551 72.8897C41.3255 68.9761 43.2007 63.8514 47.2887 60.586C51.7362 57.0333 56.3335 53.1778 62.4844 51.2103C64.7583 50.4829 67.5821 49.9385 70.0822 49.9385C72.0558 49.9385 72.9439 50.7703 74.5042 51.5356C77.4081 52.9599 79.6055 55.952 81.298 58.1311C83.7553 61.295 84.916 64.4064 84.916 68.0392C84.916 71.2514 84.2449 73.499 82.303 76.4093C80.5828 78.9874 79.5376 81.2815 76.3534 83.064C74.2921 84.2179 70.3307 86.3673 67.5496 86.1399C64.7266 85.9091 66.0958 74.9281 66.1024 74.0432C66.1308 70.2179 67.1878 66.4964 67.1878 62.7155C67.1878 61.1391 66.2083 60.3893 68.2732 59.5212" stroke="#002AFF" stroke-width="46" stroke-linecap="round"/>
<path d="M69.8958 81.4959C67.7645 82.2446 64.3688 81.8309 62.0443 81.7678C58.9654 81.6842 55.3422 79.454 53.1607 77.9614C51.5521 76.8607 50.5708 75.5108 49.7004 74.0341C47.8859 70.9559 46.6379 66.23 50.1455 63.6118C51.8103 62.3691 53.642 61.2737 55.3057 60.0319C56.3883 59.2238 57.7536 58.0173 59.2517 57.6302C61.3445 57.0895 63.3414 55.9385 65.707 55.9385C70.8649 55.9385 74.0993 57.7166 77.7069 60.4095C80.0616 62.1671 81.916 65.5359 81.916 68.0526C81.916 71.3911 79.7508 75.3903 76.0881 77.5384C73.9833 78.7728 67.0997 82.7042 65.4439 79.4719C64.3952 77.4244 64.7964 75.1128 64.7964 72.9617C64.7964 71.3005 64.7004 69.6845 65.1606 68.0526C65.5223 66.7702 65.2007 65.485 66.6176 64.6389" stroke="black" stroke-width="46" stroke-linecap="round"/>
<path d="M70.996 75.5092C67.2952 75.5092 62.6262 74.5356 60.836 72.0002C60.2962 71.2357 58.4533 70.855 58.396 69.7809C58.3092 68.1527 57.942 66.0311 58.676 64.5025C59.9895 61.7668 65.6566 61.2035 68.836 61.2035C72.2023 61.2035 73.7782 62.1245 74.876 64.5025C75.7563 66.4091 77.1438 68.31 77.756 70.2608C78.6283 73.0402 72.39 75.4174 69.756 76.4389C67.3939 77.355 65.5758 77.9385 62.896 77.9385C61.1855 77.9385 59.7311 75.7392 58.576 74.9694C55.3814 72.8403 51.916 69.4619 51.916 66.062C51.916 61.8555 60.653 57.9644 65.576 57.9644C66.6064 57.9644 68.8875 57.7821 69.576 58.3843C70.2116 58.9403 70.8592 59.4813 71.556 60.0038C75.557 63.0037 78.916 65.3467 78.916 69.8409" stroke="#FB9600" stroke-width="46" stroke-linecap="round"/>
<path d="M32.2561 75.4957C32.2561 71.6586 32.2561 67.8216 32.2561 63.9846C32.2561 56.6423 39.1201 52.3966 45.3158 49.9441C48.8837 48.5318 52.8057 47.535 56.5946 46.976C58.7056 46.6646 60.8663 46.6921 62.9954 46.6921C65.5228 46.6921 68.1449 46.4678 70.635 46.976C72.7799 47.4138 75.053 47.9719 77.0229 48.9376C79.3472 50.0769 80.8783 51.6689 82.8172 53.2994C85.2053 55.3076 87.0752 57.9274 88.8179 60.4745C89.5938 61.6085 90.5255 62.7957 90.844 64.1652C91.2258 65.8073 91.7038 67.4041 92.057 69.0691C92.5518 71.4015 92.4184 73.7983 92.4184 76.1667C92.4184 79.2432 91.9503 81.4375 90.9085 84.3226C90.2282 86.2063 89.2322 88.5578 87.6436 89.8458C82.9865 93.6218 77.6414 94.376 71.7964 95.2401C66.8251 95.9749 61.7352 96.3225 56.7752 95.4207C54.4765 95.0028 52.1128 93.4246 50.1422 92.2203C48.1486 91.002 46.0503 89.8659 43.9737 88.7876C42.4777 88.0109 40.9468 86.5956 39.6764 85.484C38.5806 84.5252 37.9357 83.2917 37.1857 82.0513C36.5211 80.9521 35.6181 79.6839 35.521 78.3734C35.3639 76.253 35.5081 74.0587 35.5081 71.9339C35.5081 68.4995 36.8214 65.7639 37.96 62.565C39.1598 59.1942 40.7638 56.0573 43.1736 53.3768C45.9287 50.3121 48.8917 47.409 52.9425 46.2275C56.9303 45.0644 61.3847 45.4252 65.4989 45.5307C70.9793 45.6712 76.8645 51.117 79.9007 55.2609C82.0691 58.2205 83.8589 62.0743 84.3916 65.7267C84.931 69.4257 85.2898 73.8859 84.2883 77.5088C83.303 81.0733 79.0576 83.5488 76.2228 85.3937C71.3616 88.5573 65.703 91.5442 60.0273 92.8398C55.2596 93.928 50.5257 94.5432 45.6384 94.5432C43.9269 94.5432 42.2122 92.0159 41.3669 90.6459C39.6682 87.8929 39.0693 85.1041 39.0053 81.8707C38.9588 79.5201 38.9373 77.1495 38.9924 74.7988C39.0695 71.511 40.8801 67.8371 42.7606 65.2234C46.3882 60.1817 51.0405 55.597 56.9817 53.4542C59.6882 52.4781 65.3029 51.4653 67.9766 53.2478C70.3715 54.8443 71.798 56.9345 72.2997 59.7776C72.927 63.3324 73.4293 67.5441 72.6224 71.0822C71.0246 78.0877 63.5725 82.8007 56.6978 82.6966C54.8798 82.669 51.3861 81.6084 50.8519 79.5607C50.2984 77.4389 49.6991 74.297 51.1745 72.4243C53.2598 69.7776 55.9543 68.0256 59.4207 67.8431C61.3994 67.739 64.0214 67.6798 65.1892 69.6111C67.4816 73.4023 61.9802 75.2135 59.1497 75.7796C57.9668 76.0162 57.5753 76.1969 57.5753 74.915C57.5753 73.909 58.5921 73.6374 59.4336 73.6374C59.8938 73.6374 61.5242 73.3425 61.5242 73.9858C61.5242 74.8612 62.0422 73.6514 62.7373 73.0696C65.1889 71.017 65.4803 68.8211 64.0277 65.9719C63.1985 64.3452 61.7794 63.9936 60.0402 63.8942C57.375 63.7419 53.7845 63.3223 51.6391 65.1718C49.6979 66.8453 48.0234 68.7843 47.6386 71.3919C47.3476 73.3641 48.2883 74.6146 49.5614 76.0764C52.0868 78.9759 55.2161 81.2044 59.1239 81.4835C60.9616 81.6148 63.0263 81.756 64.7375 80.9802C67.3499 79.7959 69.8211 78.1582 72.0287 76.3345C74.7306 74.1025 75.8167 71.631 75.4098 68.0625C75.0259 64.6961 73.122 60.2153 70.0801 58.3323C66.3387 56.0162 60.5187 56.891 56.3623 56.9127C52.1467 56.9348 48.7134 58.3901 46.2191 61.894C44.9804 63.634 43.7267 65.4993 42.8897 67.4689C42.4342 68.5405 41.7991 69.4772 41.7798 70.6693C41.7246 74.0936 43.8124 77.1467 45.7287 79.8962C47.855 82.947 50.3152 85.7028 53.9104 86.9293C58.2852 88.4219 63.0487 89.4483 67.6669 89.7684C69.5259 89.8972 71.8054 90.209 73.6547 89.7942C76.0693 89.2526 78.7796 87.1566 80.5201 85.4324C84.748 81.244 88.8551 75.9871 90.9988 70.3725C93.0574 64.981 93.4378 59.5739 93.3475 53.8414C93.2756 49.2758 89.9654 44.7296 86.8435 41.6076C81.0056 35.7698 72.4872 33.3513 64.4149 34.2777C60.957 34.6745 59.1355 36.3408 56.2332 38.0459C53.4557 39.6777 50.577 41.2259 48.0903 43.2981C45.7012 45.2891 43.3589 47.4193 41.3153 49.7635C39.1162 52.2859 38.2976 55.4791 37.96 58.7581C37.3433 64.7488 37.6244 70.7176 40.6571 76.0248C42.3506 78.9883 43.7009 82.1682 45.6771 84.9678C47.8654 88.0679 50.2802 90.4591 53.3167 92.7365C55.769 94.5757 58.387 95.3288 61.2145 96.3499C62.8164 96.9283 64.473 97.6113 66.1829 97.7823C69.5241 98.1164 72.2826 96.3087 75.4356 95.7175C76.7998 95.4617 78.5102 94.9716 79.7974 94.44C81.1964 93.8621 82.4045 92.7819 83.7334 92.0784C87.3336 90.1724 90.4397 87.1529 92.5087 83.6515C93.5732 81.85 93.9786 79.3193 94.4057 77.3023C94.8043 75.4202 95.1771 73.5356 95.5542 71.65C96.4426 67.2082 97.5614 61.437 96.122 57.0289C94.8451 53.1181 93.6398 48.9605 90.8182 45.8404C87.2328 41.8758 82.7156 38.0163 77.9262 35.5811C73.881 33.5242 68.7587 32.5732 64.26 32.5226C61.013 32.4861 57.3698 32.0873 54.2201 32.9872C48.5341 34.6118 43.0193 37.1764 39.2892 41.8657C38.2274 43.2005 37.2739 44.622 36.205 45.9436C35.0519 47.3692 34.3122 49.0299 33.1852 50.4603C31.9751 51.9963 29.7009 54.7515 29.7009 56.8353C29.7009 59.4624 29.4687 62.2041 30.1655 64.7589C30.9147 67.5059 32.0667 69.8548 33.3143 72.3856C36.3244 78.4919 41.1159 82.9059 46.0642 87.4584C48.1833 89.408 50.6629 91.129 52.9296 92.9172C54.7961 94.3896 56.6649 96.055 58.7497 97.2016C61.5765 98.7563 64.8453 100.583 68.1444 100.583C71.7908 100.583 74.9779 100.456 78.4037 99.0599C80.5963 98.1666 82.6857 97.1859 84.8303 96.2208C87.0012 95.2439 88.4404 93.1283 90.1729 91.5751C91.8043 90.1125 93.2922 88.9211 94.6896 87.2133C96.1748 85.398 96.877 83.3445 97.4125 81.0835C98.1222 78.0868 97.7609 74.7638 97.7609 71.7017C97.7609 69.1637 97.7609 66.6258 97.7609 64.0878C97.7609 61.74 97.4827 58.7902 96.5737 56.6288C94.8304 52.4837 91.5951 50.3511 88.0049 47.8535" stroke="#F7DFBC" stroke-linecap="round"/>
<path d="M64.6996 5.68389C64.5909 6.55413 61.4003 6.13158 60.6704 6.13158C57.6934 6.13158 55.7232 6.44177 52.9602 7.57414C47.7268 9.71896 40.8875 10.2454 36.719 14.4139C34.1845 16.9483 30.9119 17.9749 28.2128 20.2587C25.8049 22.2962 23.5777 24.7585 20.8259 26.3772C17.9274 28.0822 16.75 31.1272 14.5583 33.4407C12.8247 35.2706 9.51898 36.4644 8.2906 38.614C4.40288 45.4175 4.26138 52.8765 4.26138 60.725C4.26138 64.2365 3.54441 68.6049 4.48523 71.9919C4.94137 73.634 5.05779 75.1841 5.15677 76.8667C5.21488 77.8547 5.99398 78.9536 6.05214 80.0006C6.16239 81.985 7.76849 85.2177 8.73829 86.9149C9.10796 87.5618 11.171 87.5701 11.8721 87.6113C12.9387 87.674 13.773 90.7242 14.1106 91.4415C15.6104 94.6287 16.4179 97.9594 18.0403 101.042C18.8858 102.648 20.0936 104.113 21.2985 105.519C21.8899 106.209 23.3953 108.843 24.2085 109.076C25.4325 109.425 26.735 110.893 27.989 111.538C29.7732 112.455 31.1952 113.983 32.9136 114.92C36.6389 116.952 39.3703 119.117 43.6084 120.044C54.5372 122.435 65.7382 124.322 76.8868 124.322C85.1005 124.322 93.565 118.212 99.8434 113.329C102.566 111.211 105.053 108.592 107.454 106.19C109.539 104.105 112.143 101.869 113.597 99.2513C114.313 97.9635 115.964 96.0026 117.079 94.9982C118.275 93.9221 118.836 92.1229 119.989 90.969C121.183 89.7751 121.773 87.9745 122.899 86.7159C123.635 85.8943 125.527 82.8509 125.586 81.7913C125.774 78.4003 127.376 74.9562 127.376 71.4944C127.376 66.346 127.376 61.1975 127.376 56.0491C127.376 53.3978 125.978 50.621 125.486 48.0155C124.966 45.2604 123.27 42.816 121.656 40.6038C118.061 35.6778 113.973 31.2447 109.27 27.3969C107.846 26.232 106.441 24.8294 105.265 23.3925C102.605 20.1414 98.4687 18.8468 95.3167 16.1798C94.2392 15.268 92.8473 14.8403 91.7849 13.9413C90.8386 13.1405 90.1553 12.0845 88.9744 11.6034C87.0127 10.8041 85.4578 8.81207 83.4032 8.02183C81.6575 7.35041 80.1701 6.95793 78.3542 6.5544C76.7011 6.18703 75.0715 6.36697 73.3799 6.10671C70.4141 5.65044 67.6803 4.34082 64.6996 4.34082" stroke="#F7DFBC" stroke-width="8" stroke-linecap="round"/>
</svg>
