<svg width="165" height="151" viewBox="0 0 165 151" fill="none" xmlns="http://www.w3.org/2000/svg">
<path fill-rule="evenodd" clip-rule="evenodd" d="M89.1352 28.8655C94.1329 28.8064 98.8525 28.9402 102.765 29.0837C102.957 29.0907 103.291 29.0944 103.739 29.0992C106.178 29.1258 112.017 29.1894 116.893 30.042C122.399 31.0047 134.487 34.1333 140.125 46.5237C144.781 56.7574 145.079 67.1202 144.873 74.7679C144.773 78.4851 144.602 81.3265 144.458 83.7408C144.241 87.3558 144.082 90.0136 144.301 93.2214C145.278 107.524 137.879 118.972 129.435 125.913C121.127 132.741 109.565 137.182 97.7365 135.982C83.912 134.58 68.7939 130.777 56.0769 122.421C44.8188 115.024 35.7644 104.206 31.5626 89.6931C29.0929 86.0656 26.9843 82.6838 25.3292 79.9922C20.868 72.7379 19.4836 63.7021 19.8391 56.2948C20.1434 49.9531 21.9591 40.5446 28.618 33.2062C29.2168 31.7778 30.6412 28.611 33.5033 25.6279C36.7802 22.2126 40.9604 20.005 45.5535 19.1247C45.7699 19.0321 46.1792 18.8561 46.8544 18.5505C46.917 18.5222 46.9832 18.4921 47.0531 18.4603C48.8133 17.6603 52.8757 15.8139 58.0151 15.2711C60.8937 14.967 64.088 14.8125 67.6372 15.259C71.1942 15.7065 74.2599 16.6506 77.0013 17.6775C80.0409 18.8161 86.1682 21.9613 89.1352 28.8655Z" fill="black"/>
<path fill-rule="evenodd" clip-rule="evenodd" d="M41.4157 90.0742C40.9511 89.4428 40.4821 88.7611 40.028 88.0349C40.0043 88.0141 39.9798 87.9928 39.9542 87.9704C39.8233 87.856 39.6622 87.7152 39.4092 87.4923C38.6462 86.8197 37.0558 85.4164 35.5264 83.6201C33.9562 81.7758 31.8908 78.8884 30.6351 74.9337C30.6115 74.8783 30.5101 74.6347 30.2475 74.0713C30.2113 73.9934 30.1651 73.8956 30.1108 73.7803C29.7416 72.9976 28.9937 71.412 28.3912 69.8384C26.7696 65.6031 24.9405 58.4317 28.0578 50.1095C28.2838 49.5061 28.4112 49.1223 28.6002 48.5524C28.76 48.0707 28.9639 47.4562 29.3086 46.4639C29.8699 44.8486 30.7453 42.4511 32.0491 39.9635C33.3092 37.5593 35.7474 33.3887 39.4518 29.8213C42.6448 26.7465 52.0303 19.4003 64.3749 24.0244C67.7403 25.285 70.5285 27.4117 72.5813 30.0565C73.6999 30.4528 74.6577 30.8458 75.4245 31.1724C77.6496 32.1201 79.7383 33.1902 81.1491 33.913C81.2013 33.9397 81.2525 33.9659 81.3027 33.9916C83.0126 34.8673 83.6741 35.1912 84.0817 35.3577C85.8281 36.0711 87.4324 36.8178 88.6124 37.3671L88.6538 37.3864C89.9636 37.996 90.7665 38.3678 91.5257 38.6805C92.2223 38.9674 92.6154 39.0898 92.8367 39.1469C93.0243 39.1952 93.0958 39.1984 93.1175 39.1993L93.1188 39.1994C102.207 39.6037 109.718 41.0093 118.481 44.2917C126.547 47.3129 131.22 53.7839 132.932 60.3862C134.335 65.8002 133.669 70.7868 133.177 73.5192C132.646 76.4729 131.816 79.2739 131.33 80.9135L131.301 81.0081C130.884 82.4177 130.743 82.9503 130.716 83.0151C129.266 92.7677 123.834 101.218 120.169 105.994C116.703 110.511 111.682 115.002 106.277 118.343C101.41 121.352 92.8252 125.556 82.9753 124.295C76.11 123.417 70.3543 120.911 65.5496 117.667C63.6812 117.025 62.0155 116.341 60.5926 115.721C53.1103 112.46 48.9177 106.297 46.98 103.045C44.7253 99.2624 43.23 95.4205 42.3613 92.9763C42.0192 92.0139 41.7029 91.0273 41.4157 90.0742Z" fill="#002AFF"/>
<path fill-rule="evenodd" clip-rule="evenodd" d="M56.42 30.6939C61.3443 29.0882 67.3569 28.6591 73.7088 31.0384C80.8677 33.72 87.3251 37.2854 93.094 41.2113C96.2381 41.3799 98.8999 41.9462 100.647 42.3732C103.809 43.1464 106.631 44.1636 108.36 44.8111C110.093 45.4604 113.27 46.7086 116.514 49.1676C119.704 51.585 121.751 54.2684 122.746 55.5891C124.799 58.3138 125.857 60.9751 126.297 62.1498C126.86 63.6536 127.263 65.0894 127.549 66.2971C128.008 68.2353 128.656 71.6288 128.483 75.2766C128.357 77.9279 127.959 80.3992 127.759 81.6396C127.742 81.7464 127.726 81.844 127.712 81.9319C127.532 83.0665 127.497 83.4052 127.492 83.4385C127.37 87.7909 126.382 90.9722 125.578 93.1722C125.571 93.1959 125.564 93.2216 125.556 93.2494C125.548 93.2776 125.538 93.3127 125.526 93.354C125.415 93.7515 125.141 94.7235 124.812 95.706C124.443 96.8107 123.784 98.6212 122.697 100.615C121.623 102.586 119.734 105.48 116.564 108.083C111.877 111.933 106.751 113.517 104.316 114.195C102.309 114.754 99.9298 115.234 98.8328 115.451C92.999 120.766 84.466 122.703 76.5678 119.744C73.2316 118.494 70.7279 116.793 69.059 115.475C67.9318 114.586 66.966 113.687 66.3544 113.097C63.453 111.379 61.4747 109.495 60.447 108.475C59.9207 107.952 59.2757 107.271 59.1189 107.106C59.1009 107.087 59.0894 107.075 59.0852 107.07C59.0819 107.067 59.0787 107.063 59.0756 107.06C55.5195 103.828 53.2946 100.167 52.0269 97.7743C50.8416 95.5374 49.9143 93.2947 49.2212 91.2743C49.1343 91.1358 49.0515 91.0024 48.973 90.8746C48.4692 90.0545 47.9418 89.132 47.662 88.6428C47.6577 88.6353 47.6535 88.6279 47.6493 88.6206C47.4911 88.4877 47.2999 88.3283 47.0697 88.1379C46.9865 88.069 46.8955 87.994 46.7977 87.9133C45.8872 87.1622 44.3804 85.9192 42.9377 84.5736C40.2044 82.0243 33.6723 75.5885 32.1455 65.3968C32.1328 65.3115 32.1146 65.2009 32.0925 65.0666C31.7621 63.0573 30.5569 55.7284 33.4624 47.9716C34.8874 44.1674 37.1259 41.0843 39.0617 38.9738C40.1654 37.7704 41.7427 36.2544 43.8168 34.8484C45.7211 33.5574 49.2876 31.5077 54.1928 30.874C54.9593 30.7749 55.7037 30.7179 56.42 30.6939Z" fill="#FEFC51"/>
<path fill-rule="evenodd" clip-rule="evenodd" d="M94.8475 45.356C101.354 47.9991 110.372 52.6096 116.974 61.7714C118.199 63.4726 119.041 65.1092 119.623 66.4699C120.165 67.7363 120.531 68.8795 120.782 69.7834C121.503 70.9223 122.569 72.759 123.431 75.101C124.233 77.2799 125.465 81.5033 124.726 86.757C123.484 95.5847 117.862 100.766 114.342 103.121C110.919 105.41 107.566 106.429 105.652 106.91C105.638 106.913 105.625 106.917 105.612 106.92C102.536 109.637 98.2809 112.255 92.6692 113.304C92.6207 113.318 92.5653 113.334 92.5028 113.352C92.48 113.359 92.449 113.368 92.4104 113.379C91.8328 113.549 89.531 114.228 86.8867 114.501C83.5375 114.847 79.1328 114.652 74.4392 112.672C69.93 110.769 66.7103 107.873 64.5073 105.286C62.878 103.372 60.2009 99.9777 58.2323 95.576C57.2212 93.3153 56.0522 89.9902 55.6803 86.0072C55.1147 85.3096 54.6481 84.6982 54.3012 84.2414C54.1395 84.0283 54.0037 83.8491 53.8879 83.6963C53.8418 83.6615 53.794 83.6253 53.7449 83.588C50.9563 82.9722 48.2828 81.8085 45.9004 80.1254C45.8635 80.1054 45.8259 80.0849 45.7878 80.064L45.7733 80.056C45.6042 79.9632 44.8415 79.545 43.94 78.9257L43.921 78.9127C43.582 78.68 42.1979 77.73 40.7138 76.2134C40.0569 75.5421 38.196 73.5885 36.7035 70.5191C35.2628 67.5562 32.3688 59.5155 37.1207 50.7065C41.4398 42.6999 48.7591 40.5039 50.922 39.9578C51.9294 39.7035 52.8679 39.5449 53.6952 39.447C53.793 39.3943 53.8915 39.3421 53.9907 39.2904C59.3965 36.4744 64.5126 36.4921 67.5626 36.8653C68.2076 36.9442 68.8206 37.0465 69.3928 37.1611C71.5452 37.4469 73.3222 37.9366 74.3308 38.235C76.6488 38.9206 79.578 40.0959 79.121 39.9247C80.6735 40.5063 82.3347 41.0391 84.6401 41.7785C84.9617 41.8816 85.2958 41.9888 85.644 42.1007C88.2307 42.932 91.5215 44.0048 94.8475 45.356ZM48.8171 81.432C48.8189 81.4327 48.8206 81.4333 48.8224 81.434C48.7953 81.424 48.7905 81.4221 48.8171 81.432ZM73.446 102.341C73.4611 102.346 73.4779 102.353 73.4966 102.36C73.3049 102.298 73.2765 102.278 73.446 102.341ZM54.715 84.3248C54.7559 84.3575 54.741 84.3478 54.681 84.298C54.6963 84.3099 54.7071 84.3185 54.715 84.3248Z" fill="black"/>
<path fill-rule="evenodd" clip-rule="evenodd" d="M57.8135 42.4654C59.1466 41.9277 65.4666 39.3786 72.9244 42.1722L89.1917 48.2657C96.2615 50.9139 101.796 56.11 104.104 58.2769C104.298 58.459 104.469 58.6198 104.616 58.7558C108.658 62.4858 111.389 67.1612 112.624 69.3297C113.745 71.2975 114.441 73.1546 114.726 73.9151L114.734 73.9377C114.736 73.9421 114.737 73.9464 114.739 73.9506C115.141 74.632 115.708 75.6774 116.209 76.9463C116.585 77.8994 117.141 79.5121 117.414 81.5779C117.684 83.6171 117.794 86.9804 116.373 90.7742C114.916 94.6627 112.567 97.1661 111.064 98.5076C110.521 98.9928 109.991 99.4098 109.522 99.7539C108.862 100.371 108.134 100.996 107.339 101.601C107.193 101.713 107.058 101.819 106.807 102.015C106.733 102.074 106.648 102.141 106.549 102.218C106.188 102.501 105.653 102.919 105.056 103.358C103.907 104.203 101.993 105.533 99.5331 106.652C99.5242 106.656 99.5084 106.663 99.4861 106.674C99.1076 106.85 96.8407 107.905 94.3215 108.619C93.1122 108.962 90.4126 109.66 87.1205 109.555C84.2141 109.461 75.8693 108.45 70.8191 100.228C70.7802 100.173 70.7177 100.086 70.6254 99.9588C70.612 99.9403 70.597 99.9198 70.5808 99.8974C70.4853 99.7662 70.3439 99.5719 70.1871 99.3527C70.1338 99.2943 70.0801 99.2347 70.0262 99.174C69.1586 98.1988 67.8438 96.5385 66.7772 94.1942C66.3097 93.1669 65.9925 92.2657 65.7871 91.6318C65.6795 91.2998 65.5859 90.9871 65.5147 90.7418C65.3657 90.4031 65.1541 89.9157 64.9353 89.3704C64.6973 88.7771 64.3763 87.933 64.0771 86.9478C63.9242 86.4446 63.7326 85.7624 63.5584 84.9436C61.1157 83.969 58.3208 82.704 55.972 81.2266C55.6681 81.0355 55.4425 80.8951 55.2435 80.7745C55.1214 80.7006 55.0258 80.6442 54.9514 80.6013C54.6501 80.4949 54.1838 80.3242 53.6649 80.1086C52.2337 79.5137 49.3308 78.1582 46.5919 75.3337C45.7268 74.4415 44.2878 72.8103 43.0889 70.4492C41.8737 68.0561 40.3746 63.8207 41.2825 58.5566C43.2735 47.0122 53.4484 43.9078 54.7057 43.5331C55.0133 43.4414 55.3156 43.3597 55.611 43.2869C56.1737 43.0491 56.7763 42.8256 57.4185 42.6265C57.5197 42.5844 57.6279 42.54 57.7399 42.4951C57.7624 42.486 57.787 42.4761 57.8135 42.4654ZM99.0221 87.8182C99.0169 87.8296 99.0135 87.8373 99.0124 87.8397L99.012 87.8406C98.9966 87.8747 99.0022 87.8631 99.0221 87.8182ZM67.3963 45.3209C67.3652 45.3102 67.372 45.3122 67.4085 45.325L67.3963 45.3209ZM107.458 101.093L107.47 101.086C107.452 101.097 107.448 101.099 107.458 101.093ZM113.633 72.2415C113.625 72.2295 113.628 72.2337 113.64 72.2511L113.633 72.2415Z" fill="#FF00A1"/>
<path fill-rule="evenodd" clip-rule="evenodd" d="M79.1135 47.9004C78.2603 47.4718 77.1813 47.0018 75.9084 46.604C75.6116 46.4897 75.3231 46.38 75.0434 46.2746C74.9835 46.249 74.9041 46.2151 74.8014 46.1712C74.4233 46.0095 73.5729 45.6477 72.5547 45.3006C71.6099 44.9785 69.8643 44.4368 67.687 44.1893C65.6853 43.9617 61.5693 43.7692 57.0256 45.8365C55.5547 46.5058 51.2282 48.6437 48.3081 53.7438C44.5088 60.3794 45.5723 67.3364 47.986 71.9282C49.8866 75.5438 52.4631 77.5912 53.3939 78.2994C54.6007 79.2174 55.6864 79.8233 56.3131 80.1525C58.1334 81.1085 61.0701 82.1209 59.5706 81.5592C61.3853 82.239 63.3394 82.6987 65.3065 82.944C65.3536 82.9633 65.401 82.9825 65.4487 83.0016C66.5679 83.4501 67.5414 84.0154 68.2311 84.5189C68.7594 91.5644 73.2768 98.0074 80.328 100.649C81.7899 101.196 84.9715 102.233 89.0352 101.91C89.986 101.834 90.9582 101.684 91.9348 101.453C93.9438 101.932 96.067 102.084 98.2377 101.854C108.511 100.769 115.96 91.5609 114.875 81.2873C114.396 76.7606 112.393 73.6234 111.896 72.8447L111.884 72.8267C111.089 71.5812 110.293 70.6315 109.816 70.0873C108.83 68.9639 107.83 68.0275 107.187 67.4461C105.908 66.2894 104.429 65.0971 103.386 64.3539C103.213 64.2308 103.045 64.111 102.882 63.9944C99.6009 61.6579 98.0883 60.5806 97.1935 59.6578C91.6254 53.9158 84.6202 50.248 79.1135 47.9004ZM68.8579 76.9122C68.8566 76.9274 68.8554 76.9411 68.8537 76.9599C68.8604 76.8656 68.864 76.8431 68.8579 76.9122ZM60.8371 80.4796C60.8369 80.4794 60.8413 80.4824 60.8508 80.4888C60.842 80.4829 60.8373 80.4797 60.8371 80.4796ZM60.0162 80.5371C60.0159 80.537 60.0232 80.5399 60.039 80.5465C60.0243 80.5406 60.0165 80.5373 60.0162 80.5371Z" fill="white"/>
<path fill-rule="evenodd" clip-rule="evenodd" d="M70.1536 47.428C75.4454 48.0308 80.0929 49.3409 84.6056 51.0313C86.079 51.5832 88.601 52.5436 91.1293 53.8994C93.4271 55.1317 97.2077 57.4456 99.9924 61.3779C101.945 64.1351 104.169 66.5769 107.151 69.8504C107.436 70.163 107.727 70.4831 108.026 70.8118C108.06 70.8489 108.108 70.9007 108.166 70.9647C108.508 71.336 109.227 72.1179 109.806 72.827C110.544 73.7292 111.838 75.4208 112.782 77.7559C113.837 80.364 114.308 83.4009 113.782 86.6371C113.294 89.6401 112.072 92.0354 110.955 93.7521C108.261 97.8892 104.394 99.6811 101.757 100.42C99.1495 101.15 96.765 101.162 95.0961 101.036C92.1059 100.811 88.3262 99.8846 85.1623 97.8249C81.7665 95.6142 78.7627 92.7933 76.7153 90.7474C75.5952 89.6282 74.519 88.366 73.9006 87.6407C73.7966 87.5187 73.7055 87.412 73.6294 87.3236C73.2833 86.9219 73.0561 86.6672 72.8725 86.4736C72.7073 86.2994 72.6342 86.2354 72.634 86.2352L72.6349 86.236C70.9584 84.8032 69.8139 83.3054 69.1683 82.4079C69.0954 82.3066 69.0246 82.2067 68.9564 82.1095C67.7019 81.7125 66.7657 81.5559 65.7336 81.4965C63.6105 81.3743 61.9213 80.7845 61.4523 80.6207L61.4325 80.6137C60.6476 80.3399 59.9267 80.0302 59.3182 79.7432C58.1383 79.1868 56.722 78.4041 55.3488 77.4065C55.3357 77.397 55.3218 77.3869 55.3071 77.3762C54.5029 76.7931 51.3059 74.4749 49.5775 70.3581C48.4586 67.6929 47.5988 63.2961 49.7596 58.6198C51.7097 54.3995 55.0463 52.3373 56.9979 51.4259C57.0391 51.4028 57.1097 51.3632 57.2193 51.301C57.232 51.2938 57.2489 51.2841 57.2698 51.272C57.586 51.0902 58.8241 50.3781 60.3333 49.8357C60.5345 49.7634 60.7385 49.6944 60.9452 49.629C63.5672 47.8989 66.7883 47.0446 70.1536 47.428ZM67.8115 80.4225C67.8114 80.4222 67.8173 80.4299 67.8294 80.4466C67.8177 80.4312 67.8116 80.4229 67.8115 80.4225Z" fill="#FF0000"/>
</svg>
