<svg width="131" height="113" viewBox="0 0 131 113" fill="none" xmlns="http://www.w3.org/2000/svg">
<path d="M79.2753 63.7877C72.6634 63.7877 38.3023 68.2273 43.2141 54.0132C44.7707 49.5088 58.0911 43.6532 62.4114 42.4326C70.1716 40.24 75.187 42.5558 77.8965 49.9228C79.7494 54.9609 86.7085 69.0093 79.6465 72.8185C73.0647 76.3687 60.0429 70.972 54.4567 66.9751C45.7257 60.7279 41.9532 47.5808 52.3355 41.4764C57.739 38.2993 65.1109 35.6523 71.0555 33.6674C75.0884 32.3208 82.5658 28.9421 86.3815 32.7643C93.1612 39.5557 94.1775 50.2957 97.8892 58.4755C101.797 67.0885 94.7716 77.6469 86.4875 79.8307C70.1161 84.1463 52.2951 83.0303 43.4793 67.1344C41.481 63.5313 40.305 54.0588 43.4793 50.879C45.7712 48.5832 53.2174 45.7631 50.3203 43.7075C47.7635 41.8933 47.5682 41.4879 47.7748 37.9703C47.8491 36.7048 50.4546 33.1893 47.2975 33.1893C44.377 33.1893 42.7527 33.5797 40.1383 34.8892C37.606 36.1575 36.4121 38.4944 33.9867 39.8827C31.5323 41.2876 33.1847 44.0061 32.0246 46.098C29.1797 51.2276 32.7433 60.0979 36.7974 63.2565C42.2343 67.4925 49.8508 73.0867 56.3658 75.2621" stroke="black" stroke-width="62" stroke-linecap="round"/>
<path d="M58.9792 59.5377C58.8261 60.7692 54.6447 59.064 53.7969 58.8864C52.4314 58.6004 51.6134 57.5569 50.7739 56.402C49.2276 54.2747 47.7181 52.0912 46.2633 49.793C44.0921 46.3627 50.8689 50.1651 52.0934 50.396C56.4197 51.2115 64.0785 52.1066 68.0482 49.8894C69.5722 49.0382 70.3949 46.0784 72.3668 46.0784C74.2382 46.0784 76.1096 46.0784 77.9809 46.0784C82.7497 46.0784 80.5266 58.4211 79.7084 60.6954C78.1987 64.8916 76.8318 68.3896 73.5664 71.5979C70.1531 74.9515 65.6586 75.3803 61.1864 75.1437C58.1187 74.9813 54.8532 71.5701 52.9571 69.3065C50.8816 66.8285 49.2528 63.8939 46.9831 61.612C45.6039 60.2255 45.053 57.6133 43.4323 56.595C42.4394 55.9711 41.5127 53.5671 41.249 52.3739C40.6182 49.5202 39.5938 45.6922 42.3526 43.4734C45.7358 40.7523 51.8252 42.4885 55.7642 42.605C59.6901 42.7211 63.1899 43.5399 67.0885 42.2673C71.9591 40.6775 75.8749 40 80.956 40C85.8797 40 84.969 48.9316 85.6584 51.9638C86.4655 55.5136 85.7193 59.9374 84.6987 63.3005C83.3712 67.6751 79.0496 74.4808 74.3101 75.602C66.6059 77.4244 60.0663 72.652 54.2287 68.1246C52.2664 66.6027 49.5518 65.9336 47.7509 64.3135C45.9609 62.7034 42.5616 62.5368 41.081 60.6231C39.1801 58.166 36.0907 56.5781 36.0907 53.0251C36.0907 51.0488 35.8715 48.9267 36.1147 46.9708C36.4441 44.321 37.5175 40 40.4093 40" stroke="#002AFF" stroke-width="62" stroke-linecap="round"/>
<path d="M67.1232 60.5769C67.1232 63.0192 67.1232 65.4615 67.1232 67.9038C67.1232 69.7888 65.184 68.5532 64.1487 67.976C62.8903 67.2742 61.6644 67.4784 60.4559 66.3462C59.4693 65.4219 58.1982 64.6324 57.036 63.9519C55.2647 62.9148 53.8579 61.196 51.9924 60.3317C49.0316 58.9601 44.2079 58.2209 42.4944 55.125C41.7544 53.788 41 52.4199 41 50.7692C41 49.9555 41.5099 48.3297 42.2932 47.9135C43.3213 47.3672 46.1003 47.8045 47.1069 48.1154C48.557 48.5633 50.117 48.4633 51.6045 48.8365C53.3945 49.2857 55.2435 49.7243 57.0504 50.0769C61.4954 50.9445 66.2979 50.4519 70.8304 50.4519C72.7844 50.4519 74.6931 49.4135 76.5637 49.4135C79.9592 49.4135 78.2953 55.8268 77.8569 57.851C77.5885 59.0902 77.0155 60.4811 76.4344 61.6154C75.9538 62.5533 75.7162 63.5476 75.2561 64.4712C74.2449 66.5012 73.3602 67.7396 71.4196 69C71.183 69.1536 69.4066 70.1827 70.3562 70.1827C71.2194 70.1827 71.5294 69.8967 72.2386 69.4038C73.6838 68.3996 75.0591 67.2515 76.5493 66.3029C78.1977 65.2536 80.6609 63.8751 81.6648 62.1346C82.2747 61.0772 81.8659 59.2692 81.8659 58.0962C81.8659 57.2055 81.8294 56.66 81.5498 55.8462C80.8866 53.9156 80.7316 51.9224 80.1129 49.9904C79.8051 49.0293 78.6107 47.1637 77.8426 46.6731C76.3416 45.7144 75.7351 45.5192 73.9485 45.5192C71.7337 45.5192 68.4341 45.6284 66.4478 46.7019C64.6002 47.7005 61.7339 47.0262 59.8667 46.5577C55.9929 45.5856 52.0114 45 47.9834 45C45.7785 45 44.3624 47.3563 44.3624 49.3558C44.3624 50.6731 45.4631 51.6982 46.1585 52.7452C47.1749 54.2754 48.5406 55.7129 49.8514 57C52.6884 59.7857 55.6824 62.0938 58.1281 65.25C59.2231 66.6632 60.9926 68.4395 62.6687 69.0865C63.9083 69.5651 65.0079 70.3716 66.3472 70.4423C68.1234 70.5361 69.6972 72 71.5201 72" stroke="#FEFC51" stroke-width="72" stroke-linecap="round"/>
<path d="M65.553 58.6273C62.675 58.6273 60.9929 58.795 58.5709 57.5543C57.2865 56.8963 56.2113 56.109 54.9801 55.4083C53.3789 54.4969 50.6947 54.3587 49.3146 52.9841C48.5272 52.1998 48.246 51.9651 48.3172 50.7586C48.3928 49.4778 49.6603 49.6856 50.6512 49.6856C54.4216 49.6856 58.1919 49.6856 61.9622 49.6856C64.744 49.6856 68.6995 50.5095 71.0988 52.0303C73.0773 53.2844 75.5129 57.0722 75.6072 59.4221C75.6938 61.577 75.4151 64.9079 73.2533 66.1384C71.4159 67.1842 70.5187 68.8465 68.0666 67.4896C65.9923 66.3418 63.3985 64.4791 63.3985 62.0252C63.3985 61.0064 67.7825 61.4887 68.6052 61.4887C71.2141 61.4887 74.6208 61.0748 77.1233 60.3362C78.2379 60.0072 81.3167 58.5561 80.9735 57.0178C80.7588 56.0558 79.1094 55.1421 78.3203 54.6929C77.4574 54.2018 77.05 52.4717 76.086 51.8316C69.8104 47.6643 61.2169 49.3279 53.9827 49.3279C53.023 49.3279 49.7779 49.1716 49.3146 50.0432C48.8829 50.8556 49.2643 52.2008 48.1177 52.5271C47.073 52.8244 45.6083 53.6199 44.5469 53.6199C42.9759 53.6199 45.2313 53.5976 45.8037 53.9776" stroke="black" stroke-width="72" stroke-linecap="round"/>
<path d="M65.816 58.882C66.1641 58.925 65.9023 59.574 66.0232 59.813C66.3331 60.4259 67.1523 61.1862 67.6427 61.6937C68.0421 62.107 68.3289 62.6329 68.7349 63.0344C68.9652 63.2621 69.3732 63.3029 69.6294 63.4999C70.2584 63.9837 70.9841 64.3778 71.6161 64.8778C72.3946 65.4936 74.2598 63.6045 74.7139 63.1554C75.5392 62.3393 76.1377 61.2327 76.7571 60.2599C77.0022 59.8751 77.2141 59.435 77.3786 59.0123C77.5071 58.6818 78 58.3434 78 57.9603C78 57.6526 77.1996 57.2341 77.0113 57.0479C76.335 56.3791 75.7299 55.5311 75.0058 54.9344C73.7406 53.8919 72.1493 52.6986 70.6275 52.0855C68.237 51.1225 65.5475 50 62.9254 50C60.5997 50 58.274 50 55.9483 50C54.2441 50 52.5398 50 50.8356 50C50.0235 50 49.5327 50.9166 48.8677 51.3034C48.4805 51.5286 48.5752 52.1535 47.9261 52.3369C47.5281 52.4493 46.4546 52.8056 47.3423 53.2214C47.7609 53.4174 48.2445 53.3517 48.6982 53.3517C49.7768 53.3517 50.8905 53.565 51.9466 53.78C54.4033 54.2801 57.0464 54.022 59.5451 54.022" stroke="#FF00A1" stroke-width="62" stroke-linecap="round"/>
<path d="M69.7634 60C71.4549 60 69.4671 58.2816 69.209 57.5327C68.9283 56.7179 68.8851 55.8583 67.9894 55.5213C66.398 54.9224 64.8085 54.2897 63.2219 53.6708C60.9368 52.7792 58.3053 52.3302 55.8489 52.2762C55.1467 52.2607 54.3536 51.7897 53.673 52.1555C53.0457 52.4927 52.0146 52.7589 51.3031 52.7589C51.1541 52.7589 49.5732 52.8504 50.1112 52.3298C50.6065 51.8506 51.9702 52.0348 52.5781 52.0348C56.642 52.0348 61.3748 52.3492 65.1068 54.0596C67.3449 55.0854 70.2146 55.7592 72.6184 56.3795C73.2227 56.5354 75.753 57.3497 76 57.8277" stroke="white" stroke-width="62" stroke-linecap="round"/>
<path d="M71.9605 57.4914C71.9605 58.3254 72.1265 58.5123 72.4975 59.2201C72.9751 60.1311 72.3443 58.6143 72.2794 58.2117C72.2035 57.7413 73.127 56.427 72.7996 56.1147C72.5381 55.8653 71.2895 55.5723 70.9032 55.4905C66.2132 54.4963 61.5764 52.5932 56.6889 52.5932C55.1508 52.5932 53.6791 52.305 52.0907 52.305C50.3152 52.305 50.2723 52.983 49.2378 53.9698C48.0099 55.1409 51.9048 55.6046 52.5606 55.4104C55.0581 54.6711 57.2325 54.538 59.8775 54.6101C61.6849 54.6593 62.99 56.3648 64.5765 56.9151C66.1625 57.4652 67.5902 58.4182 69.1076 59.0761C70.7958 59.808 72.7435 60.5546 74.5281 60.9329C75.7109 61.1836 78.5693 60.747 78.8914 59.3642C79.3805 57.2649 78.1609 56.806 76.3574 55.9227C73.367 54.458 70.4434 53.0793 67.6643 51.2806C65.7864 50.0651 62.5575 50 60.4145 50C57.5844 50 55.0126 50.2237 52.3256 50.8644" stroke="#FF0000" stroke-width="46" stroke-linecap="round"/>
</svg>
