<svg width="406" height="320" viewBox="0 0 406 320" fill="none" xmlns="http://www.w3.org/2000/svg">
<path d="M124.777 315.423C138.864 315.423 152.952 315.423 167.039 315.423C189.327 315.423 213.909 318.401 235.796 314.165C272.463 307.068 306.564 286.506 337.143 265.876C367.436 245.439 392.318 218.568 400.071 182.016C406.153 153.344 400.578 118.048 386.293 92.5916C379.196 79.9444 370.957 68.1322 361.255 57.3518C353.371 48.5923 342.675 42.6919 332.904 36.3537C304.003 17.6068 267.398 6.58573 233.014 4.29348C207.478 2.59107 181.481 5.7527 156.308 9.59269C128.238 13.8745 104.999 24.6551 84.106 43.9713C75.4449 51.9788 65.3493 60.1003 58.6698 69.9375C49.9686 82.7519 42.1816 96.4882 35.4195 110.41C17.7925 146.701 13.8914 184.215 13.8914 224.144C13.8914 234.831 13.8914 245.518 13.8914 256.205C13.8914 262.164 16.3866 273.137 15.0838 279C14.5532 281.388 5.27991 263.362 4 264.5C1.33954 266.865 13.8681 279.381 15.0838 281.508C18.0556 286.709 24.3104 268 28 268" stroke="#4DFFAC" stroke-width="6" stroke-linecap="round"/>
</svg>
