<svg width="248" height="193" viewBox="0 0 248 193" fill="none" xmlns="http://www.w3.org/2000/svg">
<g filter="url(#filter0_d_73_760)">
<mask id="path-1-outside-1_73_760" maskUnits="userSpaceOnUse" x="9" y="5" width="230" height="175" fill="black">
<rect fill="white" x="9" y="5" width="230" height="175"/>
<path d="M59.6602 88.8151V32.1859H64.4925V21.1542H69.2716V10H74.688V21.1542H79.4672V32.1859H84.3525V88.8151H78.9361V66.6292H65.0235V88.8151H59.6602ZM65.0235 54.2492H78.9361V33.4116H74.157V22.38H69.8026V33.4116H65.0235V54.2492Z"/>
<path d="M90.7745 88.8151V10H96.1378V21.1542H100.917V32.1859H105.802V65.4035H110.05V10H115.467V88.8151H110.05V77.7835H105.271V66.6292H100.386V33.4116H96.1378V88.8151H90.7745Z"/>
<path d="M121.889 88.8151V10H127.252V21.1542H132.031V32.1859H136.917V65.4035H141.165V10H146.581V88.8151H141.165V77.7835H136.386V66.6292H131.5V33.4116H127.252V88.8151H121.889Z"/>
<path d="M153.003 88.8151V32.1859H157.835V21.1542H162.614V10H168.031V21.1542H172.81V32.1859H177.695V88.8151H172.279V66.6292H158.366V88.8151H153.003ZM158.366 54.2492H172.279V33.4116H167.5V22.38H163.146V33.4116H158.366V54.2492Z"/>
<path d="M14 175V96.1849H19.3633V129.525H23.6114V118.371H29.0278V129.525H33.2759V96.1849H38.6923V175H33.2759V141.66H19.3633V175H14Z"/>
<path d="M49.9465 175V163.968H45.1143V107.339H49.9465V96.1849H64.9212V107.339H69.8066V163.968H64.9212V175H49.9465ZM50.4776 162.743H64.3902V108.565H50.4776V162.743Z"/>
<path d="M81.0608 175V163.968H76.2286V107.339H81.0608V96.1849H96.0355V107.339H100.921V163.968H96.0355V175H81.0608ZM81.5919 162.743H95.5045V108.565H81.5919V162.743Z"/>
<path d="M115.917 175V108.565H111.669V119.597H106.306V107.339H111.138V96.1849H126.113V107.339H130.998V119.597H125.582V108.565H121.334V175H115.917Z"/>
<path d="M135.294 175V118.371H140.126V107.339H144.905V96.1849H150.322V107.339H155.101V118.371H159.986V175H154.57V152.814H140.657V175H135.294ZM140.657 140.434H154.57V119.597H149.791V108.565H145.436V119.597H140.657V140.434Z"/>
<path d="M166.408 175V107.339H171.24V96.1849H186.215V107.339H191.1V141.66H186.215V152.814H183.879V162.743H188.658V175H183.348V163.968H178.462V152.814H171.771V175H166.408ZM171.771 140.434H185.684V108.565H171.771V140.434Z"/>
<path d="M202.355 175V163.968H197.522V96.1849H202.886V162.743H216.798V96.1849H222.215V163.968H217.329V175H202.355Z"/>
<path d="M228.637 152.814V96.1849H234V152.814H228.637ZM228.637 175V162.743H234V175H228.637Z"/>
</mask>
<path d="M59.6602 88.8151V32.1859H64.4925V21.1542H69.2716V10H74.688V21.1542H79.4672V32.1859H84.3525V88.8151H78.9361V66.6292H65.0235V88.8151H59.6602ZM65.0235 54.2492H78.9361V33.4116H74.157V22.38H69.8026V33.4116H65.0235V54.2492Z" fill="black"/>
<path d="M90.7745 88.8151V10H96.1378V21.1542H100.917V32.1859H105.802V65.4035H110.05V10H115.467V88.8151H110.05V77.7835H105.271V66.6292H100.386V33.4116H96.1378V88.8151H90.7745Z" fill="black"/>
<path d="M121.889 88.8151V10H127.252V21.1542H132.031V32.1859H136.917V65.4035H141.165V10H146.581V88.8151H141.165V77.7835H136.386V66.6292H131.5V33.4116H127.252V88.8151H121.889Z" fill="black"/>
<path d="M153.003 88.8151V32.1859H157.835V21.1542H162.614V10H168.031V21.1542H172.81V32.1859H177.695V88.8151H172.279V66.6292H158.366V88.8151H153.003ZM158.366 54.2492H172.279V33.4116H167.5V22.38H163.146V33.4116H158.366V54.2492Z" fill="black"/>
<path d="M14 175V96.1849H19.3633V129.525H23.6114V118.371H29.0278V129.525H33.2759V96.1849H38.6923V175H33.2759V141.66H19.3633V175H14Z" fill="black"/>
<path d="M49.9465 175V163.968H45.1143V107.339H49.9465V96.1849H64.9212V107.339H69.8066V163.968H64.9212V175H49.9465ZM50.4776 162.743H64.3902V108.565H50.4776V162.743Z" fill="black"/>
<path d="M81.0608 175V163.968H76.2286V107.339H81.0608V96.1849H96.0355V107.339H100.921V163.968H96.0355V175H81.0608ZM81.5919 162.743H95.5045V108.565H81.5919V162.743Z" fill="black"/>
<path d="M115.917 175V108.565H111.669V119.597H106.306V107.339H111.138V96.1849H126.113V107.339H130.998V119.597H125.582V108.565H121.334V175H115.917Z" fill="black"/>
<path d="M135.294 175V118.371H140.126V107.339H144.905V96.1849H150.322V107.339H155.101V118.371H159.986V175H154.57V152.814H140.657V175H135.294ZM140.657 140.434H154.57V119.597H149.791V108.565H145.436V119.597H140.657V140.434Z" fill="black"/>
<path d="M166.408 175V107.339H171.24V96.1849H186.215V107.339H191.1V141.66H186.215V152.814H183.879V162.743H188.658V175H183.348V163.968H178.462V152.814H171.771V175H166.408ZM171.771 140.434H185.684V108.565H171.771V140.434Z" fill="black"/>
<path d="M202.355 175V163.968H197.522V96.1849H202.886V162.743H216.798V96.1849H222.215V163.968H217.329V175H202.355Z" fill="black"/>
<path d="M228.637 152.814V96.1849H234V152.814H228.637ZM228.637 175V162.743H234V175H228.637Z" fill="black"/>
<path d="M59.6602 88.8151V32.1859H64.4925V21.1542H69.2716V10H74.688V21.1542H79.4672V32.1859H84.3525V88.8151H78.9361V66.6292H65.0235V88.8151H59.6602ZM65.0235 54.2492H78.9361V33.4116H74.157V22.38H69.8026V33.4116H65.0235V54.2492Z" stroke="#4AFFA0" stroke-width="10" mask="url(#path-1-outside-1_73_760)"/>
<path d="M90.7745 88.8151V10H96.1378V21.1542H100.917V32.1859H105.802V65.4035H110.05V10H115.467V88.8151H110.05V77.7835H105.271V66.6292H100.386V33.4116H96.1378V88.8151H90.7745Z" stroke="#4AFFA0" stroke-width="10" mask="url(#path-1-outside-1_73_760)"/>
<path d="M121.889 88.8151V10H127.252V21.1542H132.031V32.1859H136.917V65.4035H141.165V10H146.581V88.8151H141.165V77.7835H136.386V66.6292H131.5V33.4116H127.252V88.8151H121.889Z" stroke="#4AFFA0" stroke-width="10" mask="url(#path-1-outside-1_73_760)"/>
<path d="M153.003 88.8151V32.1859H157.835V21.1542H162.614V10H168.031V21.1542H172.81V32.1859H177.695V88.8151H172.279V66.6292H158.366V88.8151H153.003ZM158.366 54.2492H172.279V33.4116H167.5V22.38H163.146V33.4116H158.366V54.2492Z" stroke="#4AFFA0" stroke-width="10" mask="url(#path-1-outside-1_73_760)"/>
<path d="M14 175V96.1849H19.3633V129.525H23.6114V118.371H29.0278V129.525H33.2759V96.1849H38.6923V175H33.2759V141.66H19.3633V175H14Z" stroke="#4AFFA0" stroke-width="10" mask="url(#path-1-outside-1_73_760)"/>
<path d="M49.9465 175V163.968H45.1143V107.339H49.9465V96.1849H64.9212V107.339H69.8066V163.968H64.9212V175H49.9465ZM50.4776 162.743H64.3902V108.565H50.4776V162.743Z" stroke="#4AFFA0" stroke-width="10" mask="url(#path-1-outside-1_73_760)"/>
<path d="M81.0608 175V163.968H76.2286V107.339H81.0608V96.1849H96.0355V107.339H100.921V163.968H96.0355V175H81.0608ZM81.5919 162.743H95.5045V108.565H81.5919V162.743Z" stroke="#4AFFA0" stroke-width="10" mask="url(#path-1-outside-1_73_760)"/>
<path d="M115.917 175V108.565H111.669V119.597H106.306V107.339H111.138V96.1849H126.113V107.339H130.998V119.597H125.582V108.565H121.334V175H115.917Z" stroke="#4AFFA0" stroke-width="10" mask="url(#path-1-outside-1_73_760)"/>
<path d="M135.294 175V118.371H140.126V107.339H144.905V96.1849H150.322V107.339H155.101V118.371H159.986V175H154.57V152.814H140.657V175H135.294ZM140.657 140.434H154.57V119.597H149.791V108.565H145.436V119.597H140.657V140.434Z" stroke="#4AFFA0" stroke-width="10" mask="url(#path-1-outside-1_73_760)"/>
<path d="M166.408 175V107.339H171.24V96.1849H186.215V107.339H191.1V141.66H186.215V152.814H183.879V162.743H188.658V175H183.348V163.968H178.462V152.814H171.771V175H166.408ZM171.771 140.434H185.684V108.565H171.771V140.434Z" stroke="#4AFFA0" stroke-width="10" mask="url(#path-1-outside-1_73_760)"/>
<path d="M202.355 175V163.968H197.522V96.1849H202.886V162.743H216.798V96.1849H222.215V163.968H217.329V175H202.355Z" stroke="#4AFFA0" stroke-width="10" mask="url(#path-1-outside-1_73_760)"/>
<path d="M228.637 152.814V96.1849H234V152.814H228.637ZM228.637 175V162.743H234V175H228.637Z" stroke="#4AFFA0" stroke-width="10" mask="url(#path-1-outside-1_73_760)"/>
</g>
<defs>
<filter id="filter0_d_73_760" x="0.7" y="0.7" width="246.6" height="191.6" filterUnits="userSpaceOnUse" color-interpolation-filters="sRGB">
<feFlood flood-opacity="0" result="BackgroundImageFix"/>
<feColorMatrix in="SourceAlpha" type="matrix" values="0 0 0 0 0 0 0 0 0 0 0 0 0 0 0 0 0 0 127 0" result="hardAlpha"/>
<feOffset dy="4"/>
<feGaussianBlur stdDeviation="4.15"/>
<feComposite in2="hardAlpha" operator="out"/>
<feColorMatrix type="matrix" values="0 0 0 0 0 0 0 0 0 0 0 0 0 0 0 0 0 0 0.43 0"/>
<feBlend mode="normal" in2="BackgroundImageFix" result="effect1_dropShadow_73_760"/>
<feBlend mode="normal" in="SourceGraphic" in2="effect1_dropShadow_73_760" result="shape"/>
</filter>
</defs>
</svg>
