<svg width="797" height="566" viewBox="0 0 797 566" fill="none" xmlns="http://www.w3.org/2000/svg">
<rect x="0.5" y="0.5" width="796" height="565" fill="#FB9600" stroke="black"/>
<path d="M49.9067 189.12C68.2132 189.12 86.5197 189.12 104.826 189.12C114.924 189.12 101.483 185.484 99.1701 184.559C95.6464 183.149 85.8742 183.184 82.0191 184.285C72.2579 187.074 102.155 187.478 112.307 187.478C124.075 187.478 135.844 187.478 147.612 187.478C157.173 187.478 167.767 186.192 177.17 184.103C182.015 183.026 186.025 182.852 191.128 182.552C192.983 182.443 201.97 178.399 198.609 179.359C195.243 180.32 190.23 182.995 187.479 185.471C183.532 189.023 174.669 188.407 180.455 185.836C182.777 184.804 209.761 169.383 197.606 167.864C183.635 166.118 169.97 164.393 156.826 158.832C154.527 157.859 132.762 151.578 140.953 149.345C158.327 144.606 174.213 139.666 191.22 133.288C203.827 128.56 215.978 123.888 228.897 120.06C236.427 117.829 245.618 112.357 253.529 111.941C280.619 110.515 199.166 106.106 173.43 97.5269C165.365 94.8384 171.312 88.8495 175.528 86.5794C181.79 83.2079 189.452 82.3829 196.42 82.3829C230.077 82.3829 263.72 80.6909 296.953 86.0321C310.177 88.1574 323.787 88.9514 337.185 88.9514C341.572 88.9514 348.771 87.8775 348.771 93.8777C348.771 103.146 344.651 113.83 347.494 123.071C351.253 135.287 357.935 146.557 363.915 157.92C368.363 166.371 370.118 177.184 370.118 186.657C370.118 191.966 372.977 192.404 365.192 192.404C360.382 192.404 357.872 189.12 352.876 189.12C341.939 189.12 330.429 185.836 319.213 185.836C298.61 185.836 278.052 184.194 257.543 184.194C245.926 184.194 234.31 184.194 222.693 184.194C213.308 184.194 215.665 184.194 223.149 184.194C269.988 184.194 316.523 177.625 363.459 177.625C369.82 177.625 380.027 178.314 369.389 172.699C353.342 164.23 335.654 159.315 319.304 151.443C304.922 144.518 289.639 137.966 274.511 132.923C260.201 128.153 284.777 128.531 288.469 128.18C304.84 126.62 321.35 122.966 337.732 120.881C343.249 120.179 359.805 118.509 354.245 118.509C341.003 118.509 328.117 118.461 315.017 120.152C311.603 120.592 306.006 120.884 302.883 122.706C301.138 123.724 299.797 128.212 302.792 128.362C326.194 129.532 349.978 128.362 373.403 128.362C379.535 128.362 401.319 125.847 401.319 136.573C401.319 140.634 400.137 146.926 402.14 150.531C406.503 158.385 409.529 169.438 409.529 178.446C409.529 182.471 410.71 187.529 407.522 190.397C405.094 192.583 402.189 199.937 406.245 194.868C412.779 186.7 419.928 181.341 430.147 177.625C445.496 172.044 461.958 164.489 478.498 164.489C492.808 164.489 513.147 158.292 527.123 163.667C535.373 166.841 547.28 169.223 555.951 170.874C561.461 171.924 563.971 174.697 568.814 177.26C573.01 179.482 576.904 182.667 581.13 185.015C585.184 187.267 590.78 186.841 595.088 188.755C602.625 192.105 617.94 194.047 626.288 194.047C639.972 194.047 653.656 194.047 667.341 194.047C674.382 194.047 690.879 190.747 680.113 182.917C675.964 179.899 658.535 181.397 653.656 180.91C634.373 178.981 614.652 176.131 595.818 171.422C586.868 169.185 585.032 166.685 594.358 163.576C614.186 156.967 632.896 152.889 653.656 149.71C662.296 148.386 671.811 146.744 679.748 142.776C684.203 140.548 685.912 136.166 689.509 133.288C697.036 127.267 670.579 128.204 660.955 128.727C618.912 131.012 577.034 139.596 535.242 144.418C532.499 144.735 493.051 150.15 491.726 145.513C489.945 139.279 531.352 134.023 535.972 133.288C559.963 129.472 583.089 121.702 607.13 117.962C623.436 115.426 640.69 115.659 656.576 111.211C672.913 106.637 651.291 108.657 644.716 108.657C608.615 108.657 574.95 113.261 539.347 120.152C500.588 127.653 461.989 136.301 422.848 141.499C416.718 142.313 382.32 148.487 380.062 140.587C377.751 132.495 509.568 99.6533 521.102 94.6075C532.047 89.8187 507.581 92.2356 504.042 92.2356C466.25 92.2356 428.713 86.1732 391.192 82.2917C378.222 80.9499 365.328 78.6311 352.329 77.5478C349.073 77.2765 343.56 78.0844 340.925 75.4496C338.154 72.6779 359.343 68.5756 360.448 68.3338C398.285 60.0569 437.421 61.0355 476.035 61.0355C497.432 61.0355 519.002 59.3934 540.168 59.3934C541.094 59.3934 548.379 59.355 548.379 57.7513C548.379 54.1629 541.202 57.7513 537.614 57.7513C522.051 57.7513 504.75 61.2085 489.263 63.0425C439.793 68.9008 391.592 70.8882 341.838 70.8882C314.399 70.8882 290.351 67.3254 265.936 56.4741C258.193 53.0331 248.672 54.2533 240.574 52.0039C231.546 49.4961 221.717 48.1395 212.476 45.8916C195.878 41.8543 175.625 41.3302 158.651 41.3302C131.115 41.3302 103.386 42.9723 76.1805 42.9723C66.0079 42.9723 74.5796 43.6724 79.6472 42.06C102.437 34.8086 129.403 36.4038 152.812 36.4038C197.339 36.4038 241.472 35.6569 285.732 39.5056C306.48 41.3097 327.058 41.033 347.859 41.3302C373.648 41.6986 399.066 46.2565 424.673 46.2565C460.56 46.2565 495.99 48.3674 531.775 49.5407C558.461 50.4157 584.754 52.8249 611.509 52.8249C633.426 52.8249 655.028 55.2631 676.92 56.0179C685.625 56.3181 695.258 57.0374 703.923 56.0179C706.746 55.6858 710.948 51.1828 710.948 51.1828C710.948 51.1828 705.255 59.495 701.004 61.8565C689.458 68.2709 676.262 68.2382 663.509 70.8882C642.916 75.1672 624.758 83.9969 604.94 88.9514" stroke="black" stroke-width="64" stroke-linecap="round"/>
<path d="M132.992 180.674C132.748 182.625 96.2784 182.222 91.6433 182.767C77.9835 184.374 64.8096 188.82 51.0296 188.82C49.9339 188.82 40.6623 187.213 44.9772 184.747C48.0067 183.016 51.923 182.699 55.1589 181.127C57.8068 179.841 60.4381 178.384 63.3042 177.62C77.5965 173.809 93.3034 175.584 108.047 175.584C116.669 175.584 126.391 168.678 126.883 160.311C127.443 150.791 140.636 145.09 148.491 141.984C152.916 140.235 163.614 139.26 166.366 134.857C168.569 131.331 171.289 126.639 168.628 122.413C166.334 118.768 162.519 116.894 162.519 112.457C162.519 106.45 161.938 100.862 166.139 96.1665C168.893 93.0888 169.646 85.7835 169.646 81.9121C169.646 72.7441 158.264 67.4758 152.846 62.0579C138.576 47.7875 115.412 50.3489 96.8472 50.3489C89.7795 50.3489 58.6659 54.1083 58.6659 41.6945C58.6659 34.5355 63.7513 33.0401 70.8274 33.0401C77.0816 33.0401 83.0755 32.0219 89.3241 32.0219C114.394 32.0219 139 28.508 164.103 31.23C188.11 33.8332 211.79 36.6368 235.488 41.4117C260.159 46.3827 285.716 47.6854 310.154 53.6297C322.699 56.6812 303.925 57.3954 299.406 57.4761C281.469 57.7964 263.496 57.4761 245.556 57.4761C226.223 57.4761 207.064 57.9733 187.973 54.4216C179.885 52.9168 168.822 53.7834 161.501 50.1227C157.48 48.1124 152.865 48.9531 149.735 45.8237C146.025 42.1129 141.659 40.7423 137.574 37.5653C130.743 32.2519 137.387 34.3288 142.156 32.4744C150.377 29.2774 159.95 29.9856 168.685 29.9856C181.529 29.9856 194.346 27.9492 207.318 27.9492C221.95 27.9492 236.581 27.9492 251.213 27.9492C266.804 27.9492 283.143 32.4687 298.445 35.5289C305.346 36.9092 312.889 37.9378 319.883 38.9228C326.859 39.9054 333.778 41.3817 340.699 42.7127C342.017 42.9661 361.584 45.6538 356.989 48.0863C353.378 49.9982 348.606 50.3075 344.771 51.8762C340.594 53.5852 335.76 55.502 331.309 56.2317C314.309 59.0184 297.044 64.4341 280.627 69.6941C271.974 72.4663 263.512 73.6765 254.663 75.3506C246.789 76.8403 239.296 77.065 231.415 78.0657C222.676 79.1754 213.874 78.8576 205.056 78.8576C200.718 78.8576 193.012 80.4181 188.991 78.6314C186.359 77.4612 184.158 73.5718 182.091 71.5042C180.681 70.0948 178.803 71.4414 180.394 72.8052C181.832 74.038 184.795 76.1912 185.711 77.8395C189.331 84.3553 188.991 90.9528 188.991 98.2028C188.991 104.205 183.834 109.769 181.355 115.003C174.154 130.206 164.005 142.535 152.337 154.202C147.38 159.159 141.265 162.474 135.594 166.477C127.959 171.866 117.794 173.003 109.122 177.111C96.7055 182.992 82.6662 185.851 69.4698 189.272C63.513 190.817 57.1534 188.356 52.0478 192.327C51.5291 192.73 42.127 196.385 43.959 196.909C48.2463 198.134 53.7304 195.947 58.1568 195.947C70.356 195.947 82.5552 195.947 94.7543 195.947C114.839 195.947 134.881 193.911 154.996 193.911C167.346 193.911 179.696 193.911 192.046 193.911C204.862 193.911 215.683 182.459 226.89 177.62C231.064 175.817 234.547 173.005 238.316 170.493C240.887 168.779 246.276 165.988 247.819 163.366C252.943 154.654 235.216 156.98 231.189 158.275C225.515 160.099 220.099 162.987 214.389 164.949C204.403 168.382 194.358 172.117 184.466 175.81C172.451 180.296 161.895 186.783 148.717 186.783C145.433 186.783 141.815 185.982 139.667 183.22C136.108 178.644 145.804 176.082 148.152 175.357C155.198 173.181 162.52 172.35 169.59 170.267C181.145 166.861 192.394 162.646 203.811 158.84C217.923 154.137 232.101 149.243 246.348 145.039C251.398 143.549 260.263 136.075 260.263 130.275C260.263 126.12 252.108 127.447 249.516 127.956C242.921 129.251 235.237 138.13 230.058 142.097C219.163 150.442 207.379 157.543 194.195 161.556C189.334 163.035 180.491 166.581 175.359 163.818C172.443 162.248 173.573 155.862 173.719 153.184C174.396 140.772 190.811 130.285 199.626 124.053C209.7 116.93 221.925 111.016 230.963 102.615C233.265 100.475 238.773 92.6171 237.411 89.2656C236.258 86.4263 227.962 86.877 225.589 87.0596C214.284 87.9292 209.5 103.49 203.868 111.326C197.265 120.513 191.028 126.977 191.028 138.93C191.028 142.273 191.09 143.355 192.838 146.057C198.078 154.154 211.575 129.045 211.957 128.465C232.426 97.3894 257.052 70.3433 285.944 46.955C291.557 42.4106 287.971 54.0277 286.736 56.2317C276.825 73.9095 264.236 90.1598 254.55 108.102C244.155 127.358 230.734 144.93 220.781 164.384C219.702 166.493 218.439 168.684 217.557 170.889C216.579 173.333 220.267 166.375 221.686 164.158C231.378 149.013 240.495 133.724 250.76 118.906C256.338 110.854 268.46 98.9928 269.37 88.5302C270.035 80.8908 266.805 79.6272 258.679 82.9303C252.315 85.5174 248.635 95.1143 245.387 100.861C239.599 111.102 232.561 120.722 228.926 132.029C226.719 138.897 227.547 146.368 224.401 153.184C220.085 162.537 214.142 170.534 209.581 179.656C208.921 180.976 203.661 188.328 206.866 187.745C213.515 186.536 217.746 179.581 224.118 177.62C232.062 175.176 241.534 173.848 249.799 173.038C267.154 171.337 285.582 170.226 303.026 171.568C310.641 172.153 320.349 177.135 327.406 180.222C333.215 182.763 339.047 186.031 344.319 189.385C353.929 195.501 371.712 196.084 381.991 192.383C385.671 191.059 389.678 190.115 393.134 188.254C396.453 186.467 398.682 183.881 401.789 181.919C408.43 177.724 404.81 173.691 398.508 173.547C388.923 173.329 378.91 174.722 369.66 171.963C357.555 168.353 346.745 165.203 336.626 157.03C323.789 146.662 309.022 136.598 293.184 131.576C283.305 128.444 267.805 127.022 262.073 137.911C257.776 146.077 266.079 141.273 271.35 144.473C279.505 149.424 288.334 153.035 297.257 156.238C302.608 158.159 309.546 160.398 313.774 164.384C314.992 165.532 317.407 168.576 319.317 168.456C321.18 168.34 317.682 164.898 317.564 164.78C313.415 160.631 308.181 157.497 302.8 155.22C290.09 149.843 274.052 145.523 260.263 144.247C259.203 144.148 247.537 145.042 247.084 143.455C245.987 139.616 250.658 134.519 252.797 131.916C259.93 123.232 268.084 115.539 275.649 107.253C280.502 101.938 285.023 96.3723 289.79 91.0757C292.629 87.9215 293.67 82.2964 295.786 78.5182C297.641 75.206 302.113 60.1343 303.083 72.7486C304.68 93.5061 316.748 110.492 328.424 127.108C341.887 146.267 357.714 168.456 383.971 168.456C390.372 168.456 398.359 168.884 400.997 161.556C403.539 154.494 393.681 156.238 388.779 156.238C378.831 156.238 365.737 154.007 357.442 148.319C352.261 144.767 352.133 140.765 348.844 135.649C343.335 127.079 339.648 119.523 329.725 115.512C320.085 111.615 308.793 111.214 298.954 114.494C293.255 116.393 280.585 119.54 285.152 108.724C290.191 96.7891 304.529 89.0783 316.036 85.1929C330.01 80.4746 344.62 77.8587 358.686 73.3143C365.693 71.0505 375.394 64.1105 378.145 56.6842C381.093 48.7236 367.127 49.3626 362.533 48.0863C359.192 47.1585 356.219 44.6464 353.426 42.7127C350.091 40.4043 346.053 39.7093 342.735 37.339C334.058 31.1409 319.65 27.9492 309.135 27.9492C302.951 27.9492 296.766 27.9492 290.582 27.9492C285.774 27.9492 280.966 27.9492 276.158 27.9492C264.07 27.9492 254.63 30.3711 242.954 34.0582" stroke="white" stroke-width="26" stroke-linecap="round"/>
<path d="M200.317 191.513C185.001 191.513 169.685 191.513 154.368 191.513C138.113 191.513 121.83 188.924 105.471 188.924C95.3428 188.924 83.5322 187.32 73.7592 190.578C68.6251 192.289 62.8364 191.513 57.4361 191.513C54.3949 191.513 52.0686 191.346 49.8498 189.571C48.9856 188.88 59.282 187.052 59.7372 186.982C65.4822 186.099 70.8671 184.455 76.5637 183.243C90.1016 180.363 103.021 179.216 116.832 179.216C121.574 179.216 126.677 179.735 131.394 179.18C135.465 178.701 137.237 175.008 138.836 171.81C139.626 170.229 140.292 168.619 140.778 166.92C141.096 165.806 141.104 163.199 141.748 162.426C142.745 161.229 142.44 160.434 144.013 159.298C146.614 157.419 149.417 155.548 152.211 153.977C160.866 149.108 169.163 145.345 172.129 135.173C173.734 129.671 171.58 124.506 170.224 119.353C169.17 115.346 169.253 111.218 169.253 107.093C169.253 102.651 168.987 98.7289 171.482 94.7963C174.953 89.3273 178.908 83.2372 180.579 76.9271C181.492 73.4782 185.096 66.8107 183.994 63.2286C182.807 59.3707 178.612 54.9171 175.401 52.6941C170.488 49.2927 159.782 51.0762 154.152 51.0762C137.146 51.0762 120.601 50.6516 103.961 46.8696C97.2069 45.3346 89.9094 45.9703 83.0354 44.7483C77.6613 43.7929 72.3195 45.2516 66.9999 45.2516" stroke="black" stroke-width="26" stroke-linecap="round"/>
<path d="M68.2944 44.6042C67.6402 42.4237 63.7642 41.9754 63.7642 39.4268C63.7642 37.8313 66.6505 38.0721 67.6472 37.6291C73.2228 35.1511 82.0968 36.8381 87.9972 36.8381C108.946 36.8381 129.896 36.8381 150.845 36.8381C161.063 36.8381 171.309 36.2691 181.55 36.1909C196.402 36.0776 210.993 33.6023 225.845 33.6023C245.239 33.6023 264.613 32.9551 284.018 32.9551C288.764 32.9551 293.51 32.9551 298.256 32.9551C303.375 32.9551 308.396 35.0016 313.249 36.4786C320.568 38.7061 327.668 41.723 334.786 44.4604C340.208 46.546 344.825 51.0722 350.174 53.0174C354.268 54.5062 359.29 56.4119 363.081 58.5184C364.537 59.3269 366.291 59.0365 363.728 60.4599C361.748 61.56 359.377 62.1778 357.437 63.3722C352.319 66.5212 345.151 67.1536 339.424 68.5855C334.381 69.8462 329.81 73.2517 324.898 74.9853C320.798 76.4326 317.236 78.6758 313.573 80.9896C310.239 83.0949 301.594 93.4138 306.202 97.3128C307.908 98.7566 309.727 99.5016 311.308 101.268C313.492 103.709 314.215 107.02 315.478 109.969C317.721 115.203 319.532 119.413 323.136 123.919C325.887 127.356 330.362 127.433 333.779 129.671C337.966 132.415 339.804 138.259 341.689 142.543C344.571 149.094 345.931 156.54 345.931 163.684" stroke="black" stroke-width="26" stroke-linecap="round"/>
<path d="M345.931 163.684C359.713 163.684 373.278 164.331 387.027 164.331C392.079 164.331 397.613 167.39 399.611 172.385C400.26 174.009 403.23 178.055 400.617 179.216C398.75 180.046 396.962 181.241 395.116 182.164C383.864 187.79 372.387 189.571 359.881 189.571C353.005 189.571 344.244 184.239 338.273 181.157C329.774 176.771 321.343 172.128 313.141 167.207C303.571 161.465 295.168 161.742 284.27 161.742C270.525 161.742 255.319 160.077 241.952 163.684C232.418 166.257 222.912 166.516 214.124 171.594C210.108 173.914 205.737 175.335 201.756 177.778C199.812 178.97 195.47 181.107 194.349 183.099C193.906 183.887 200.771 181.521 201.756 181.157C205.805 179.661 210.251 178.953 214.412 177.778C221.149 175.874 227.203 172.076 233.755 169.652C241.082 166.942 248.208 164.284 255.759 162.246C269.218 158.612 282.87 156.114 296.818 155.918C301.759 155.848 306.596 155.271 311.559 155.271C313.991 155.271 318.238 154.666 320.188 156.421C322.426 158.435 327.755 159.042 329.105 161.742" stroke="black" stroke-width="26" stroke-linecap="round"/>
<path d="M194.302 180.374C180.332 180.374 166.361 180.374 152.391 180.374C143.576 180.374 134.912 181.942 125.99 181.942C116.898 181.942 107.3 181.757 98.2812 182.9C86.9407 184.338 76.2045 189.784 64.7349 189.784C59.3098 189.784 60.8692 189.659 65.6933 188.39C72.3685 186.633 79.0304 187.183 85.6904 185.471C93.6576 183.422 101.92 183.21 110.088 182.683C114.526 182.396 118.661 180.555 123.114 180.374C126.863 180.221 131.023 179.905 134.703 179.197C141.677 177.856 153.524 179.829 153.524 170.179C153.524 164.617 163.329 162.254 165.897 157.632C168.958 152.121 174.697 146.904 174.697 139.987C174.697 135.407 177.05 131.08 177.05 126.656C177.05 123.243 177.05 119.83 177.05 116.418C177.05 106.284 178.539 91.8301 183.323 82.7406C186.821 76.0947 191.447 64.6187 186.024 57.6462C184.147 55.2324 179.866 54.4834 176.963 54.1609C168.688 53.2415 160.502 51.8543 152.304 50.1963C142.549 48.2233 133.09 46.2753 123.114 46.2753C113.107 46.2753 103.21 47.0595 93.2275 47.0595C86.0897 47.0595 74.6071 46.932 69.0044 41.7444C65.7741 38.7533 69.8506 37.7295 73.1432 36.5164C79.5447 34.1579 87.33 35.2965 94.0117 35.2965C104.618 35.2965 115.102 33.7281 125.685 33.7281C140.662 33.7281 155.415 30.3099 170.34 29.8507C183.412 29.4485 196.532 29.4879 209.55 29.0229C215.892 28.7964 222.111 26.8373 228.458 26.6703C233.971 26.5252 239.279 27.387 244.665 28.413C249.784 29.388 255.056 29.0781 260.175 29.9814C266.158 31.0373 272.691 33.1451 278.386 35.2965C293.272 40.9202 310.22 41.8173 325.612 45.6654C334.959 48.002 339.194 52.9054 340.904 62.3078C341.518 65.6838 336.96 67.0109 334.151 67.7972C327.915 69.5433 325.045 69.236 320.166 74.1144C313.823 80.458 308.795 87.4777 308.795 96.6384C308.795 102.303 312.803 107.412 315.417 112.497C320.869 123.096 325.715 134.495 333.89 143.124C337.08 146.492 341.114 151.115 342.516 155.671C343.528 158.961 343.832 164.343 346.045 166.999C349.399 171.024 356.377 170.179 360.945 170.179C368.18 170.179 376.161 169.398 383.207 171.355C393.083 174.098 382.119 179.589 377.064 179.589C368.704 179.589 358.549 184.556 350.184 181.768C340.468 178.529 332.541 170.019 322.737 166.868C307.207 161.876 289.325 162.477 273.158 163.165C255.362 163.922 237.626 167.113 220.573 172.183C211.152 174.984 201.794 178.021 191.95 178.021" stroke="white" stroke-width="11" stroke-linecap="round"/>
<path d="M361.323 176.488C359.039 178.518 353.143 176.879 350.818 175.588C347.566 173.781 344.04 172.082 340.647 170.486C333.768 167.248 327.571 163.59 322.606 157.58C320.548 155.089 318.999 152.463 317.837 149.477C317.555 148.751 315.441 142.802 315.837 142.407C318.505 139.738 326.705 149.321 327.708 151.578C329.158 154.84 327.006 152.591 325.908 150.944C323.114 146.754 319.814 142.483 317.771 137.872C313.213 127.585 305.418 118.421 302.231 107.492C300.012 99.8851 300.624 92.3202 301.897 84.6821C303.314 76.1829 305.953 70.2823 314.169 66.1742C317.37 64.5737 320.591 63.1582 323.64 61.2387C325.282 60.2049 326.875 61.0909 328.575 60.6051C330.107 60.1676 329.516 58.076 328.609 57.3704C327.031 56.1434 324.332 55.2361 322.306 55.2361C316.282 55.2361 310.663 54.8274 305.199 51.9347C302.369 50.4368 298.373 49.2645 295.294 48.3665C291.563 47.2781 287.782 45.7528 284.023 44.8984C276.512 43.1914 269.137 40.7611 261.713 38.7624C255.234 37.0178 247.712 35.4276 241.004 35.4276C235.112 35.4276 227.657 34.1634 222.063 36.0279" stroke="black" stroke-width="20" stroke-linecap="round"/>
<path d="M222.663 36.0283C212.959 36.0283 203.255 36.0283 193.551 36.0283C185.852 36.0283 178.927 37.5802 171.341 38.7295C167.375 39.3304 162.171 39.1961 158.436 40.5303C154.727 41.8547 149.077 40.8304 145.097 40.8304C142.74 40.8304 140.384 40.8304 138.027 40.8304C135.823 40.8304 131.976 41.5752 129.89 40.697C126.523 39.2793 121.032 40.2301 117.351 40.2301C112.227 40.2301 107.103 40.2301 101.978 40.2301C94.9062 40.2301 87.9295 40.8304 81.0024 40.8304" stroke="black" stroke-width="20" stroke-linecap="round"/>
<path d="M151.232 42.0303C151.426 43.5783 166.719 42.6001 168.573 42.6305C175.448 42.7432 180.234 46.8557 186.314 48.7665C191.982 50.5479 198.246 57.0177 201.054 61.9722C203.754 66.7379 200.585 72.8414 197.752 76.5451C193.956 81.5094 190.456 86.3215 188.148 92.2185C186.294 96.958 187.152 103.32 187.248 108.325C187.328 112.478 189.294 116.478 189.616 120.664C189.927 124.706 189.649 128.882 189.649 132.936C189.649 140.68 188.161 147.151 184.547 153.978C182.573 157.707 180.084 161.551 176.743 164.149C175.831 164.859 168.808 169.313 173.442 168.651C176.043 168.28 178.283 166.409 180.578 165.283C185.359 162.938 190.567 161.506 195.652 159.981C204.035 157.466 213.099 154.983 221.729 153.545C240.57 150.405 259.174 150.677 278.22 150.677C289.266 150.677 303.658 147.355 313.902 152.478" stroke="black" stroke-width="20" stroke-linecap="round"/>
<path d="M196.852 147.076C212.221 147.076 227.418 146.726 242.505 143.774C257.435 140.853 271.857 139.79 286.891 140.473C291.828 140.697 296.703 141.665 301.597 142.24C303.493 142.463 308.199 144.245 306.432 141.974C305.045 140.189 304.788 137.725 303.098 135.938C300.21 132.885 298.019 129.793 295.928 126.133C294.382 123.429 292.964 120.838 291.693 117.997C290.65 115.665 291.576 113.145 290.792 110.794C289.577 107.148 289.892 102.299 289.892 98.4549C289.892 92.9601 290.137 87.605 293.027 82.7148C296.941 76.0909 304.181 70.9577 307.3 63.9401C307.59 63.2864 308.845 61.6922 308.433 60.9721C307.818 59.8945 301.358 59.6935 300.096 59.4382C294.318 58.2687 288.929 55.9963 283.289 54.3693C277.674 52.7494 271.609 51.9004 265.815 51.1679C259.622 50.3849 254.658 45.8393 248.341 45.6322C238.735 45.3173 229.222 45.5447 219.595 45.6322C207.915 45.7384 194.307 47.245 182.746 44.7318C180.068 44.1497 177.333 43.8954 174.676 43.2312C173.243 42.873 171.826 42.6309 174.042 42.6309C178.83 42.6309 182.614 42.5908 187.115 44.4317C198.177 48.9573 207.692 55.3451 210.358 67.6083C211.138 71.1979 211.075 75.2157 208.557 78.0128C205.245 81.6925 203.477 87.0957 200.754 91.2852C198.107 95.3567 195.197 99.6357 195.051 104.724C194.901 109.998 194.576 115.685 195.518 120.865C196.593 126.774 195.652 133.567 195.652 139.573C195.652 142.907 196.429 147.358 194.751 150.377C193.501 152.628 193.237 155.393 191.583 157.414C188.841 160.765 198.016 156.125 199.053 156.08C203.329 155.894 207.549 155.18 211.825 154.913C216.747 154.605 221.554 154.993 226.465 154.279C232.565 153.392 238.721 152.883 244.839 152.145C257.213 150.651 268.467 144.882 279.688 139.873" stroke="white" stroke-width="20" stroke-linecap="round"/>
<path d="M250.876 142.274C261.158 142.274 271.44 142.274 281.722 142.274C285.56 142.274 289.252 142.321 293.027 143.008C294.975 143.362 299.496 145.136 299.496 142.574C299.496 141.164 297.721 139.005 296.762 137.772C294.159 134.426 292.526 130.691 290.826 126.867C289.111 123.009 285.691 119.058 285.691 114.662C285.691 109.569 285.92 105.094 287.024 100.123C287.926 96.0653 289.128 92.0249 290.026 87.984C290.796 84.5181 291.89 80.1403 293.827 77.146C295.633 74.3556 299.102 71.5416 298.896 67.842C298.797 66.0534 295.83 66.6415 294.661 66.6415C290.491 66.6415 286.835 65.3386 282.756 64.5406C273.955 62.8186 265.004 61.2077 256.278 59.1717C253.706 58.5714 251.537 58.7691 249.075 57.6377C246.72 56.5557 243.545 55.8405 241.005 55.37C230.043 53.3401 219.593 48.6338 208.257 48.6338C207.4 48.6338 203.354 49.2786 204.656 49.9677C207.167 51.2974 209.898 51.787 211.825 54.0361C217.4 60.5396 215.908 72.619 214.86 80.4808C213.686 89.2858 210.314 97.4625 206.457 105.392C202.553 113.415 197.453 123.058 197.453 132.07C197.453 138.025 199.253 143.339 199.253 149.177C199.253 151.367 215.042 149.669 216.628 149.51C223.048 148.868 229.115 147.076 235.736 147.076C244.384 147.076 253.032 147.076 261.68 147.076" stroke="black" stroke-width="20" stroke-linecap="round"/>
<path d="M207.501 142.014C208.079 146.637 250.246 137.692 255.687 136.436C261.185 135.168 268.103 136.254 273.745 136.254C277.446 136.254 279.917 136.444 279.917 132.139C279.917 125.728 276.625 120.152 276.625 113.669C276.625 107.239 275.489 99.5849 277.448 93.4624C279.051 88.4527 280.742 81.9119 283.574 77.4614C286.674 72.5896 284.726 72.0668 279.277 72.0668C270.316 72.0668 262.228 69.9139 253.584 67.5865C246.432 65.6611 238.962 64.404 232.188 61.5519C228.133 59.8445 223.329 60.632 219.433 58.9003C216.931 57.7881 217.285 58.9018 218.199 60.9575C219.274 63.377 219.888 66.1636 220.485 68.7752C223.734 82.9924 217.617 98.6383 213.078 111.749C209.715 121.465 205.032 130.807 205.032 141.191" stroke="white" stroke-width="20" stroke-linecap="round"/>
<path d="M214.907 136.253C227.539 136.253 242.977 139.022 254.772 133.967C258.208 132.494 261.977 131.501 265.287 130.31C269.555 128.773 272.51 131.425 272.51 125.966C272.51 123.256 271.675 119.993 271.276 117.28C270.412 111.403 270.865 105.288 270.865 99.3591C270.865 94.3793 273.756 89.8329 275.985 85.5983C277.535 82.6527 279.301 80.5275 279.094 77.0035C278.982 75.0999 263.471 74.6799 261.356 74.1233C254.965 72.4416 248.819 71.5496 242.474 69.5973C237.461 68.0547 233.023 66.3057 227.662 66.3057C224.549 66.3057 223.061 74.6543 222.313 77.4606C221.194 81.6582 221.779 85.864 221.033 90.1243C219.962 96.2462 218.261 102.479 216.553 108.457C214.741 114.8 213.339 121.946 210.975 128.024C210.62 128.938 223.844 128.847 225.605 128.847C233.992 128.847 243.675 125.735 251.115 131.315" stroke="black" stroke-width="20" stroke-linecap="round"/>
<path d="M225.605 126.378C231.365 126.378 237.126 126.378 242.886 126.378C246.613 126.378 251.943 127.376 255.595 126.332C257.209 125.871 256.876 123.667 256.876 122.446C256.876 116.749 258.381 111.416 258.521 105.805C258.587 103.172 258.521 100.53 258.521 97.8961C258.521 95.2906 260.167 93.0468 260.167 90.5813C260.167 86.7033 258.066 84.0037 254.224 82.5809C247.916 80.2447 242.78 80.295 235.937 80.295C229.56 80.295 227.166 83.6402 224.782 89.5299C221.577 97.4484 224.033 106.506 221.125 114.4C220.036 117.356 216.866 124.732 221.491 124.732" stroke="white" stroke-width="20" stroke-linecap="round"/>
<path d="M226.428 123.087C233.133 123.087 239.838 123.087 246.543 123.087C248.308 123.087 252.015 108.197 252.578 105.806C254.832 96.225 244.795 93.4619 237.537 93.4619C232.562 93.4619 231.453 105.426 229.719 109.097C227.745 113.279 226.104 117.567 228.485 121.852C231.866 127.937 253.991 112.14 242.063 104.983" stroke="black" stroke-width="20" stroke-linecap="round"/>
<path d="M239.594 104.982V116.503" stroke="white" stroke-width="20" stroke-linecap="round"/>
<path d="M743.798 43.5144C736.365 43.5144 730.389 37.4457 723.082 36.9585C708.524 35.988 694.456 30.5721 679.918 28.8816C648.202 25.1938 608.914 38.4552 591.806 66.7485C587.423 73.9985 583.757 82.3878 581.632 90.612C578.986 100.849 587.574 109.732 594.534 115.892C613.341 132.537 638.984 134.929 662.925 137.5C688.692 140.267 714.355 134.408 738.449 125.647C751.429 120.926 759.529 115.843 762.469 101.731C764.629 91.3655 764.567 80.9988 764.567 70.4722C764.567 63.9968 765.81 56.0741 760.267 51.5388C752.353 45.0637 740.601 45.5361 731.998 40.2102C727.207 37.2445 721.74 36.091 716.211 35.49C704.551 34.2226 692.746 32.4752 681.019 32.2383C651.659 31.6451 623.73 32.8779 595.215 40.2102C586.794 42.3756 580.712 48.9552 572.873 52.4829C555.167 60.4505 535.384 64.2264 516.964 70.1051C493.004 77.7519 466.55 86.8352 441.126 87.8323C434.123 88.1069 421.877 88.0096 421.877 97.535C421.877 105.144 425.508 109.123 431.003 114.528C440.89 124.252 455.356 130.848 467.611 136.975C475.6 140.969 484.064 144.6 492.366 147.884C502.372 151.843 513.099 153.46 523.31 156.8C545.088 163.924 566.129 171.893 586.194 182.762C591.779 185.787 597.577 189.927 604.026 190.734C610.078 191.49 615.867 191.73 622.016 191.73C636.821 191.73 653.808 189.856 665.232 179.248C669.338 175.436 674.331 172.314 678.869 169.073C685.165 164.576 690.944 159.246 697.33 154.912C705.954 149.06 714.007 141.662 720.197 133.409C722.846 129.877 727.698 126.507 731.526 124.493C737.071 121.574 739.81 116.56 742.854 111.486" stroke="white" stroke-width="20" stroke-linecap="round"/>
<path d="M659.778 120.926C633.385 120.926 606.973 121.223 580.582 120.926C565.876 120.761 548.104 119.378 534.429 113.584C526.973 110.425 521.177 108.654 513.03 108.654C501.469 108.654 488.513 110.356 477.104 108.601C472.89 107.953 469.099 105.822 464.831 105.822C461.352 105.822 454.394 105.822 454.394 105.822C454.394 105.822 476.082 104.184 486.912 103.199C504.89 101.565 522.86 96.6786 540.513 92.6049C554.846 89.2972 568.832 82.7536 582.995 78.6539C592.759 75.8274 602.103 74.2693 611.579 70.4197C619.993 67.0012 628.946 64.7977 637.697 62.3953C662.628 55.5517 690.929 51.1522 716.421 55.7869C722.835 56.9533 727.505 57.3201 730.162 63.3918C732.74 69.2841 736.093 75.8747 736.246 82.4301C736.35 86.9334 737.88 94.9426 734.357 98.2692C728.107 104.172 717.433 106.731 710.442 112.01C695.94 122.96 677.86 130.653 665.966 144.737C659.34 152.585 649.888 161.47 641.316 167.185C635.256 171.225 629.863 172.334 622.645 171.853C611.66 171.12 602.8 165.358 593.17 160.576C582.579 155.319 571.794 150.406 561.072 145.419C554.059 142.157 547.054 137.366 539.674 135.087C532.442 132.854 524.266 130.557 517.751 126.591C511.64 122.871 504.282 121.877 498.135 118.094C494.541 115.882 490.523 115.667 487.017 114.108C483.809 112.683 479.877 113.662 476.632 112.22C473.005 110.608 468.956 110.487 465.303 108.863C462.154 107.464 457.898 105.796 454.499 104.825C449.608 103.427 464.286 102.045 465.723 102.045C485.456 102.045 505.096 102.989 524.831 102.989C549.922 102.989 575.249 103.997 600.302 102.57C626.437 101.081 652.482 97.3572 678.554 95.0174C687.364 94.2268 696.336 94.6608 705.092 93.3391C707.294 93.0067 710.646 92.8253 711.7 90.7168" stroke="white" stroke-width="54" stroke-linecap="round"/>
<path d="M617.295 169.072C607.273 169.072 599.464 161.784 590.915 157.272C579.478 151.236 568.66 145.875 556.352 141.695C546.321 138.288 535.484 135.238 526.09 130.366C517.131 125.721 506.578 124.498 497.454 120.506C493.49 118.772 489.144 118.004 485.129 115.996C478.461 112.662 489.157 112.698 492.209 112.377C496.613 111.913 500.179 108.594 504.482 107.762C510.724 106.553 517.67 104.835 523.415 102.045C535.084 96.377 545.528 90.4859 558.135 86.9402C570.82 83.3726 583.664 78.6562 596.054 74.1955C605.883 70.6573 616.301 68.7786 625.792 64.283C637.125 58.9149 649.985 58.2186 662.138 56.2586C671.505 54.7478 680.936 53.8984 690.407 53.8984C697.096 53.8984 706.263 54.9377 712.225 58.0942C717.844 61.0692 721.65 67.8024 726.753 71.3109C729.151 72.9599 732.469 78.3114 732.469 81.2759C732.469 84.0789 733.33 86.8126 730.949 88.4611C728.276 90.3111 725.876 91.391 723.029 92.8142C709.061 99.7981 696.478 108.892 683.064 116.94C675.41 121.533 667.917 126.128 661.666 132.727C658.881 135.666 655.246 137.751 652.75 140.961C650.504 143.848 647.756 147.108 645.145 149.719C642.607 152.258 635.232 157.949 635.232 161.52C635.232 167.313 646.419 157.632 647.925 156.328C658.582 147.091 671.286 141.377 682.645 133.199C687.211 129.911 690.634 126.127 695.704 123.339C702.615 119.537 709.534 115.103 715.896 110.332C718.839 108.125 725.677 104.342 726.753 100.576C727.632 97.4987 718.584 100.069 717.679 100.367C708.409 103.418 700.001 108.113 690.459 110.541C675.608 114.322 660.429 116.53 645.512 119.982C630.234 123.517 615.453 127.737 599.988 130.366C589.811 132.096 573.707 133.971 565.845 125.646C563.146 122.789 560.477 119.547 561.701 115.262C562.417 112.757 567.602 112.042 569.569 111.485C578.298 109.012 587.351 107.313 596.212 105.402C625.72 99.037 656.061 96.4027 685.949 92.2898C692.035 91.4522 698.152 90.7141 704.253 89.9821C706.188 89.7498 707.626 90.0702 708.868 88.8283" stroke="black" stroke-width="54" stroke-linecap="round"/>
<path d="M619.104 152.373C597.636 152.373 581.856 134.184 563.114 126.442C553.994 122.676 545.331 122.39 535.839 120.392C530.03 119.169 521.002 118.52 515.815 115.638C513.06 114.108 506.181 112.613 513.606 112.613C530.96 112.613 547.096 104.299 563.498 99.6477C581.838 94.4468 599.711 88.1214 616.896 79.7677C633.158 71.8622 652.051 71.041 669.477 67.2827C682.088 64.5625 691.154 64.0856 702.562 70.3079C706.634 72.529 711.59 80.278 711.59 84.9538C711.59 94.4304 707.799 97.9797 700.257 103.201C685.816 113.199 670.892 122.426 656.752 132.877C650.085 137.804 642.512 141.056 635.431 145.266C630.382 148.268 625.522 151.854 620.353 154.582C618.098 155.772 615.997 157.781 614.11 159.48C611.817 161.543 614.458 152.252 614.831 151.46C619.259 142.051 622.783 132.569 628.564 123.897C629.793 122.054 630.258 119.425 631.782 117.847C636.306 113.161 642.489 108.744 648.828 107.043C653.73 105.728 658.272 103.469 663.186 102.241" stroke="white" stroke-width="54" stroke-linecap="round"/>
<path d="M610.461 154.966C612.684 154.688 610.171 150.786 611.709 149.972C614.021 148.748 617.331 148.539 619.969 147.187C631.302 141.374 641.977 133.534 652.238 126.058C662.878 118.306 675.277 112.804 686.331 105.698C691.301 102.503 696.805 100.552 701.697 97.4385C705.146 95.2439 708.996 94.0982 708.996 89.7074C708.996 85.6812 704.547 80.2887 700.737 78.9031C682.596 72.3063 661.195 73.4827 642.153 77.1744C625.494 80.4043 610.22 89.3601 594.038 94.2693C581.058 98.2071 566.888 103.362 553.222 103.969C547.263 104.234 542.043 107.995 536.127 108.291C533.343 108.43 530.778 109.915 528.156 110.692C526.119 111.295 521.034 111.748 526.187 111.748C537.008 111.748 545.836 112.771 556.343 115.59C562.816 117.326 569.536 119.697 575.407 122.985C579.616 125.342 583.654 128.838 587.988 130.764C591.679 132.405 602.33 138.979 606.139 133.741C614.777 121.863 624.147 115.978 637.256 110.02" stroke="black" stroke-width="54" stroke-linecap="round"/>
<path d="M618.24 138.543C616.846 138.369 617.11 135.448 617.904 134.654C620.109 132.449 624.575 131.294 627.364 129.9C631.573 127.795 634.653 124.286 638.888 122.169C642.919 120.153 647.78 118.162 651.469 115.638C657.464 111.536 664.65 109.362 670.965 106.37C675.379 104.28 683.142 99.2102 686.091 95.2779C687.226 93.7644 694.735 88.1981 691.181 85.4339C687.297 82.4131 677.809 83.9718 673.366 84.7617C668.384 85.6475 662.945 84.7726 657.904 85.0018C648.392 85.4341 638.901 87.0181 629.573 88.8433C614.854 91.723 601.508 99.264 586.931 102.433C581.324 103.652 578.33 107.427 572.43 107.427C568.949 107.427 564.988 108.36 561.625 109.107C555.907 110.378 547.863 112.57 541.793 110.836C537.384 109.576 550.941 110.02 555.527 110.02C559.477 110.02 564.096 112.573 567.436 114.534C572.026 117.228 577.119 119.231 581.457 122.313C585.757 125.368 587.947 129.916 591.877 132.973C595.218 135.571 599.248 136.832 602.682 139.408" stroke="white" stroke-width="54" stroke-linecap="round"/>
<path d="M614.783 147.187C604.002 147.187 596.676 140.247 587.123 135.471C578.481 131.15 571.09 125.004 561.865 121.929C556.163 120.029 548.507 121.257 542.561 121.257C535.293 121.257 531.805 122.257 531.805 114.342C531.805 110.607 532.986 105.523 536.559 103.538C542.077 100.472 550.496 101.695 556.679 100.321C566.802 98.0711 576.977 96.2413 586.787 92.6376C599.542 87.9522 611.779 82.347 624.338 77.1754C641.344 70.1729 661.461 71.9893 679.609 71.9893C684.557 71.9893 692.076 71.4108 695.551 75.8788C699.234 80.6143 700.353 85.349 700.353 91.3891C700.353 100.604 694.808 106.058 688.636 112.229C678.29 122.576 664.471 127.647 651.469 134.03C642.782 138.295 633.727 142.367 624.722 145.891C620.473 147.554 615.78 153.238 611.325 153.238" stroke="black" stroke-width="18" stroke-linecap="round"/>
<path d="M613.054 137.679C624.064 137.679 636.079 138.896 646.475 134.51C655.202 130.828 661.286 123.459 669.236 118.856C676.839 114.454 686.71 108.831 688.204 99.1197C688.858 94.871 691.082 88.5155 686.043 86.2986C679.828 83.5638 673.257 84.0897 666.643 84.0897C654.217 84.0897 641.752 83.5078 629.476 85.8184C618.797 87.8286 607.251 88.4997 597.063 92.253C585.64 96.4618 574.418 101.649 563.018 106.083C557.464 108.242 551.791 109.487 546.499 112.133C544.92 112.923 535.667 116.935 542.177 116.935C558.117 116.935 572.166 116.536 587.075 123.369C593.396 126.267 598.963 132.092 603.546 137.247C605.762 139.74 609.471 143.73 613.054 143.73" stroke="white" stroke-width="18" stroke-linecap="round"/>
<path d="M612.19 135.951C622.752 135.951 634.663 136.106 644.603 132.013C657.484 126.709 662.555 116.731 669.045 105.698C670.609 103.038 674.716 101.377 677.88 101.377C678.995 101.377 680.759 100.318 679.417 98.9757C677.456 97.0149 673.274 95.3262 670.581 95.3262C652.113 95.3262 633.133 93.9028 614.831 96.1906C598.558 98.2247 581.148 103.308 566.379 110.692C564.619 111.572 549.698 116.678 549.141 114.726C548.232 111.545 560.053 110.02 562.442 110.02C570.215 110.02 579.243 110.408 585.875 115.014C596.235 122.208 604.369 135.086 618.24 135.086" stroke="black" stroke-width="18" stroke-linecap="round"/>
<path d="M619.104 127.307C623.972 127.307 641.938 130.169 644.171 125.146C645.48 122.199 648.741 119.067 651.085 116.983C652.564 115.668 653.964 114.816 655.791 114.294C656.285 114.153 657.009 111.876 657.568 111.316C659.591 109.293 667.34 102.155 660.161 100.56C651.085 98.5431 639.607 101.833 631.205 104.834C619.965 108.848 606.117 110.884 594.23 110.884C588.519 110.884 579.283 112.71 574.158 109.828C573.447 109.428 581.351 109.356 583.186 109.828C587.995 111.064 593.101 113.763 597.112 116.743C602.465 120.719 608.41 129.036 615.647 129.036" stroke="white" stroke-width="18" stroke-linecap="round"/>
<path d="M614.782 121.256C615.043 123.343 635.071 122.121 638.12 122.121C644.564 122.121 647.387 111.37 653.246 110.068C654.188 109.858 658.345 109.534 654.927 108.291C651.233 106.948 648.636 106.562 644.602 106.562C636.697 106.562 630.669 112.135 622.85 113.861C613.185 115.995 602.299 119.189 592.309 118.663C591.129 118.601 588.23 116.209 590.581 116.07C592.717 115.945 593.999 115.206 596.199 115.206C605.039 115.206 611.479 115.663 619.056 120.872C624.88 124.876 630.815 129.036 638.12 129.036" stroke="black" stroke-width="18" stroke-linecap="round"/>
<path d="M601.817 114.341C611.418 114.341 621.456 113.477 630.773 113.477C633.209 113.477 637.762 112.825 640.185 111.748C641.217 111.29 635.531 116.136 634.711 117.367C633.995 118.44 631.355 124.405 630.533 123.657C629.412 122.638 623.955 116.13 625.155 116.07C628.769 115.889 631.929 114.933 635.479 114.341C638.019 113.918 639.974 112.008 642.442 111.748C644.81 111.499 646.094 109.155 648.492 109.155" stroke="white" stroke-width="18" stroke-linecap="round"/>
<path d="M630.341 118.664C628.541 118.464 624.864 115.876 623.81 114.822C621.484 112.495 617.573 111.749 614.351 111.749C611.808 111.749 616.815 112.588 617.472 112.661C620.588 113.008 623.329 113.478 626.5 113.478C630.173 113.478 633.492 112.613 637.256 112.613" stroke="black" stroke-width="18" stroke-linecap="round"/>
<path d="M621.178 37.8103C615.459 37.8103 609.331 37.144 603.661 37.8527C595.29 38.8991 586.917 43.5561 578.594 43.9179C573.476 44.1404 568.007 46.522 563.326 48.4986C556.34 51.4479 549.466 54.6746 542.5 57.6599C526.829 64.3763 510.246 71.4177 493.682 75.5585C485.501 77.6039 477.851 80.6955 469.676 82.684C461.505 84.6715 452.683 85.3989 446.179 91.4212C438.816 98.2387 428.807 104.198 436.848 114.537C449.136 130.336 468.903 142.186 486.811 151.14C492.752 154.11 499.731 155.803 505.982 158.096C516.027 161.779 526.382 165.214 536.605 168.36C544.414 170.762 551.983 174.828 560.145 175.994C568.535 177.193 577.15 179.7 585.466 181.508C605.895 185.949 624.392 195.712 646.075 191.56C657.861 189.303 670.335 182.542 678.945 174.298C687.324 166.275 698.689 159.652 702.867 148.51" stroke="black" stroke-width="14" stroke-linecap="round"/>
<path d="M652.48 26.2408C638.142 26.2408 623.625 25.6127 609.296 26.2791C601.776 26.6289 594.59 28.31 586.995 28.31C584.41 28.31 582.23 28.6511 579.715 29.038C575.605 29.6702 571.595 31.5478 567.644 32.7548C559.312 35.3009 550.765 37.328 542.585 40.3417C535.878 42.8127 528.918 44.5902 522.545 47.9285C519.683 49.4277 516.511 51.6479 513.502 52.7566C502.363 56.8602 491.546 62.3614 479.744 64.3285C470.631 65.8472 460.4 69.0465 452.079 72.9882C444.379 76.6357 436.499 78.9996 430.238 85.0199C427.649 87.5092 424.184 90.7091 424.184 94.5227" stroke="white" stroke-width="14" stroke-linecap="round"/>
<path d="M365.631 16.762C369.561 16.762 373.491 16.762 377.421 16.762C380.845 16.762 383.163 18.5075 386.278 19.5874C389.404 20.6711 392.432 21.9201 395.515 23.1192C399.091 24.51 402.931 25.8481 405.187 29.232C407.08 32.0717 408.15 36.02 408.882 39.3112C410.17 45.11 413.422 55.4978 410.24 61.1541C407.068 66.7935 403.21 72.0895 399.862 77.5906C397.528 81.4256 395.921 85.7438 393.233 89.4086C387.557 97.1482 377.562 103.471 383.969 113.778C384.852 115.199 398.645 128.419 399.753 127.172C401.233 125.507 398.042 120.472 397.661 118.723C396.53 113.518 396.928 108.128 396.928 102.829C396.928 98.4885 397.36 95.4814 398.504 91.3647C399.865 86.4631 403.558 81.2298 406.708 77.2918C414.828 67.1421 426.719 62.7044 437.462 56.0466C468.332 36.9161 507.648 36.4888 538.255 17.3597C539.445 16.6158 537.475 16.1033 536.896 15.7839C534.933 14.7008 531.147 14.8059 528.936 14.8059C517.499 14.8059 506.297 15.7865 494.895 16.5175C480.184 17.4605 465.46 17.251 450.72 17.251C436.654 17.251 422.627 16.273 408.583 16.273C400.529 16.273 392.103 15.2668 384.105 14.2082C377.867 13.3827 371.43 13.8279 365.142 13.8279C362.615 13.8279 360.088 13.8279 357.562 13.8279C354.198 13.8279 357.038 16.273 359.083 16.273C363.379 16.273 368.667 18.3878 372.259 20.6741C375.619 22.812 378.789 25.1569 382.176 27.2487C385.002 28.9942 388.075 30.1698 390.951 31.8129C395.221 34.2528 397.937 35.4629 399.264 40.5066C400.83 46.4547 401.818 51.9514 401.818 58.1113C401.818 68.2792 398.283 76.2559 393.26 84.9802C390.001 90.6409 385.948 95.7959 383.371 101.851C382.59 103.687 382.476 105.67 383.344 107.502C384.649 110.258 385.359 113.282 386.658 116.033C388.504 119.941 390.612 123.457 393.016 127.063C394.416 129.163 397.807 132.335 398.368 134.86C398.768 136.66 395.438 133.614 395.08 133.257C393.739 131.916 392.18 130.981 390.571 129.997C386.522 127.523 381.431 127.351 377.394 125.08C370.819 121.381 366.889 116.335 361.61 111.251C360.612 110.291 356.173 106.626 356.883 105.03C357.819 102.923 362.406 100.97 364.272 99.8953C367.138 98.245 369.93 96.929 373.156 96.2277C376.514 95.4978 380.208 92.3863 382.746 90.1149C384.548 88.503 383.007 92.1028 382.746 92.5872C381.141 95.5692 379.595 98.5225 378.128 101.58C376.406 105.166 374.433 109.065 374.433 113.099C374.433 116.655 370.685 111.47 370.032 110.165C369.432 108.966 368.565 108.143 368.565 106.742C368.565 104.388 374.088 101.164 375.574 99.678C378.887 96.3652 381.527 92.3954 384.811 89.0282C389.469 84.2518 393.721 79.2127 397.906 74.0316C401.338 69.7818 405.517 66.1318 409.697 62.6483C414.451 58.6862 418.791 54.3911 423.878 50.8304C433.862 43.8414 444.408 37.8431 455.665 33.117C464.209 29.5297 473.392 27.9753 482.398 26.0534C486.923 25.0876 491.428 23.4174 495.954 22.6302C498.006 22.2735 500.023 21.4218 501.958 20.6741C502.865 20.3238 505.701 19.442 506.686 19.7233C507.97 20.0904 502.891 23.6582 502.556 23.8256C499.888 25.1597 496.861 24.9774 494.025 25.673C487.203 27.3465 480.57 30.1383 473.921 32.3834C470.078 33.6813 465.825 34.3667 461.75 34.3667C460.208 34.3667 459.564 33.2264 458.218 32.6823C448.017 28.5583 435.685 27.6767 424.748 27.5204C420.258 27.4563 416.187 27.7812 411.87 29.0146C410.048 29.5353 417.647 40.7214 418.608 41.865C420.03 43.5584 421.373 43.8227 423.579 43.6309C425.095 43.4991 426.01 42.467 427.138 41.539C430.866 38.4731 434.639 35.4068 438.549 32.5736C443.613 28.9036 448.605 26.4661 454.578 24.858C458.28 23.8612 462.312 24.0043 466.097 23.4996C468.305 23.2052 474.841 21.8022 472.644 22.1684C471.361 22.3822 470.147 23.0821 468.922 23.4996C462.708 25.6182 456.533 27.8387 450.34 30.0198C439.035 34.0008 427.634 37.8926 416.108 41.1858C414.026 41.7807 412.27 42.191 410.131 42.191" stroke="white" stroke-width="14" stroke-linecap="round"/>
<path d="M376.021 17.0033C373.897 17.0033 367.736 15.3804 369.86 15.3804C373.052 15.3804 377.017 16.1826 380.048 17.2738C388.673 20.3789 399.115 25.2973 403.069 34.1942C408.328 46.0272 407.963 60.996 402.408 72.7235C400.528 76.6927 398.379 81.841 395.496 85.1358C392.85 88.1598 390.214 91.3167 387.682 94.4826C384.904 97.9544 382.3 102.582 378.605 105.182C375.912 107.077 369.081 108.547 373.616 111.433C380.763 115.981 387.007 122.802 393.572 128.173C396.449 130.527 396.302 126.886 395.916 124.657C395.176 120.378 393.652 115.961 392.37 111.794C390.616 106.094 392.295 99.3173 394.684 94.0619C396.327 90.4471 394.711 95.1494 393.873 96.4061C392.124 99.0291 390.787 101.864 389.545 104.761C388.455 107.303 386.456 110.469 386.299 113.296C386.06 117.598 386.252 113.938 386.299 111.433C386.416 105.22 390.684 100.304 393.813 95.264C396.755 90.5242 399.369 85.6932 402.558 81.1086C405.805 76.4421 409.227 71.9182 412.927 67.6143C420.319 59.0153 428.343 52.3193 437.391 45.5547C445.117 39.7786 453.46 35.6757 462.516 32.421C471.274 29.2737 479.222 24.143 488.032 21.301C492.783 19.7686 497.498 18.1263 502.248 16.5826C505.628 15.4839 508.94 15.5913 512.406 15.1099C516.396 14.5557 521.843 13.3199 525.84 14.5689C532.471 16.6411 523.412 21.4171 521.122 22.413C514.94 25.1009 509.296 28.9141 502.879 31.0987C495.169 33.7234 487.673 36.5335 479.707 38.3717C473.257 39.8602 467.216 42.5433 460.593 43.8115C452.727 45.3177 444.392 46.6469 436.369 46.7568C432.51 46.8097 427.689 47.8065 424.648 45.1038C420.372 41.3028 415.256 37.795 410.463 34.645C403.461 30.044 397.499 23.454 389.425 20.6699C386.306 19.5945 383.234 17.5443 379.838 17.5443C376.28 17.5443 373.366 16.3222 370.07 15.3804C366.215 14.2789 370.338 11.6832 372.354 11.5936C380.735 11.2211 388.638 12.3993 396.938 13.0963C414.222 14.5476 430.982 20.0956 448.331 21.2109C458.625 21.8727 469.116 21.3311 479.437 21.3311C486.552 21.3311 493.82 21.7451 500.925 21.301C505.389 21.0221 509.767 20.7901 514.269 20.7901C514.825 20.7901 517.144 20.4086 516.613 21.6016C515.942 23.1132 510.329 23.271 508.98 23.6152C495.635 27.0194 482.727 31.8437 469.338 35.3062C463.517 36.8117 457.482 38.0402 451.577 39.1832C449.335 39.6171 446.978 40.5712 444.724 40.7761C440.19 41.1883 435.485 41.3471 430.929 41.3471C425.569 41.3471 423.326 39.6834 419.298 35.9073C414.661 31.5595 409.559 27.6971 404.993 23.2546C404.797 23.0641 401.838 19.8839 402.348 19.7382C404.097 19.2385 406.597 21.706 408.419 21.9923C419.961 23.806 431.526 26.0205 443.041 28.0933C443.885 28.2451 455.828 31.2649 454.161 32.932C452.824 34.2692 448.617 33.7735 446.918 33.7735C443.562 33.7735 440.206 33.7735 436.85 33.7735C434.512 33.7735 429.077 32.7331 426.872 33.8937C423.426 35.7074 421.968 41.904 420.08 44.8935C417.784 48.5289 416.775 52.9758 414.43 56.4943" stroke="black" stroke-width="14" stroke-linecap="round"/>
<path d="M392.886 16.2114C394.878 16.2114 396.883 16.139 398.873 16.2114C401.209 16.2963 403.297 17.5271 405.432 18.3685C407.929 19.3521 411.377 21.1496 412.52 23.7614C413.756 26.5859 413.092 30.4087 413.092 33.4245C413.092 35.7887 413.461 40.7048 415.272 42.5153C416.727 43.971 420.82 43.1702 422.557 43.1536C430.844 43.0747 438.18 39.0045 445.692 35.9998C454.241 32.58 462.466 29.8295 471.599 28.802C479.454 27.9184 487.63 26.6981 495.284 24.7299C497.304 24.2104 500.249 23.8113 502.02 22.7488C502.471 22.4777 505.456 20.6907 504.221 21.0539C500.99 22.004 497.885 24.1953 494.624 25.3242C485.838 28.3654 476.454 30.6294 467.373 32.588C460.234 34.1278 452.629 35.1787 445.318 35.2294C442.727 35.2474 439.633 35.6355 437.173 34.6571C434.863 33.7385 432.544 32.2911 430.526 30.8491C425.224 27.0624 419.072 23.1393 412.608 21.6703C408.912 20.8303 405.762 18.5111 402.439 16.8497C402.12 16.6902 400.041 15.4189 400.898 15.4189C403.161 15.4189 405.632 17.3964 407.568 18.4125C414.746 22.1812 421.659 28.9981 429.865 30.3869C432.703 30.8671 435.186 31.2673 438.098 31.2673C439.342 31.2673 443.546 31.7316 444.393 30.673C444.565 30.4577 440.153 30.4421 439.22 30.4969C436.188 30.6753 433.18 31.6067 430.394 32.7641C424.577 35.1801 419.903 37.5563 416.262 42.7574" stroke="white" stroke-width="14" stroke-linecap="round"/>
<path d="M388.131 116.848C387.79 115.143 385.757 112.1 384.389 110.927C383.93 110.533 384.019 109.26 384.654 110.817C385.081 111.865 386.632 113.304 387.427 114.163C388.322 115.13 388.878 116.614 389.914 117.421C391.604 118.735 390.151 115.607 389.87 115.241C389.041 114.159 386.547 112.301 386.547 110.905C386.547 109.44 386.302 107.742 386.767 106.349C391.135 93.2431 400.665 82.4896 407.37 70.4917C409.304 67.03 411.425 63.732 413.577 60.4104C415.319 57.7212 417.381 55.1586 417.759 51.8698C418.25 47.5983 418.64 43.0704 418.64 38.7949" stroke="white" stroke-width="14" stroke-linecap="round"/>
<path d="M418.243 29.2859C419.714 31.3081 418.639 36.3477 418.639 38.993C418.639 40.5612 429.212 36.6379 430.041 36.5057C431.638 36.2512 433.422 36.2405 434.686 35.229C435.916 34.2447 432.025 33.1768 431.318 32.8738C428.78 31.786 426.247 30.4788 423.57 29.7701C422.862 29.5827 420.856 29.3605 420.62 28.8896" stroke="black" stroke-width="14" stroke-linecap="round"/>
<path d="M386.943 108.528C386.943 106.98 386.262 103.773 388.528 103.773" stroke="black" stroke-width="14" stroke-linecap="round"/>
<path d="M429.122 41.7685C426.644 41.7685 423.23 42.3692 421.004 43.4824C419.41 44.279 419.438 46.959 418.974 48.4661C416.754 55.6815 414.11 63.084 411.262 70.0472C409.042 75.4722 406.333 81.7008 402.512 86.2162C398.613 90.8241 395.077 94.795 392.364 100.22C391.99 100.968 390.56 105.377 390.56 104.031C390.56 101.238 393.521 98.5026 394.529 95.8454C395.948 92.103 399.296 88.5833 401.745 85.472C404.622 81.8178 408.055 78.0735 410.021 73.8132C411.635 70.3177 412.904 66.0588 413.697 62.2898C414.537 58.3019 414.516 54.1245 415.636 50.2025C416.557 46.9819 416.865 40.4747 415.817 37.2132C415.014 34.7144 414.915 32.7247 414.915 30.0872C414.915 28.7052 415.367 26.4016 414.509 25.3289C412.212 22.4573 408.819 20.7398 406.165 18.2254C404.905 17.0313 402.71 16.4981 401.114 15.6997C399.894 15.0899 396.713 16.298 398.295 17.6166C399.805 18.8754 402.591 18.6483 404.361 19.5334C406.59 20.648 408.356 21.7676 409.863 23.7053C411.023 25.1958 412.217 26.6038 413.877 27.3585C416.884 28.7252 420.546 28.6608 423.755 29.2753C427.16 29.9274 429.887 31.2147 433.407 31.2147C437.456 31.2147 441.361 32.8384 445.358 32.8384C448.559 32.8384 451.653 33.735 454.875 33.6502C459.426 33.5304 464.586 30.8786 468.856 29.4106C473.108 27.9491 477.242 26.6823 481.665 25.8476C484.676 25.2795 487.504 23.9082 490.618 23.9082C493.324 23.9082 489.344 27.1197 488.611 27.7193C487.165 28.902 483.483 29.8556 481.575 29.997C478.641 30.2143 475.569 31.5043 472.69 32.1167C468.791 32.9464 464.794 33.6886 460.941 34.6875C455.394 36.1256 449.166 38.1153 443.419 38.1153C438.715 38.1153 434.88 39.042 430.836 41.5881C428.735 42.9107 424.146 43.9317 423.033 46.4365C422.741 47.0929 421.996 47.3691 421.612 48.0602C421.222 48.7631 420.803 49.4345 420.372 50.1123C419.563 51.3844 418.726 53.2607 418.568 54.7578C418.236 57.9158 416.352 62.1129 414.689 64.7253C411.905 69.1 409.13 73.56 406.165 77.8724C403.123 82.2977 399.161 85.7802 396.243 90.3881C394.682 92.8532 393.394 95.9272 391.462 98.1005C391.156 98.4448 390.533 100.091 390.56 99.228C390.622 97.252 392.707 94.7077 393.604 92.9138C398.114 83.8939 404.282 76.0193 409.232 67.2509C410.268 65.4161 411.66 63.549 412.164 61.4779C412.656 59.4558 412.962 57.3549 413.539 55.3667C414.273 52.8406 416.121 50.019 417.598 47.8347C419.382 45.198 421.395 41.9897 423.935 40.0546C427.494 37.3428 431.489 34.6492 435.932 33.7404C439.246 33.0626 442.59 33.2443 445.967 33.2443C448.916 33.2443 446.368 35.583 444.953 36.3112C441.773 37.9464 438.325 38.9136 435.211 40.7537C429.503 44.1262 425.814 50.2104 419.786 53.2243C418.517 53.8588 417.044 54.8095 416.538 56.201C415.323 59.5425 413.997 62.6955 412.073 65.7175" stroke="black" stroke-width="5" stroke-linecap="round"/>
<path d="M774.766 143.12C770.211 143.12 765.655 143.12 761.1 143.12C756.166 143.12 750.595 142.383 745.78 143.505C740.077 144.833 732.748 147.358 729.574 152.705C727.28 156.569 724.971 161.106 723.858 165.465C723.028 168.715 722.358 173.266 724.05 176.282C727.295 182.067 731.916 187.838 737.388 191.66C744.187 196.409 753.561 198.034 761.601 198.897C764.747 199.235 767.964 199.4 771.128 199.205C774.602 198.991 777.766 196.881 780.848 195.413C784.978 193.447 789.712 190.051 791.222 185.521C792.687 181.125 792.781 176.317 792.781 171.721C792.781 165.027 792.056 158.449 787.738 153.051C784.042 148.431 779.607 144.271 774.073 142.427" stroke="black" stroke-width="5" stroke-linecap="round"/>
<path d="M774.419 146.584C768.131 146.584 761.844 146.584 755.557 146.584C751.269 146.584 747.001 145.612 742.815 147.007C739.654 148.061 737.851 149.893 735.54 152.204C733.762 153.982 732.377 156.06 730.613 157.824C729.772 158.665 728.436 160.57 728.342 161.75C728.235 163.08 727.144 164.268 726.975 165.619C726.786 167.134 726.956 168.769 726.956 170.296C726.956 173.626 728.082 177.728 730.42 180.189C734.085 184.046 738.801 186.522 743.046 189.62C746.76 192.33 750.867 193.755 755.191 195.086C757.157 195.691 759.329 195.432 761.369 195.432C763.49 195.432 766.353 195.933 768.375 195.259C771.301 194.284 774.139 194.633 777.017 193.354C782.509 190.913 788.311 186.95 788.95 180.554C789.785 172.211 791.298 162.999 785.678 156.13C782.561 152.32 779.19 148.956 775.112 146.237" stroke="white" stroke-width="5" stroke-linecap="round"/>
<path d="M771.994 154.206C772.659 153.541 773.119 153.405 773.649 152.743C774.32 151.905 771.956 152.127 771.647 152.127C769.644 152.127 767.804 152.474 765.758 152.474C763.059 152.474 759.169 151.789 756.596 152.647C752.058 154.16 746.824 153.616 742.546 155.938C739.659 157.506 738.213 160.062 736.811 162.867C735.622 165.243 736.168 166.898 736.31 169.45C736.407 171.19 737.577 173.852 739.082 174.819C742.369 176.933 745.635 179.442 749.283 180.901C753.747 182.687 758.071 184.693 762.986 184.693C765.386 184.693 767.505 184.961 769.915 184.693C771.801 184.484 773.542 183.241 775.266 182.614C776.708 182.09 778.204 180.024 778.653 178.727C779.066 177.535 779.865 176.545 780.232 175.262C780.68 173.694 780.655 171.939 780.655 170.316C780.655 168.032 780.43 165.742 780.309 163.56C780.208 161.747 778.315 161.22 777.191 160.096" stroke="black" stroke-width="16" stroke-linecap="round"/>
<path d="M762.64 175.685C759.047 175.685 755.075 175.973 752.439 173.086C750.408 170.862 748.436 168.964 748.436 165.83C748.436 162.356 753.334 159.78 756.442 159.325C758.399 159.039 761.087 158.603 763.005 159.267C765.012 159.962 767.025 162.103 768.375 163.675C770.036 165.607 771.413 167.706 770.935 170.334C770.695 171.656 768.966 174.511 767.644 174.992C766.507 175.405 763.638 175.847 762.64 174.992C761.635 174.131 759.868 172.841 759.868 171.527" stroke="white" stroke-width="16" stroke-linecap="round"/>
<path d="M761.254 171.874C759.434 171.874 755.365 172.875 755.365 170.142C755.365 167.513 758.692 167.371 760.811 167.371C762.6 167.371 765.225 166.856 765.392 169.276C765.474 170.462 765.486 171.679 764.372 172.298C761.611 173.832 761.352 172.763 758.848 171.355C756.66 170.124 753.632 168.91 753.632 165.985C753.632 162.735 753.945 161.827 757.443 161.827C758.494 161.827 759.707 161.622 760.638 162.174C761.326 162.582 762.698 163.213 763.506 163.213C764.962 163.213 764.372 167.803 764.372 168.756" stroke="black" stroke-width="16" stroke-linecap="round"/>
<path d="M761.6 169.796C760.899 169.708 760.822 167.717 759.349 167.717C758.081 167.717 757.455 166.366 757.097 165.292" stroke="white" stroke-width="16" stroke-linecap="round"/>
<path d="M758.136 165.984V167.37" stroke="black" stroke-width="16" stroke-linecap="round"/>
<path d="M101.722 8.95983C96.024 8.95983 90.3264 8.95983 84.6288 8.95983C78.4026 8.95983 71.7805 8.20142 65.7961 10.2211C59.9685 12.188 54.0606 14.5497 48.5075 17.1801C42.2287 20.1543 36.9194 25.8797 31.9365 30.6195C24.1255 38.0495 21.8269 50.2788 23.0421 60.6082C24.2469 70.8491 37.6841 80.3532 46.2676 83.2465C52.9894 85.5123 60.6428 86.6843 67.6881 87.2479C71.4357 87.5477 75.1837 88.1074 78.9311 88.3353C84.3208 88.663 89.7459 88.4387 95.1107 89.2051C105.115 90.6344 115.847 89.5966 125.969 89.5966C128.119 89.5966 128.998 89.721 127.165 91.5538C124.863 93.8564 122.744 95.5458 121.489 98.7519C120.365 101.625 120.511 104.469 120.511 107.516C120.511 109.094 121.763 110.562 122.555 111.909C122.883 112.467 123.471 112.41 123.229 113.257C123.082 113.77 122.466 112.775 122.251 112.713C120.693 112.268 119.252 112.3 117.597 112.3C112.41 112.3 107.229 114.157 102.07 114.649C99.883 114.857 94.663 114.296 92.7838 115.236C91.5553 115.85 91.1778 120.114 91.1528 121.216C91.0851 124.194 90.9056 127.348 91.1745 130.306C91.4476 133.311 93.0137 136.445 94.2843 139.136C95.2366 141.152 96.613 142.791 93.3274 141.18C88.0607 138.596 83.0176 137.952 77.1914 138.157C74.0907 138.266 71.2457 139.083 68.2753 139.875C65.3037 140.667 61.695 141.64 59.0547 143.224C56.9775 144.47 54.7126 145.364 52.5959 146.551C50.7024 147.613 49.0048 149.035 47.1157 150.052C46.14 150.578 44.4246 150.27 43.3535 150.27C39.9113 150.27 36.5328 150.251 33.1543 151.053C27.1674 152.473 21.2152 155.455 18.2144 161.056C15.8759 165.421 14.7059 170.592 14.4087 175.496C14.2663 177.845 12.8974 182.029 15.3003 183.542C17.2959 184.799 19.228 184.717 21.4764 184.717" stroke="black" stroke-width="14" stroke-linecap="round"/>
<path d="M549.609 22.9276C556.684 22.9276 563.869 23.2336 570.711 21.1008C578.618 18.6365 586.971 17.9612 594.962 15.8096C602.814 13.6958 610.597 12.6668 618.741 12.1877C630.022 11.5242 642.192 11.4773 653.418 12.4082C662.778 13.1844 672.12 14.9908 681.511 14.9908C697.261 14.9908 712.687 15.4981 728.313 17.4789C734.818 18.3035 741.076 18.9511 747.179 21.5103C750.778 23.0196 753.399 25.2881 756.533 27.4629C761.226 30.7193 765.785 39.1225 767.304 44.4388C768.564 48.8495 770.879 52.9903 771.525 57.6038C772.354 63.5286 773.249 69.6997 773.509 75.682C773.73 80.7589 773.94 86.2501 773.257 91.3036C772.606 96.1195 771.152 100.406 769.887 105.067C767.93 112.277 763.653 118.534 758.36 123.712C754.178 127.803 749.493 130.344 744.88 133.728C742.654 135.36 739.066 135.468 737.258 137.728C736.88 138.2 734.215 138.907 733.541 139.176C730.505 140.391 727.821 141.866 725.101 143.68C713.458 151.442 698.708 163.535 698.708 178.829" stroke="black" stroke-width="14" stroke-linecap="round"/>
<path d="M707.778 165.79C707.778 170.43 707.778 175.071 707.778 179.711C707.778 182.391 707.103 186.257 708.061 188.75C709.013 191.223 710.338 194.588 712.03 196.655C713.289 198.195 713.672 200.653 714.707 201.947C717.466 205.396 707.39 209.083 705.794 210.324C703.703 211.951 701.45 212.087 698.991 212.844C695.908 213.792 692.291 216.177 689.637 217.946" stroke="black" stroke-width="14" stroke-linecap="round"/>
<path d="M25.0409 200.584C24.8803 199.862 23.5584 198.946 23.0914 198.317C22.1416 197.039 21.4867 195.58 20.5526 194.282C18.6106 191.585 16.5293 188.952 14.5228 186.303C10.4501 180.927 10.2169 173.537 10.3519 166.99C10.4606 161.718 13.9672 155.913 17.3337 152.029C21.9035 146.756 27.2013 143.066 33.8815 140.921C39.7631 139.034 46.1578 137.843 52.1974 136.501C59.6285 134.85 65.7907 130.846 70.5586 125.031C73.6249 121.292 76.6629 117.006 76.4523 111.952C76.3257 108.913 72.0392 104.755 69.3118 103.496C63.01 100.588 56.7579 97.4005 50.4066 94.5424C45.0189 92.1179 39.7803 89.4615 36.239 84.9084C35.596 84.0817 35.3583 82.491 35.2416 81.4402C35.1286 80.4234 34.1556 79.4032 33.6095 78.584" stroke="black" stroke-width="14" stroke-linecap="round"/>
<path d="M20.9607 173.247C20.9607 170.602 20.7546 167.876 20.9834 165.245C21.2567 162.102 24.1091 158.849 26.4691 156.926C29.5431 154.421 31.7457 151.511 35.423 149.672C41.5694 146.599 47.4641 142.815 53.7843 140.106C60.4501 137.249 67.1679 134.742 73.4149 130.993C76.1899 129.328 80.0293 126.519 81.1221 123.241C82.1773 120.075 81.305 115.36 79.286 112.836C75.6152 108.248 73.6038 101.863 68.6772 98.3738C66.9131 97.1242 65.658 95.5017 64.1209 93.9988C62.3834 92.2999 60.4323 90.9457 58.7259 89.1932C58.3722 88.83 55.4164 86.3291 55.4164 85.929C55.4164 85.8421 56.8367 86.7079 56.8898 86.745C57.6761 87.2954 58.5765 87.5885 59.406 88.0598C68.3376 93.1346 78.4778 95.2299 88.6026 96.2203C92.6874 96.6199 97.0806 97.3537 101.161 97.3537C104.375 97.3537 108.151 96.8009 111.316 97.3764C112.204 97.5379 115.032 98.2288 112.994 99.3939C111.31 100.356 111.543 104.139 111.543 105.718C111.543 106.732 113.13 110.819 112.676 110.819C110.157 110.819 107.635 110.003 105.014 110.003C98.4836 110.003 92.3098 111.436 88.8746 117.324C86.3886 121.586 85.8371 126.412 85.8371 131.311C85.8371 132.275 86.339 135.701 85.429 134.892C84.4658 134.036 83.2989 134.076 82.0741 134.076C78.2423 134.076 74.4084 134.148 70.604 134.666C61.4685 135.908 49.6653 138.352 43.6289 146.113C41.2985 149.109 42.9761 154.092 40.546 157.13C39.5145 158.419 37.0702 158.472 35.7404 159.374C32.8863 161.311 29.9795 163.323 27.5798 165.812C25.5407 167.926 23.1005 171.316 22.1848 174.063" stroke="white" stroke-width="14" stroke-linecap="round"/>
<path d="M71.5564 96.9453C74.7451 96.9453 77.9337 96.9453 81.1224 96.9453C85.318 96.9453 88.8243 98.368 92.7738 99.5748C95.6874 100.465 98.6067 100.78 101.342 101.932C102.563 102.446 103.694 103.092 104.924 103.564C105.26 103.693 107.553 104.86 106.216 105.083C103.496 105.537 100.777 105.319 98.0782 106.013C94.6311 106.899 91.2806 108.761 88.2855 110.592C87.1299 111.298 86.0506 112.104 84.84 112.654C83.43 113.295 83.2782 110.193 83.0719 109.367C82.2696 106.158 77.6311 101.957 74.6166 100.618C73.3988 100.076 70.5099 98.5246 69.9243 97.3533" stroke="black" stroke-width="14" stroke-linecap="round"/>
<path d="M84.6131 110.818C84.6131 114.823 84.6131 118.828 84.6131 122.832C84.6131 125.152 84.2359 128.12 81.9609 129.384C78.9726 131.044 76.2371 132.477 72.9616 133.668C67.9719 135.482 62.8499 136.637 58.182 139.29C55.4113 140.864 52.1872 141.647 49.4321 143.325C46.5417 145.084 44.2315 147.936 41.8609 150.306C39.8337 152.333 38.3761 154.041 36.8739 156.427C35.9482 157.897 35.0727 159.135 33.8137 160.394C32.5416 161.666 31.3162 162.779 29.7334 163.658C27.6133 164.836 27.4893 164.024 27.4893 162.026C27.4893 157.229 34.7428 155.611 37.2819 152.437" stroke="black" stroke-width="14" stroke-linecap="round"/>
<path d="M434.014 157.268C434.014 165.707 434.305 174.195 434.014 182.631C433.94 184.779 433.047 186.788 432.471 188.803C432.311 189.363 431.798 189.911 433.06 189.28C435.848 187.886 437.786 185.285 440.467 183.753C443.313 182.127 446.639 181.041 449.725 179.994C455.302 178.101 460.801 175.823 466.475 174.242C476.989 171.312 487.654 169.23 498.43 167.481C509.198 165.733 521.079 166.211 531.508 169.136C536.991 170.674 544.486 173.002 548.762 176.851C549.413 177.437 549.797 176.479 549.548 175.954C548.91 174.607 547.676 173.791 546.378 173.176C542.388 171.286 538.571 169.104 534.51 167.368C527.159 164.227 519.123 162.548 511.532 160.018C508.056 158.859 504.821 157.435 501.236 156.539C498.152 155.768 495.435 155.266 492.595 153.846C485.876 150.486 478.022 146.17 475.032 138.695C473.863 135.774 476.114 139.513 476.659 140.603C477.767 142.82 477.936 146.591 477.164 148.908C473.977 158.468 461.584 161.308 452.783 161.308C444.346 161.308 439.448 159.41 434.014 153.2C432.469 151.435 431.491 149.633 429.862 148.066C428.081 146.354 426.607 144.436 424.699 142.876C422.77 141.297 422.032 140.657 424.307 143.016C426.869 145.674 428.729 149.07 431.321 151.797C435.869 156.585 440.785 162.838 446.864 165.601C449.23 166.677 454.165 165.955 456.627 165.741C463.534 165.141 469.731 163.272 476.406 161.841C479.891 161.095 482.989 160.803 486.535 160.803C488.125 160.803 486.989 161.499 486.03 161.813C481.562 163.276 476.623 163.456 472.002 164.086C460.929 165.596 450.956 169.25 441.028 174.214C440.232 174.612 434.965 177.187 437.549 178.479" stroke="white" stroke-width="14" stroke-linecap="round"/>
<path d="M439.536 164.322C439.536 167.024 439.536 169.726 439.536 172.428C439.536 174.918 439.208 175.686 441.528 174.088C447.377 170.061 455.931 169.406 462.682 168.189C470.766 166.731 478.972 166.12 487.038 164.654C491.254 163.887 495.522 163.345 499.812 163.267C500.485 163.255 503.172 163.757 503.172 162.74C503.172 161.296 498.127 159.524 496.96 158.97C494.345 157.728 491.895 156.176 489.323 154.849C488.109 154.222 486.676 153.938 485.554 153.149C484.761 152.593 483.617 151.313 482.604 151.313C481.23 151.313 480.454 153.218 479.381 154.009C472.636 158.985 464.901 160.946 457.115 163.423C453.588 164.546 450.239 165.518 446.568 164.498C444.542 163.935 442.755 163.471 440.942 162.564" stroke="black" stroke-width="14" stroke-linecap="round"/>
<path d="M442.7 165.025C442.7 163.853 442.7 167.369 442.7 168.541C442.7 169.962 442.507 170.462 441.919 171.705C440.716 174.243 442.933 172.029 444.028 171.158C445.042 170.351 446.184 169.767 447.134 168.873C448.671 167.425 451.525 167.358 453.521 166.939C464.202 164.697 475.543 165.025 486.413 165.025C488.107 165.025 498.424 165.548 497.878 163.091C497.541 161.573 494.853 160.261 493.835 159.243C492.883 158.292 491.459 158.491 490.339 157.993C489.04 157.416 487.306 157.543 485.885 157.661C480.716 158.092 475.59 159.446 470.474 160.298C466.018 161.041 461.573 161.947 457.134 162.74C454.434 163.222 451.702 163.317 449.048 164.146C446.336 164.993 443.163 164.347 440.59 165.376" stroke="white" stroke-width="9" stroke-linecap="round"/>
<path d="M443.124 167.147C443.124 167.519 442.954 169.42 443.229 169.145C444.987 167.388 447.167 166.534 449.558 165.77C453.107 164.636 456.602 164.12 460.312 164.12C465.474 164.12 470.599 163.363 475.755 163.363C481.795 163.363 487.809 162.795 493.837 162.795C494.858 162.795 491.988 160.45 491.524 160.146C491.109 159.875 490.588 159.957 490.115 159.957C488.088 159.957 486.037 160.085 484.039 160.451C479.04 161.366 474.01 162.178 468.975 162.879C465.868 163.312 462.879 164.321 459.787 164.772C457.692 165.077 455.653 165.109 453.553 165.297C451.813 165.454 450.038 165.31 448.318 165.592C447.166 165.78 445.995 166.012 444.827 166.012C444.366 166.012 444.234 165.621 443.881 165.444" stroke="black" stroke-width="6" stroke-linecap="round"/>
<path d="M629.183 27.0869C618.02 27.0869 606.856 27.0869 595.692 27.0869C585.879 27.0869 576.735 29.8601 567.343 32.3199C563.105 33.43 558.981 35.2735 554.875 36.9158C550.249 38.7664 545.435 40.2114 540.951 42.4218C536.191 44.7683 530.705 46.7068 525.548 47.996C522.548 48.746 519.961 50.228 517.152 51.4316C513.744 52.8925 510.148 53.8931 506.732 55.3449C499.266 58.5181 492.356 62.8724 485.049 66.3797C478.865 69.348 472.331 71.3776 466.188 74.5021C460.108 77.5942 454.004 80.557 447.599 82.9431C441.809 85.1002 435.689 84.7177 430.058 87.7893C426.536 89.7099 423.06 91.911 420.752 95.2292C420.1 96.1666 417.742 99.3968 419.182 100.394C422.717 102.841 425.704 105.774 429.057 108.471C431.886 110.747 434.717 112.379 438.157 113.499C440.158 114.15 441.973 114.688 443.663 115.956" stroke="black" stroke-width="6" stroke-linecap="round"/>
<path d="M628.823 25.6658C637.69 25.6658 646.388 24.7852 655.219 24.7852C660.898 24.7852 665.126 24.9703 670.313 27.4272C673.282 28.8337 675.47 31.0008 677.799 33.2495C678.676 34.0964 679.953 35.3534 681.224 35.3534" stroke="black" stroke-width="6" stroke-linecap="round"/>
<path d="M242.564 104.606C242.461 103.781 240.496 103.888 239.947 103.936C238.347 104.075 237.023 106.725 236.317 108.007C235.016 110.374 234.37 112.221 234.37 115.038C234.37 116.466 235.582 116.828 236.76 117.352C238.96 118.33 240.832 116.956 241.603 114.798C242.319 112.791 244.05 110.616 244.157 108.475C244.21 107.418 243.52 105.744 242.336 105.744" stroke="black" stroke-width="6" stroke-linecap="round"/>
<path d="M635.718 113.916C635.05 112.746 633.817 111.622 632.515 111.201C630.542 110.562 628.383 109.625 626.285 109.625C623.863 109.625 621.528 110.485 619.983 112.403C618.92 113.722 619.309 115.445 619.589 117.005C620.436 121.725 627.661 121.752 631.344 121.007C633.144 120.643 633.644 119.567 633.894 117.876C633.98 117.288 634.441 115.144 633.852 114.849" stroke="white" stroke-width="6" stroke-linecap="round"/>
</svg>
